{"glyphs":{"0":{"ha":857,"x_min":44,"x_max":813,"o":"m 424 18 q 217 77 303 18 q 88 233 131 136 q 44 439 44 329 q 87 665 44 556 q 215 846 129 775 q 426 917 301 917 q 641 848 554 917 q 770 669 728 779 q 813 439 813 560 q 767 230 813 326 q 633 76 721 133 q 424 18 544 18 m 421 107 q 574 151 510 107 q 672 270 639 194 q 706 439 706 346 q 672 631 706 542 q 576 774 639 719 q 429 828 514 828 q 280 773 343 828 q 184 628 217 718 q 151 439 151 539 q 183 272 151 347 q 276 151 215 196 q 421 107 338 107 z "},"1":{"ha":621,"x_min":118,"x_max":432,"o":"m 432 49 q 418 15 432 28 q 378 3 404 3 q 329 49 329 3 l 329 788 q 197 625 254 690 q 184 618 193 621 q 167 615 175 615 q 131 626 144 615 q 118 657 118 638 q 124 676 118 665 q 138 697 129 688 q 225 804 188 756 q 276 871 263 853 l 303 906 q 329 928 313 921 q 363 935 346 935 q 411 919 392 935 q 431 875 431 903 l 432 49 z "},"2":{"ha":774,"x_min":76,"x_max":690,"o":"m 638 99 q 676 86 661 99 q 690 54 690 74 q 675 21 690 33 q 638 8 660 8 q 560 11 621 8 q 379 15 422 15 q 122 10 228 15 q 89 21 101 10 q 79 50 76 32 q 175 244 96 151 q 399 438 254 336 q 569 700 569 558 q 515 836 569 783 q 375 889 461 889 q 279 862 321 889 q 216 791 238 835 q 194 697 194 747 q 181 667 193 676 q 142 657 168 657 q 102 671 114 657 q 90 711 90 685 q 128 842 90 781 q 233 941 165 904 q 388 978 301 978 q 540 941 474 978 q 642 840 606 904 q 678 699 678 776 q 460 363 678 514 q 298 233 368 301 q 203 100 228 164 q 379 103 257 103 q 638 99 479 103 z "},"3":{"ha":814,"x_min":56,"x_max":761,"o":"m 614 497 q 722 406 683 469 q 761 261 761 343 q 725 140 761 200 q 617 42 689 81 q 446 3 546 3 q 56 347 56 3 q 108 406 56 406 q 161 357 161 406 q 435 92 161 92 q 556 115 506 92 q 633 176 607 139 q 658 257 658 214 q 606 401 658 353 q 436 450 553 450 q 393 492 393 450 q 402 528 393 515 q 435 540 411 540 q 635 700 635 540 q 613 778 635 740 q 552 839 592 815 q 460 863 513 863 q 364 840 408 863 q 293 778 319 818 q 267 689 267 739 q 271 661 267 681 q 275 632 275 642 q 262 605 275 615 q 224 594 249 594 q 174 622 186 594 q 161 697 161 658 q 201 826 161 768 q 308 917 240 885 q 457 950 376 950 q 598 917 532 950 q 703 828 664 885 q 743 700 743 771 q 708 576 743 629 q 614 497 674 522 z "},"4":{"ha":815,"x_min":26,"x_max":800,"o":"m 754 388 q 787 378 774 390 q 800 342 800 365 q 791 310 800 322 q 758 296 782 299 q 611 283 685 288 l 601 43 q 588 9 601 22 q 549 -4 574 -4 q 510 10 522 -4 q 499 47 497 24 l 508 279 q 311 278 447 278 q 65 301 160 278 q 26 346 26 311 q 36 382 26 364 q 216 699 129 564 q 415 946 303 833 q 449 958 428 958 q 483 945 469 958 q 497 914 497 932 q 471 865 497 893 q 281 631 364 754 q 153 397 197 507 q 150 386 150 389 q 168 375 150 379 q 363 365 236 365 q 513 368 415 365 l 525 682 q 574 728 525 728 q 615 713 601 728 q 628 674 629 699 l 615 374 q 754 388 707 382 z "},"5":{"ha":810,"x_min":72,"x_max":738,"o":"m 386 0 q 151 83 229 0 q 72 311 72 167 q 86 349 72 336 q 125 363 100 363 q 181 315 181 363 q 228 151 182 208 q 383 93 274 93 q 565 148 500 93 q 629 314 629 203 q 570 497 629 431 q 397 563 511 563 q 321 556 357 563 q 211 531 285 549 q 189 528 203 528 q 149 541 165 528 q 135 575 133 554 l 138 611 q 151 958 150 842 q 429 953 274 953 q 560 956 482 953 q 650 958 624 958 q 692 915 692 958 q 679 881 692 893 q 644 868 667 868 q 560 867 590 868 l 429 865 q 282 868 354 865 q 254 869 272 869 l 242 642 l 242 638 q 254 624 242 624 l 268 626 q 351 646 317 639 q 424 653 386 653 q 592 609 521 653 q 701 488 664 565 q 738 313 738 411 q 642 82 738 164 q 386 0 547 0 z "},"6":{"ha":839,"x_min":58,"x_max":756,"o":"m 428 568 q 608 526 533 568 q 719 415 682 483 q 756 268 756 347 q 665 74 756 146 q 424 3 575 3 q 151 109 243 3 q 58 425 58 215 q 106 697 58 579 q 242 878 153 814 q 451 943 331 943 q 622 892 554 943 q 739 750 690 840 q 749 719 749 731 q 732 687 749 700 q 697 674 715 674 q 673 681 682 674 q 649 710 664 689 q 598 785 621 757 q 536 835 575 814 q 442 856 497 856 q 235 744 310 856 q 156 433 160 633 q 269 531 193 494 q 428 568 344 568 m 429 90 q 594 142 540 90 q 649 269 649 193 q 626 369 649 321 q 554 449 603 418 q 432 481 506 481 q 266 433 336 481 q 196 289 196 386 q 256 144 196 199 q 429 90 315 90 z "},"7":{"ha":772,"x_min":32,"x_max":708,"o":"m 654 517 q 708 471 708 517 q 697 438 708 450 q 661 425 685 425 q 556 424 592 425 q 410 29 490 229 q 388 8 404 15 q 356 0 372 0 q 317 13 332 0 q 301 42 301 25 q 306 60 301 51 q 440 422 368 200 q 339 421 407 421 q 289 465 289 421 q 303 499 289 486 q 339 511 317 511 q 471 513 429 511 q 519 746 519 664 q 483 844 519 813 q 346 876 446 876 q 219 866 281 876 q 88 839 157 856 q 74 838 83 838 q 43 849 54 838 q 32 881 32 861 q 72 926 32 911 q 189 953 115 940 q 344 967 263 967 q 626 756 626 967 q 583 515 626 671 l 654 517 z "},"8":{"ha":840,"x_min":44,"x_max":790,"o":"m 554 589 q 728 483 665 556 q 790 304 790 410 q 743 143 790 211 q 613 39 696 75 q 424 3 529 3 q 230 40 317 3 q 94 149 143 78 q 44 314 44 219 q 80 435 44 379 q 173 531 115 492 q 297 588 231 571 q 221 649 251 608 q 190 746 190 690 q 223 859 190 811 q 309 932 256 907 q 424 957 363 957 q 585 901 522 957 q 649 751 649 844 q 623 655 649 696 q 554 589 597 614 m 428 869 q 331 835 369 869 q 293 742 293 801 q 332 650 293 685 q 428 615 371 615 q 516 653 482 615 q 550 747 550 690 q 517 837 550 804 q 428 869 483 869 m 425 89 q 569 119 510 89 q 658 197 629 149 q 688 301 688 246 q 653 417 688 365 q 560 497 619 468 q 425 526 500 526 q 284 497 347 526 q 185 418 221 467 q 149 317 149 369 q 222 152 149 215 q 425 89 294 89 z "},"9":{"ha":821,"x_min":54,"x_max":779,"o":"m 407 957 q 608 904 524 957 q 735 756 692 851 q 779 533 779 661 q 737 256 779 376 q 610 69 694 136 q 407 3 526 3 q 219 39 299 3 q 97 138 139 75 q 54 281 54 201 q 68 317 54 303 q 104 332 82 332 q 141 319 126 332 q 156 282 156 306 q 222 145 156 199 q 403 92 288 92 q 608 205 536 92 q 688 518 681 318 q 577 399 654 440 q 411 357 500 357 q 168 435 256 357 q 81 664 81 514 q 122 813 81 746 q 238 919 164 881 q 407 957 313 957 m 411 440 q 525 466 471 440 q 612 540 579 492 q 644 654 644 589 q 613 765 644 715 q 528 842 582 814 q 407 869 474 869 q 285 840 336 869 q 210 762 235 810 q 185 663 185 714 q 411 440 185 440 z "},"\u0000":{"ha":0,"x_min":0,"x_max":0,"o":""},"\r":{"ha":444,"x_min":0,"x_max":0,"o":""}," ":{"ha":444,"x_min":0,"x_max":0,"o":""},"A":{"ha":961,"x_min":103,"x_max":850,"o":"m 846 47 q 850 31 850 35 q 833 -3 850 8 q 790 -14 815 -14 q 758 -6 772 -14 q 740 17 744 3 l 676 232 l 281 235 l 213 22 q 161 -12 201 -12 q 120 0 138 -12 q 103 32 103 13 q 106 49 103 35 q 343 764 246 460 q 365 831 365 831 q 421 951 393 915 q 489 988 449 988 q 553 956 528 988 q 603 844 578 924 q 735 419 656 681 l 758 340 l 797 340 q 834 325 819 340 q 849 286 849 310 q 806 232 849 232 l 790 232 q 846 47 822 122 m 646 342 l 604 485 q 529 742 556 653 q 503 822 513 797 q 485 847 493 847 q 469 826 478 847 q 442 743 461 804 l 374 529 l 317 346 l 646 342 z "},"Á":{"ha":961,"x_min":103,"x_max":850,"o":"m 846 47 q 850 31 850 35 q 833 -3 850 8 q 790 -14 815 -14 q 758 -6 772 -14 q 740 17 744 3 l 676 232 l 281 235 l 213 22 q 161 -12 201 -12 q 120 0 138 -12 q 103 32 103 13 q 106 49 103 35 q 343 764 246 460 q 365 831 365 831 q 421 951 393 915 q 489 988 449 988 q 553 956 528 988 q 603 844 578 924 q 735 419 656 681 l 758 340 l 797 340 q 834 325 819 340 q 849 286 849 310 q 806 232 849 232 l 790 232 q 846 47 822 122 m 646 342 l 604 485 q 529 742 556 653 q 503 822 513 797 q 485 847 493 847 q 469 826 478 847 q 442 743 461 804 l 374 529 l 317 346 l 646 342 m 433 1051 q 408 1063 418 1051 q 397 1089 397 1074 q 417 1129 397 1111 l 529 1247 q 557 1273 546 1265 q 581 1281 568 1281 q 609 1268 597 1281 q 621 1238 621 1256 q 597 1193 621 1217 l 475 1074 q 433 1051 453 1051 z "},"Ă":{"ha":961,"x_min":103,"x_max":850,"o":"m 846 47 q 850 31 850 35 q 833 -3 850 8 q 790 -14 815 -14 q 758 -6 772 -14 q 740 17 744 3 l 676 232 l 281 235 l 213 22 q 161 -12 201 -12 q 120 0 138 -12 q 103 32 103 13 q 106 49 103 35 q 343 764 246 460 q 365 831 365 831 q 421 951 393 915 q 489 988 449 988 q 553 956 528 988 q 603 844 578 924 q 735 419 656 681 l 758 340 l 797 340 q 834 325 819 340 q 849 286 849 310 q 806 232 849 232 l 790 232 q 846 47 822 122 m 646 342 l 604 485 q 529 742 556 653 q 503 822 513 797 q 485 847 493 847 q 469 826 478 847 q 442 743 461 804 l 374 529 l 317 346 l 646 342 m 485 1064 q 372 1089 422 1064 q 294 1156 322 1114 q 265 1246 265 1197 q 277 1273 265 1261 q 304 1285 289 1285 q 332 1278 319 1285 q 346 1258 344 1272 q 388 1170 349 1203 q 485 1138 426 1138 q 574 1172 536 1138 q 614 1254 613 1206 q 627 1280 614 1271 q 657 1289 640 1289 q 685 1278 674 1289 q 697 1250 697 1267 q 668 1158 697 1201 q 590 1090 639 1115 q 485 1064 542 1064 z "},"Ắ":{"ha":961,"x_min":103,"x_max":850,"o":"m 846 47 q 850 31 850 35 q 833 -3 850 8 q 790 -14 815 -14 q 758 -6 772 -14 q 740 17 744 3 l 676 232 l 281 235 l 213 22 q 161 -12 201 -12 q 120 0 138 -12 q 103 32 103 13 q 106 49 103 35 q 343 764 246 460 q 365 831 365 831 q 421 951 393 915 q 489 988 449 988 q 553 956 528 988 q 603 844 578 924 q 735 419 656 681 l 758 340 l 797 340 q 834 325 819 340 q 849 286 849 310 q 806 232 849 232 l 790 232 q 846 47 822 122 m 646 342 l 604 485 q 529 742 556 653 q 503 822 513 797 q 485 847 493 847 q 469 826 478 847 q 442 743 461 804 l 374 529 l 317 346 l 646 342 m 476 1294 q 450 1306 461 1294 q 439 1333 439 1317 q 458 1372 439 1350 l 525 1443 q 576 1475 556 1475 q 604 1463 592 1475 q 617 1433 617 1451 q 610 1410 617 1421 q 593 1389 604 1400 l 517 1317 q 496 1299 504 1304 q 476 1294 488 1294 m 483 1064 q 371 1089 421 1064 q 292 1156 321 1114 q 264 1246 264 1197 q 276 1273 264 1261 q 303 1285 288 1285 q 331 1278 318 1285 q 344 1258 343 1272 q 386 1170 347 1203 q 483 1138 425 1138 q 573 1172 535 1138 q 613 1254 611 1206 q 626 1280 613 1271 q 656 1289 639 1289 q 684 1278 672 1289 q 696 1250 696 1267 q 667 1158 696 1201 q 589 1090 638 1115 q 483 1064 540 1064 z "},"Ặ":{"ha":961,"x_min":103,"x_max":850,"o":"m 846 47 q 850 31 850 35 q 833 -3 850 8 q 790 -14 815 -14 q 758 -6 772 -14 q 740 17 744 3 l 676 232 l 281 235 l 213 22 q 161 -12 201 -12 q 120 0 138 -12 q 103 32 103 13 q 106 49 103 35 q 343 764 246 460 q 365 831 365 831 q 421 951 393 915 q 489 988 449 988 q 553 956 528 988 q 603 844 578 924 q 735 419 656 681 l 758 340 l 797 340 q 834 325 819 340 q 849 286 849 310 q 806 232 849 232 l 790 232 q 846 47 822 122 m 646 342 l 604 485 q 529 742 556 653 q 503 822 513 797 q 485 847 493 847 q 469 826 478 847 q 442 743 461 804 l 374 529 l 317 346 l 646 342 m 476 -249 q 423 -226 444 -249 q 401 -172 401 -204 q 423 -121 401 -142 q 476 -100 444 -100 q 530 -121 508 -100 q 551 -172 551 -142 q 530 -226 551 -204 q 476 -249 508 -249 m 485 1064 q 372 1089 422 1064 q 294 1156 322 1114 q 265 1246 265 1197 q 277 1273 265 1261 q 304 1285 289 1285 q 332 1278 319 1285 q 346 1258 344 1272 q 388 1170 349 1203 q 485 1138 426 1138 q 574 1172 536 1138 q 614 1254 613 1206 q 627 1280 614 1271 q 657 1289 640 1289 q 685 1278 674 1289 q 697 1250 697 1267 q 668 1158 697 1201 q 590 1090 639 1115 q 485 1064 542 1064 z "},"Ằ":{"ha":961,"x_min":103,"x_max":850,"o":"m 846 47 q 850 31 850 35 q 833 -3 850 8 q 790 -14 815 -14 q 758 -6 772 -14 q 740 17 744 3 l 676 232 l 281 235 l 213 22 q 161 -12 201 -12 q 120 0 138 -12 q 103 32 103 13 q 106 49 103 35 q 343 764 246 460 q 365 831 365 831 q 421 951 393 915 q 489 988 449 988 q 553 956 528 988 q 603 844 578 924 q 735 419 656 681 l 758 340 l 797 340 q 834 325 819 340 q 849 286 849 310 q 806 232 849 232 l 790 232 q 846 47 822 122 m 646 342 l 604 485 q 529 742 556 653 q 503 822 513 797 q 485 847 493 847 q 469 826 478 847 q 442 743 461 804 l 374 529 l 317 346 l 646 342 m 492 1303 q 472 1308 481 1303 q 451 1325 464 1313 l 375 1397 q 358 1419 364 1408 q 351 1442 351 1429 q 363 1472 351 1460 q 392 1483 375 1483 q 443 1451 413 1483 l 510 1381 q 529 1342 529 1358 q 518 1314 529 1325 q 492 1303 507 1303 m 485 1064 q 372 1089 422 1064 q 294 1156 322 1114 q 265 1246 265 1197 q 277 1273 265 1261 q 304 1285 289 1285 q 332 1278 319 1285 q 346 1258 344 1272 q 388 1170 349 1203 q 485 1138 426 1138 q 574 1172 536 1138 q 614 1254 613 1206 q 627 1280 614 1271 q 657 1289 640 1289 q 685 1278 674 1289 q 697 1250 697 1267 q 668 1158 697 1201 q 590 1090 639 1115 q 485 1064 542 1064 z "},"Ẳ":{"ha":961,"x_min":103,"x_max":850,"o":"m 846 47 q 850 31 850 35 q 833 -3 850 8 q 790 -14 815 -14 q 758 -6 772 -14 q 740 17 744 3 l 676 232 l 281 235 l 213 22 q 161 -12 201 -12 q 120 0 138 -12 q 103 32 103 13 q 106 49 103 35 q 343 764 246 460 q 365 831 365 831 q 421 951 393 915 q 489 988 449 988 q 553 956 528 988 q 603 844 578 924 q 735 419 656 681 l 758 340 l 797 340 q 834 325 819 340 q 849 286 849 310 q 806 232 849 232 l 790 232 q 846 47 822 122 m 646 342 l 604 485 q 529 742 556 653 q 503 822 513 797 q 485 847 493 847 q 469 826 478 847 q 442 743 461 804 l 374 529 l 317 346 l 646 342 m 486 1279 q 465 1288 475 1279 q 456 1310 456 1297 l 456 1347 q 464 1369 456 1360 q 490 1393 472 1378 q 514 1415 506 1406 q 522 1435 522 1425 q 475 1468 522 1468 q 437 1458 451 1468 q 418 1433 422 1449 q 409 1421 417 1425 q 393 1417 401 1417 q 367 1444 367 1417 q 400 1500 367 1476 q 481 1524 433 1524 q 556 1502 528 1524 q 585 1442 585 1481 q 574 1407 585 1422 q 543 1375 563 1392 q 531 1363 540 1372 q 521 1346 521 1353 l 521 1311 q 511 1288 521 1296 q 486 1279 501 1279 m 486 1064 q 374 1089 424 1064 q 295 1156 324 1114 q 267 1246 267 1197 q 278 1273 267 1261 q 306 1285 290 1285 q 333 1278 321 1285 q 347 1258 346 1272 q 389 1170 350 1203 q 486 1138 428 1138 q 576 1172 538 1138 q 615 1254 614 1206 q 628 1280 615 1271 q 658 1289 642 1289 q 687 1278 675 1289 q 699 1250 699 1267 q 669 1158 699 1201 q 592 1090 640 1115 q 486 1064 543 1064 z "},"Ẵ":{"ha":961,"x_min":103,"x_max":850,"o":"m 846 47 q 850 31 850 35 q 833 -3 850 8 q 790 -14 815 -14 q 758 -6 772 -14 q 740 17 744 3 l 676 232 l 281 235 l 213 22 q 161 -12 201 -12 q 120 0 138 -12 q 103 32 103 13 q 106 49 103 35 q 343 764 246 460 q 365 831 365 831 q 421 951 393 915 q 489 988 449 988 q 553 956 528 988 q 603 844 578 924 q 735 419 656 681 l 758 340 l 797 340 q 834 325 819 340 q 849 286 849 310 q 806 232 849 232 l 790 232 q 846 47 822 122 m 646 342 l 604 485 q 529 742 556 653 q 503 822 513 797 q 485 847 493 847 q 469 826 478 847 q 442 743 461 804 l 374 529 l 317 346 l 646 342 m 310 1343 q 279 1354 290 1343 q 267 1382 267 1367 q 272 1399 267 1388 q 326 1440 292 1426 q 403 1453 360 1453 q 450 1449 431 1453 q 497 1435 469 1444 q 582 1417 542 1417 q 612 1422 597 1417 q 636 1435 626 1426 q 664 1447 650 1447 q 693 1436 681 1447 q 706 1410 706 1425 q 696 1389 706 1404 q 583 1344 665 1344 q 532 1349 556 1344 q 479 1364 508 1354 q 440 1376 460 1371 q 401 1381 419 1381 q 343 1360 368 1381 q 330 1350 340 1357 q 310 1343 319 1343 m 488 1064 q 375 1089 425 1064 q 297 1156 325 1114 q 268 1246 268 1197 q 280 1273 268 1261 q 307 1285 292 1285 q 335 1278 322 1285 q 349 1258 347 1272 q 390 1170 351 1203 q 488 1138 429 1138 q 577 1172 539 1138 q 617 1254 615 1206 q 630 1280 617 1271 q 660 1289 643 1289 q 688 1278 676 1289 q 700 1250 700 1267 q 671 1158 700 1201 q 593 1090 642 1115 q 488 1064 544 1064 z "},"Ǎ":{"ha":961,"x_min":103,"x_max":850,"o":"m 846 47 q 850 31 850 35 q 833 -3 850 8 q 790 -14 815 -14 q 758 -6 772 -14 q 740 17 744 3 l 676 232 l 281 235 l 213 22 q 161 -12 201 -12 q 120 0 138 -12 q 103 32 103 13 q 106 49 103 35 q 343 764 246 460 q 365 831 365 831 q 421 951 393 915 q 489 988 449 988 q 553 956 528 988 q 603 844 578 924 q 735 419 656 681 l 758 340 l 797 340 q 834 325 819 340 q 849 286 849 310 q 806 232 849 232 l 790 232 q 846 47 822 122 m 646 342 l 604 485 q 529 742 556 653 q 503 822 513 797 q 485 847 493 847 q 469 826 478 847 q 442 743 461 804 l 374 529 l 317 346 l 646 342 m 650 1310 q 677 1298 665 1310 q 689 1271 689 1286 q 685 1257 689 1264 q 676 1243 682 1250 q 569 1109 613 1154 q 482 1064 526 1064 q 416 1099 454 1064 q 325 1192 378 1133 l 288 1232 q 274 1263 274 1246 q 287 1290 274 1278 q 315 1303 300 1303 q 358 1275 335 1303 q 486 1150 463 1150 q 526 1184 497 1150 q 614 1293 556 1218 q 650 1310 626 1310 z "},"Â":{"ha":961,"x_min":103,"x_max":850,"o":"m 846 47 q 850 31 850 35 q 833 -3 850 8 q 790 -14 815 -14 q 758 -6 772 -14 q 740 17 744 3 l 676 232 l 281 235 l 213 22 q 161 -12 201 -12 q 120 0 138 -12 q 103 32 103 13 q 106 49 103 35 q 343 764 246 460 q 365 831 365 831 q 421 951 393 915 q 489 988 449 988 q 553 956 528 988 q 603 844 578 924 q 735 419 656 681 l 758 340 l 797 340 q 834 325 819 340 q 849 286 849 310 q 806 232 849 232 l 790 232 q 846 47 822 122 m 646 342 l 604 485 q 529 742 556 653 q 503 822 513 797 q 485 847 493 847 q 469 826 478 847 q 442 743 461 804 l 374 529 l 317 346 l 646 342 m 650 1060 q 614 1078 626 1060 q 533 1181 567 1142 q 486 1219 499 1219 q 446 1190 475 1219 q 358 1094 417 1161 q 315 1067 335 1067 q 287 1079 300 1067 q 274 1107 274 1092 q 288 1139 274 1125 q 322 1176 310 1161 q 415 1270 375 1235 q 482 1306 454 1306 q 553 1273 518 1306 q 639 1174 588 1240 l 676 1126 q 689 1099 689 1114 q 677 1072 689 1083 q 650 1060 665 1060 z "},"Ấ":{"ha":961,"x_min":103,"x_max":850,"o":"m 846 47 q 850 31 850 35 q 833 -3 850 8 q 790 -14 815 -14 q 758 -6 772 -14 q 740 17 744 3 l 676 232 l 281 235 l 213 22 q 161 -12 201 -12 q 120 0 138 -12 q 103 32 103 13 q 106 49 103 35 q 343 764 246 460 q 365 831 365 831 q 421 951 393 915 q 489 988 449 988 q 553 956 528 988 q 603 844 578 924 q 735 419 656 681 l 758 340 l 797 340 q 834 325 819 340 q 849 286 849 310 q 806 232 849 232 l 790 232 q 846 47 822 122 m 646 342 l 604 485 q 529 742 556 653 q 503 822 513 797 q 485 847 493 847 q 469 826 478 847 q 442 743 461 804 l 374 529 l 317 346 l 646 342 m 660 1257 q 633 1268 644 1257 q 622 1294 622 1279 q 640 1335 622 1313 l 708 1406 q 735 1430 724 1422 q 758 1438 746 1438 q 788 1426 776 1438 q 800 1396 800 1414 q 794 1373 800 1383 q 776 1351 788 1363 l 700 1278 q 660 1257 679 1257 m 653 1060 q 617 1078 629 1060 q 535 1181 569 1142 q 489 1219 501 1219 q 449 1190 478 1219 q 361 1094 419 1161 q 318 1067 338 1067 q 290 1079 303 1067 q 276 1107 276 1092 q 290 1139 276 1125 q 325 1176 313 1161 q 417 1270 378 1235 q 485 1306 457 1306 q 556 1273 521 1306 q 642 1174 590 1240 l 679 1126 q 692 1099 692 1114 q 680 1072 692 1083 q 653 1060 668 1060 z "},"Ậ":{"ha":961,"x_min":103,"x_max":850,"o":"m 846 47 q 850 31 850 35 q 833 -3 850 8 q 790 -14 815 -14 q 758 -6 772 -14 q 740 17 744 3 l 676 232 l 281 235 l 213 22 q 161 -12 201 -12 q 120 0 138 -12 q 103 32 103 13 q 106 49 103 35 q 343 764 246 460 q 365 831 365 831 q 421 951 393 915 q 489 988 449 988 q 553 956 528 988 q 603 844 578 924 q 735 419 656 681 l 758 340 l 797 340 q 834 325 819 340 q 849 286 849 310 q 806 232 849 232 l 790 232 q 846 47 822 122 m 646 342 l 604 485 q 529 742 556 653 q 503 822 513 797 q 485 847 493 847 q 469 826 478 847 q 442 743 461 804 l 374 529 l 317 346 l 646 342 m 476 -249 q 423 -226 444 -249 q 401 -172 401 -204 q 423 -121 401 -142 q 476 -100 444 -100 q 530 -121 508 -100 q 551 -172 551 -142 q 530 -226 551 -204 q 476 -249 508 -249 m 650 1060 q 614 1078 626 1060 q 533 1181 567 1142 q 486 1219 499 1219 q 446 1190 475 1219 q 358 1094 417 1161 q 315 1067 335 1067 q 287 1079 300 1067 q 274 1107 274 1092 q 288 1139 274 1125 q 322 1176 310 1161 q 415 1270 375 1235 q 482 1306 454 1306 q 553 1273 518 1306 q 639 1174 588 1240 l 676 1126 q 689 1099 689 1114 q 677 1072 689 1083 q 650 1060 665 1060 z "},"Ầ":{"ha":961,"x_min":103,"x_max":850,"o":"m 846 47 q 850 31 850 35 q 833 -3 850 8 q 790 -14 815 -14 q 758 -6 772 -14 q 740 17 744 3 l 676 232 l 281 235 l 213 22 q 161 -12 201 -12 q 120 0 138 -12 q 103 32 103 13 q 106 49 103 35 q 343 764 246 460 q 365 831 365 831 q 421 951 393 915 q 489 988 449 988 q 553 956 528 988 q 603 844 578 924 q 735 419 656 681 l 758 340 l 797 340 q 834 325 819 340 q 849 286 849 310 q 806 232 849 232 l 790 232 q 846 47 822 122 m 646 342 l 604 485 q 529 742 556 653 q 503 822 513 797 q 485 847 493 847 q 469 826 478 847 q 442 743 461 804 l 374 529 l 317 346 l 646 342 m 715 1257 q 675 1278 696 1257 l 599 1351 q 581 1373 588 1363 q 575 1396 575 1383 q 587 1426 575 1414 q 617 1438 599 1438 q 638 1431 628 1438 q 667 1406 649 1424 l 735 1335 q 753 1294 753 1317 q 742 1268 753 1279 q 715 1257 731 1257 m 653 1060 q 617 1078 629 1060 q 535 1181 569 1142 q 489 1219 501 1219 q 449 1190 478 1219 q 361 1094 419 1161 q 318 1067 338 1067 q 290 1079 303 1067 q 276 1107 276 1092 q 290 1139 276 1125 q 325 1176 313 1161 q 417 1270 378 1235 q 485 1306 457 1306 q 556 1273 521 1306 q 642 1174 590 1240 l 679 1126 q 692 1099 692 1114 q 680 1072 692 1083 q 653 1060 668 1060 z "},"Ẩ":{"ha":961,"x_min":103,"x_max":850,"o":"m 846 47 q 850 31 850 35 q 833 -3 850 8 q 790 -14 815 -14 q 758 -6 772 -14 q 740 17 744 3 l 676 232 l 281 235 l 213 22 q 161 -12 201 -12 q 120 0 138 -12 q 103 32 103 13 q 106 49 103 35 q 343 764 246 460 q 365 831 365 831 q 421 951 393 915 q 489 988 449 988 q 553 956 528 988 q 603 844 578 924 q 735 419 656 681 l 758 340 l 797 340 q 834 325 819 340 q 849 286 849 310 q 806 232 849 232 l 790 232 q 846 47 822 122 m 646 342 l 604 485 q 529 742 556 653 q 503 822 513 797 q 485 847 493 847 q 469 826 478 847 q 442 743 461 804 l 374 529 l 317 346 l 646 342 m 703 1253 q 681 1261 690 1253 q 672 1282 672 1269 l 672 1321 q 681 1342 672 1332 q 706 1365 689 1351 q 731 1389 722 1379 q 739 1408 739 1399 q 690 1442 739 1442 q 653 1432 668 1442 q 633 1407 639 1422 q 625 1394 632 1399 q 610 1389 618 1389 q 583 1418 583 1389 q 616 1474 583 1450 q 697 1497 649 1497 q 773 1475 744 1497 q 801 1414 801 1453 q 790 1379 801 1394 q 760 1347 779 1364 q 747 1335 757 1344 q 738 1318 738 1325 l 738 1283 q 728 1260 738 1268 q 703 1253 718 1253 m 653 1060 q 617 1078 629 1060 q 535 1181 569 1142 q 489 1219 501 1219 q 449 1190 478 1219 q 361 1094 419 1161 q 318 1067 338 1067 q 290 1079 303 1067 q 276 1107 276 1092 q 290 1139 276 1125 q 325 1176 313 1161 q 417 1270 378 1235 q 485 1306 457 1306 q 556 1273 521 1306 q 642 1174 590 1240 l 679 1126 q 692 1099 692 1114 q 680 1072 692 1083 q 653 1060 668 1060 z "},"Ẫ":{"ha":961,"x_min":103,"x_max":850,"o":"m 846 47 q 850 31 850 35 q 833 -3 850 8 q 790 -14 815 -14 q 758 -6 772 -14 q 740 17 744 3 l 676 232 l 281 235 l 213 22 q 161 -12 201 -12 q 120 0 138 -12 q 103 32 103 13 q 106 49 103 35 q 343 764 246 460 q 365 831 365 831 q 421 951 393 915 q 489 988 449 988 q 553 956 528 988 q 603 844 578 924 q 735 419 656 681 l 758 340 l 797 340 q 834 325 819 340 q 849 286 849 310 q 806 232 849 232 l 790 232 q 846 47 822 122 m 646 342 l 604 485 q 529 742 556 653 q 503 822 513 797 q 485 847 493 847 q 469 826 478 847 q 442 743 461 804 l 374 529 l 317 346 l 646 342 m 301 1350 q 275 1360 285 1350 q 264 1385 264 1371 q 276 1413 264 1400 q 335 1465 310 1450 q 396 1481 360 1481 q 451 1473 424 1481 q 513 1450 478 1465 q 555 1431 532 1440 q 592 1422 578 1422 q 614 1428 604 1422 q 636 1444 624 1433 q 652 1457 642 1449 q 672 1465 663 1465 q 700 1453 689 1465 q 711 1426 711 1440 q 699 1400 711 1411 q 644 1362 669 1374 q 592 1350 619 1350 q 550 1357 569 1350 q 511 1373 531 1364 q 481 1386 492 1382 q 401 1410 431 1410 q 373 1400 386 1410 q 340 1371 360 1390 q 301 1350 319 1350 m 653 1060 q 617 1078 629 1060 q 535 1181 569 1142 q 489 1219 501 1219 q 449 1190 478 1219 q 361 1094 419 1161 q 318 1067 338 1067 q 290 1079 303 1067 q 276 1107 276 1092 q 290 1139 276 1125 q 325 1176 313 1161 q 417 1270 378 1235 q 485 1306 457 1306 q 556 1273 521 1306 q 642 1174 590 1240 l 679 1126 q 692 1099 692 1114 q 680 1072 692 1083 q 653 1060 668 1060 z "},"Ä":{"ha":961,"x_min":103,"x_max":850,"o":"m 846 47 q 850 31 850 35 q 833 -3 850 8 q 790 -14 815 -14 q 758 -6 772 -14 q 740 17 744 3 l 676 232 l 281 235 l 213 22 q 161 -12 201 -12 q 120 0 138 -12 q 103 32 103 13 q 106 49 103 35 q 343 764 246 460 q 365 831 365 831 q 421 951 393 915 q 489 988 449 988 q 553 956 528 988 q 603 844 578 924 q 735 419 656 681 l 758 340 l 797 340 q 834 325 819 340 q 849 286 849 310 q 806 232 849 232 l 790 232 q 846 47 822 122 m 646 342 l 604 485 q 529 742 556 653 q 503 822 513 797 q 485 847 493 847 q 469 826 478 847 q 442 743 461 804 l 374 529 l 317 346 l 646 342 m 318 1078 q 265 1100 286 1078 q 243 1154 243 1122 q 265 1206 243 1185 q 318 1226 286 1226 q 372 1206 350 1226 q 394 1154 394 1185 q 372 1101 394 1124 q 318 1078 349 1078 m 651 1078 q 598 1100 619 1078 q 576 1154 576 1122 q 598 1206 576 1185 q 651 1226 619 1226 q 705 1206 683 1226 q 726 1154 726 1185 q 704 1100 726 1122 q 651 1078 682 1078 z "},"Ạ":{"ha":961,"x_min":103,"x_max":850,"o":"m 846 47 q 850 31 850 35 q 833 -3 850 8 q 790 -14 815 -14 q 758 -6 772 -14 q 740 17 744 3 l 676 232 l 281 235 l 213 22 q 161 -12 201 -12 q 120 0 138 -12 q 103 32 103 13 q 106 49 103 35 q 343 764 246 460 q 365 831 365 831 q 421 951 393 915 q 489 988 449 988 q 553 956 528 988 q 603 844 578 924 q 735 419 656 681 l 758 340 l 797 340 q 834 325 819 340 q 849 286 849 310 q 806 232 849 232 l 790 232 q 846 47 822 122 m 646 342 l 604 485 q 529 742 556 653 q 503 822 513 797 q 485 847 493 847 q 469 826 478 847 q 442 743 461 804 l 374 529 l 317 346 l 646 342 m 476 -249 q 423 -226 444 -249 q 401 -172 401 -204 q 423 -121 401 -142 q 476 -100 444 -100 q 530 -121 508 -100 q 551 -172 551 -142 q 530 -226 551 -204 q 476 -249 508 -249 z "},"À":{"ha":961,"x_min":103,"x_max":850,"o":"m 846 47 q 850 31 850 35 q 833 -3 850 8 q 790 -14 815 -14 q 758 -6 772 -14 q 740 17 744 3 l 676 232 l 281 235 l 213 22 q 161 -12 201 -12 q 120 0 138 -12 q 103 32 103 13 q 106 49 103 35 q 343 764 246 460 q 365 831 365 831 q 421 951 393 915 q 489 988 449 988 q 553 956 528 988 q 603 844 578 924 q 735 419 656 681 l 758 340 l 797 340 q 834 325 819 340 q 849 286 849 310 q 806 232 849 232 l 790 232 q 846 47 822 122 m 646 342 l 604 485 q 529 742 556 653 q 503 822 513 797 q 485 847 493 847 q 469 826 478 847 q 442 743 461 804 l 374 529 l 317 346 l 646 342 m 556 1051 q 535 1056 544 1051 q 514 1074 526 1061 l 404 1193 q 381 1238 381 1219 q 392 1268 381 1256 q 421 1281 404 1281 q 472 1247 444 1281 l 574 1129 q 593 1089 593 1107 q 582 1063 593 1074 q 556 1051 571 1051 z "},"Ả":{"ha":961,"x_min":103,"x_max":850,"o":"m 846 47 q 850 31 850 35 q 833 -3 850 8 q 790 -14 815 -14 q 758 -6 772 -14 q 740 17 744 3 l 676 232 l 281 235 l 213 22 q 161 -12 201 -12 q 120 0 138 -12 q 103 32 103 13 q 106 49 103 35 q 343 764 246 460 q 365 831 365 831 q 421 951 393 915 q 489 988 449 988 q 553 956 528 988 q 603 844 578 924 q 735 419 656 681 l 758 340 l 797 340 q 834 325 819 340 q 849 286 849 310 q 806 232 849 232 l 790 232 q 846 47 822 122 m 646 342 l 604 485 q 529 742 556 653 q 503 822 513 797 q 485 847 493 847 q 469 826 478 847 q 442 743 461 804 l 374 529 l 317 346 l 646 342 m 490 1054 q 460 1067 472 1054 q 447 1099 447 1079 l 447 1151 q 459 1181 447 1168 q 497 1217 471 1194 q 534 1250 521 1235 q 547 1281 547 1265 q 526 1321 547 1306 q 469 1336 506 1336 q 378 1278 411 1336 q 344 1254 365 1254 q 321 1265 332 1254 q 310 1290 310 1276 q 318 1318 310 1306 q 478 1408 371 1408 q 591 1377 550 1408 q 632 1288 632 1346 q 617 1238 632 1258 q 572 1192 601 1218 q 549 1170 560 1181 q 538 1150 539 1160 q 536 1101 536 1131 q 523 1067 536 1079 q 490 1054 510 1054 z "},"Ā":{"ha":961,"x_min":103,"x_max":850,"o":"m 846 47 q 850 31 850 35 q 833 -3 850 8 q 790 -14 815 -14 q 758 -6 772 -14 q 740 17 744 3 l 676 232 l 281 235 l 213 22 q 161 -12 201 -12 q 120 0 138 -12 q 103 32 103 13 q 106 49 103 35 q 343 764 246 460 q 365 831 365 831 q 421 951 393 915 q 489 988 449 988 q 553 956 528 988 q 603 844 578 924 q 735 419 656 681 l 758 340 l 797 340 q 834 325 819 340 q 849 286 849 310 q 806 232 849 232 l 790 232 q 846 47 822 122 m 646 342 l 604 485 q 529 742 556 653 q 503 822 513 797 q 485 847 493 847 q 469 826 478 847 q 442 743 461 804 l 374 529 l 317 346 l 646 342 m 342 1124 q 271 1135 303 1124 q 240 1179 240 1147 q 252 1208 240 1197 q 281 1219 264 1219 q 319 1214 289 1219 q 388 1208 349 1208 q 482 1214 418 1208 q 588 1219 549 1219 q 639 1217 606 1219 q 674 1214 661 1214 q 704 1200 692 1213 q 717 1171 717 1188 q 702 1140 717 1151 q 669 1131 688 1128 q 596 1136 625 1136 q 493 1131 554 1136 q 403 1125 438 1125 l 342 1124 z "},"Ą":{"ha":961,"x_min":103,"x_max":883,"o":"m 860 -150 q 876 -158 869 -150 q 883 -181 883 -167 q 807 -231 883 -231 q 711 -204 749 -231 q 674 -121 674 -178 q 740 15 674 -51 l 740 17 l 676 232 l 281 235 l 213 22 q 161 -12 201 -12 q 120 0 138 -12 q 103 32 103 13 q 106 49 103 35 q 343 764 246 460 q 365 831 365 831 q 421 951 393 915 q 489 988 449 988 q 553 956 528 988 q 603 844 578 924 q 735 419 656 681 l 758 340 l 797 340 q 834 325 819 340 q 849 286 849 310 q 806 232 849 232 l 790 232 q 846 47 822 122 q 850 31 850 35 q 829 -6 850 8 l 828 -6 q 772 -61 790 -36 q 754 -114 754 -86 q 771 -149 754 -137 q 813 -160 788 -160 q 839 -155 822 -160 q 860 -150 856 -150 m 646 342 l 604 485 q 529 742 556 653 q 503 822 513 797 q 485 847 493 847 q 469 826 478 847 q 442 743 461 804 l 374 529 l 317 346 l 646 342 z "},"Å":{"ha":961,"x_min":103,"x_max":850,"o":"m 846 47 q 850 31 850 35 q 833 -3 850 8 q 790 -14 815 -14 q 758 -6 772 -14 q 740 17 744 3 l 676 232 l 281 235 l 213 22 q 161 -12 201 -12 q 120 0 138 -12 q 103 32 103 13 q 106 49 103 35 q 343 764 246 460 q 365 831 365 831 q 421 951 393 915 q 489 988 449 988 q 553 956 528 988 q 603 844 578 924 q 735 419 656 681 l 758 340 l 797 340 q 834 325 819 340 q 849 286 849 310 q 806 232 849 232 l 790 232 q 846 47 822 122 m 646 342 l 604 485 q 529 742 556 653 q 503 822 513 797 q 485 847 493 847 q 469 826 478 847 q 442 743 461 804 l 374 529 l 317 346 l 646 342 m 486 1024 q 378 1067 422 1024 q 335 1175 335 1111 q 379 1279 335 1236 q 490 1322 424 1322 q 565 1301 531 1322 q 617 1247 599 1281 q 636 1175 636 1213 q 594 1067 636 1110 q 486 1024 551 1024 m 486 1094 q 544 1117 521 1094 q 567 1175 567 1140 q 544 1229 567 1206 q 486 1253 521 1253 q 428 1230 451 1253 q 406 1175 406 1207 q 428 1117 406 1140 q 486 1094 451 1094 z "},"Ǻ":{"ha":961,"x_min":103,"x_max":850,"o":"m 475 1364 q 450 1374 460 1364 q 440 1400 440 1383 q 458 1442 440 1419 l 515 1511 q 568 1544 543 1544 q 596 1533 585 1544 q 607 1504 607 1522 q 583 1457 607 1481 l 518 1386 q 475 1364 496 1364 m 486 1024 q 378 1067 422 1024 q 335 1175 335 1111 q 379 1279 335 1236 q 490 1322 424 1322 q 565 1301 531 1322 q 617 1247 599 1281 q 636 1175 636 1213 q 594 1067 636 1110 q 486 1024 551 1024 m 486 1253 q 428 1230 451 1253 q 406 1175 406 1207 q 428 1117 406 1140 q 486 1094 451 1094 q 544 1117 521 1094 q 567 1175 567 1140 q 544 1229 567 1206 q 486 1253 521 1253 m 846 47 q 850 31 850 35 q 833 -3 850 8 q 790 -14 815 -14 q 758 -6 772 -14 q 740 17 744 3 l 676 232 l 281 235 l 213 22 q 161 -12 201 -12 q 120 0 138 -12 q 103 32 103 13 q 106 49 103 35 q 343 764 246 460 q 365 831 365 831 q 421 951 393 915 q 489 988 449 988 q 553 956 528 988 q 603 844 578 924 q 735 419 656 681 l 758 340 l 797 340 q 834 325 819 340 q 849 286 849 310 q 806 232 849 232 l 790 232 q 846 47 822 122 m 646 342 l 604 485 q 529 742 556 653 q 503 822 513 797 q 485 847 493 847 q 469 826 478 847 q 442 743 461 804 l 374 529 l 317 346 l 646 342 z "},"Ã":{"ha":961,"x_min":103,"x_max":850,"o":"m 846 47 q 850 31 850 35 q 833 -3 850 8 q 790 -14 815 -14 q 758 -6 772 -14 q 740 17 744 3 l 676 232 l 281 235 l 213 22 q 161 -12 201 -12 q 120 0 138 -12 q 103 32 103 13 q 106 49 103 35 q 343 764 246 460 q 365 831 365 831 q 421 951 393 915 q 489 988 449 988 q 553 956 528 988 q 603 844 578 924 q 735 419 656 681 l 758 340 l 797 340 q 834 325 819 340 q 849 286 849 310 q 806 232 849 232 l 790 232 q 846 47 822 122 m 646 342 l 604 485 q 529 742 556 653 q 503 822 513 797 q 485 847 493 847 q 469 826 478 847 q 442 743 461 804 l 374 529 l 317 346 l 646 342 m 272 1075 q 260 1104 260 1090 q 271 1133 260 1119 q 331 1190 304 1174 q 393 1207 357 1207 q 515 1176 457 1207 q 541 1163 524 1172 q 570 1150 558 1154 q 592 1146 582 1146 q 612 1152 603 1146 q 632 1169 621 1158 q 667 1190 651 1190 q 695 1176 682 1190 q 708 1147 708 1163 q 697 1118 708 1132 q 642 1077 668 1090 q 589 1064 617 1064 q 551 1070 569 1064 q 508 1089 532 1076 q 478 1103 503 1092 q 444 1117 471 1106 q 399 1129 417 1129 q 375 1121 386 1129 q 353 1101 364 1113 q 340 1086 343 1090 q 299 1064 318 1064 q 272 1075 283 1064 z "},"Æ":{"ha":1269,"x_min":96,"x_max":1217,"o":"m 1158 97 q 1192 89 1176 100 q 1208 53 1208 78 q 1167 1 1208 14 q 1032 -8 1135 -8 q 885 -6 985 -8 q 660 -1 697 -1 q 599 9 615 -1 q 583 43 583 19 q 597 82 583 71 q 640 93 610 93 q 654 263 650 181 l 326 265 l 247 101 l 213 29 q 198 8 206 14 q 175 1 190 1 q 122 19 147 1 q 104 53 96 36 q 416 678 267 406 q 651 958 565 951 q 661 960 654 960 l 789 963 q 932 967 879 967 q 1186 954 999 967 q 1217 914 1217 951 q 1204 874 1217 885 q 1176 865 1192 864 l 1132 867 q 944 872 1035 872 q 774 868 829 872 q 779 632 779 774 l 779 547 l 928 544 q 1082 540 1058 542 q 1099 528 1093 539 q 1106 501 1106 518 q 1056 463 1106 463 l 950 465 l 860 468 l 776 468 q 756 143 771 346 q 753 99 756 129 q 997 85 910 85 q 1073 87 1046 85 q 1158 97 1100 89 m 660 340 q 668 711 668 535 q 667 839 668 804 q 367 344 581 774 l 660 340 z "},"Ǽ":{"ha":1269,"x_min":96,"x_max":1217,"o":"m 1158 97 q 1192 89 1176 100 q 1208 53 1208 78 q 1167 1 1208 14 q 1032 -8 1135 -8 q 885 -6 985 -8 q 660 -1 697 -1 q 599 9 615 -1 q 583 43 583 19 q 597 82 583 71 q 640 93 610 93 q 654 263 650 181 l 326 265 l 247 101 l 213 29 q 198 8 206 14 q 175 1 190 1 q 122 19 147 1 q 104 53 96 36 q 416 678 267 406 q 651 958 565 951 q 661 960 654 960 l 789 963 q 932 967 879 967 q 1186 954 999 967 q 1217 914 1217 951 q 1204 874 1217 885 q 1176 865 1192 864 l 1132 867 q 944 872 1035 872 q 774 868 829 872 q 779 632 779 774 l 779 547 l 928 544 q 1082 540 1058 542 q 1099 528 1093 539 q 1106 501 1106 518 q 1056 463 1106 463 l 950 465 l 860 468 l 776 468 q 756 143 771 346 q 753 99 756 129 q 997 85 910 85 q 1073 87 1046 85 q 1158 97 1100 89 m 660 340 q 668 711 668 535 q 667 839 668 804 q 367 344 581 774 l 660 340 m 814 1049 q 788 1060 799 1049 q 778 1086 778 1071 q 797 1126 778 1108 l 910 1244 q 938 1270 926 1263 q 961 1278 949 1278 q 990 1265 978 1278 q 1001 1235 1001 1253 q 978 1190 1001 1214 l 856 1071 q 814 1049 833 1049 z "},"B":{"ha":863,"x_min":60,"x_max":785,"o":"m 60 51 q 72 88 60 74 q 108 101 83 103 l 128 101 q 147 531 147 294 q 144 832 147 721 l 129 828 q 101 835 113 825 q 89 865 89 844 q 103 902 89 888 q 154 932 118 917 q 413 982 272 982 q 601 950 517 982 q 735 858 686 918 q 785 714 785 797 q 715 567 785 628 q 533 490 644 506 q 707 406 643 472 q 771 258 771 340 q 719 110 771 171 q 582 22 668 50 q 394 -3 496 -7 l 297 1 l 225 3 q 176 -32 215 -32 q 121 7 131 -32 l 103 8 q 60 51 60 11 m 232 96 q 389 93 338 93 q 596 132 526 93 q 665 258 665 171 q 585 397 665 356 q 358 444 504 438 q 310 455 328 446 q 293 493 293 464 q 310 532 293 522 q 356 543 328 542 q 513 560 447 549 q 628 607 578 571 q 678 714 678 643 q 606 844 678 800 q 413 889 535 889 q 331 883 376 889 q 251 868 285 878 q 254 532 254 739 q 232 96 254 313 z "},"C":{"ha":992,"x_min":69,"x_max":944,"o":"m 889 393 q 944 340 944 393 q 894 167 944 246 q 749 42 843 89 q 531 -4 656 -4 q 303 47 408 -4 q 133 204 197 99 q 69 465 69 310 q 131 737 69 617 q 298 924 193 857 q 525 990 403 990 q 678 958 610 990 q 792 868 746 926 l 790 936 q 803 971 790 958 q 843 983 817 983 q 893 932 893 983 l 893 776 q 843 714 893 714 q 813 721 825 714 q 789 743 800 728 q 525 892 679 892 q 350 835 431 892 q 223 681 269 779 q 176 461 176 583 q 228 258 176 340 q 363 135 281 175 q 539 94 446 94 q 682 121 614 94 q 793 202 750 147 q 836 340 836 257 q 850 379 836 365 q 889 393 864 393 z "},"Ć":{"ha":992,"x_min":69,"x_max":944,"o":"m 889 393 q 944 340 944 393 q 894 167 944 246 q 749 42 843 89 q 531 -4 656 -4 q 303 47 408 -4 q 133 204 197 99 q 69 465 69 310 q 131 737 69 617 q 298 924 193 857 q 525 990 403 990 q 678 958 610 990 q 792 868 746 926 l 790 936 q 803 971 790 958 q 843 983 817 983 q 893 932 893 983 l 893 776 q 843 714 893 714 q 813 721 825 714 q 789 743 800 728 q 525 892 679 892 q 350 835 431 892 q 223 681 269 779 q 176 461 176 583 q 228 258 176 340 q 363 135 281 175 q 539 94 446 94 q 682 121 614 94 q 793 202 750 147 q 836 340 836 257 q 850 379 836 365 q 889 393 864 393 m 489 1051 q 463 1063 474 1051 q 453 1089 453 1074 q 472 1129 453 1111 l 585 1247 q 613 1273 601 1265 q 636 1281 624 1281 q 665 1268 653 1281 q 676 1238 676 1256 q 653 1193 676 1217 l 531 1074 q 489 1051 508 1051 z "},"Č":{"ha":992,"x_min":69,"x_max":944,"o":"m 889 393 q 944 340 944 393 q 894 167 944 246 q 749 42 843 89 q 531 -4 656 -4 q 303 47 408 -4 q 133 204 197 99 q 69 465 69 310 q 131 737 69 617 q 298 924 193 857 q 525 990 403 990 q 678 958 610 990 q 792 868 746 926 l 790 936 q 803 971 790 958 q 843 983 817 983 q 893 932 893 983 l 893 776 q 843 714 893 714 q 813 721 825 714 q 789 743 800 728 q 525 892 679 892 q 350 835 431 892 q 223 681 269 779 q 176 461 176 583 q 228 258 176 340 q 363 135 281 175 q 539 94 446 94 q 682 121 614 94 q 793 202 750 147 q 836 340 836 257 q 850 379 836 365 q 889 393 864 393 m 706 1310 q 733 1298 721 1310 q 744 1271 744 1286 q 741 1257 744 1264 q 732 1243 738 1250 q 625 1109 668 1154 q 538 1064 582 1064 q 472 1099 510 1064 q 381 1192 433 1133 l 343 1232 q 329 1263 329 1246 q 342 1290 329 1278 q 371 1303 356 1303 q 414 1275 390 1303 q 542 1150 518 1150 q 582 1184 553 1150 q 669 1293 611 1218 q 706 1310 682 1310 z "},"Ç":{"ha":992,"x_min":69,"x_max":944,"o":"m 944 340 q 896 170 944 247 q 756 46 847 93 q 543 -4 664 -1 l 500 -75 q 587 -108 554 -86 q 619 -174 619 -129 q 568 -276 619 -243 q 436 -310 517 -310 q 333 -290 385 -310 q 312 -274 319 -285 q 304 -250 304 -262 q 316 -221 304 -232 q 344 -210 328 -210 q 358 -211 354 -210 q 442 -226 414 -226 q 510 -219 490 -226 q 531 -183 531 -212 q 513 -156 531 -164 q 466 -144 494 -149 q 425 -137 438 -140 q 390 -122 401 -135 q 385 -90 379 -108 l 444 3 q 254 76 339 19 q 119 231 169 132 q 69 465 69 329 q 131 737 69 617 q 298 924 193 857 q 525 990 403 990 q 678 958 610 990 q 792 868 746 926 l 790 936 q 803 971 790 958 q 843 983 817 983 q 893 932 893 983 l 893 776 q 843 714 893 714 q 813 721 825 714 q 789 743 800 728 q 525 892 679 892 q 350 835 431 892 q 223 681 269 779 q 176 461 176 583 q 228 258 176 340 q 363 135 281 175 q 539 94 446 94 q 682 121 614 94 q 793 202 750 147 q 836 340 836 257 q 850 379 836 365 q 889 393 864 393 q 944 340 944 393 z "},"Ĉ":{"ha":992,"x_min":69,"x_max":944,"o":"m 889 393 q 944 340 944 393 q 894 167 944 246 q 749 42 843 89 q 531 -4 656 -4 q 303 47 408 -4 q 133 204 197 99 q 69 465 69 310 q 131 737 69 617 q 298 924 193 857 q 525 990 403 990 q 678 958 610 990 q 792 868 746 926 l 790 936 q 803 971 790 958 q 843 983 817 983 q 893 932 893 983 l 893 776 q 843 714 893 714 q 813 721 825 714 q 789 743 800 728 q 525 892 679 892 q 350 835 431 892 q 223 681 269 779 q 176 461 176 583 q 228 258 176 340 q 363 135 281 175 q 539 94 446 94 q 682 121 614 94 q 793 202 750 147 q 836 340 836 257 q 850 379 836 365 q 889 393 864 393 m 706 1060 q 669 1078 682 1060 q 588 1181 622 1142 q 542 1219 554 1219 q 501 1190 531 1219 q 414 1094 472 1161 q 371 1067 390 1067 q 342 1079 356 1067 q 329 1107 329 1092 q 343 1139 329 1125 q 378 1176 365 1161 q 470 1270 431 1235 q 538 1306 510 1306 q 608 1273 574 1306 q 694 1174 643 1240 l 732 1126 q 744 1099 744 1114 q 733 1072 744 1083 q 706 1060 721 1060 z "},"Ċ":{"ha":992,"x_min":69,"x_max":944,"o":"m 889 393 q 944 340 944 393 q 894 167 944 246 q 749 42 843 89 q 531 -4 656 -4 q 303 47 408 -4 q 133 204 197 99 q 69 465 69 310 q 131 737 69 617 q 298 924 193 857 q 525 990 403 990 q 678 958 610 990 q 792 868 746 926 l 790 936 q 803 971 790 958 q 843 983 817 983 q 893 932 893 983 l 893 776 q 843 714 893 714 q 813 721 825 714 q 789 743 800 728 q 525 892 679 892 q 350 835 431 892 q 223 681 269 779 q 176 461 176 583 q 228 258 176 340 q 363 135 281 175 q 539 94 446 94 q 682 121 614 94 q 793 202 750 147 q 836 340 836 257 q 850 379 836 365 q 889 393 864 393 m 540 1078 q 487 1100 508 1078 q 465 1154 465 1122 q 487 1206 465 1185 q 540 1226 508 1226 q 594 1206 572 1226 q 615 1154 615 1185 q 594 1100 615 1122 q 540 1078 572 1078 z "},"D":{"ha":954,"x_min":107,"x_max":882,"o":"m 279 969 q 722 837 561 951 q 882 501 882 722 q 808 242 882 353 q 594 70 733 131 q 265 10 454 10 l 167 10 q 122 21 136 10 q 108 58 108 32 q 153 106 108 106 l 200 106 l 179 875 l 169 875 q 123 885 139 875 q 107 921 107 894 q 123 961 107 950 q 169 972 139 972 l 185 972 q 232 997 197 997 q 279 969 269 997 m 306 106 q 551 159 444 111 q 717 294 657 207 q 776 501 776 382 q 286 871 776 838 l 306 106 z "},"Ð":{"ha":1001,"x_min":56,"x_max":929,"o":"m 326 969 q 766 835 603 954 q 929 493 929 717 q 855 237 929 346 q 642 69 781 128 q 313 10 503 10 l 214 10 q 169 21 183 10 q 156 58 156 32 q 208 104 154 104 l 242 104 l 232 454 l 128 456 q 74 469 93 456 q 56 507 56 483 q 74 547 56 532 q 129 560 93 561 l 229 557 l 221 876 q 154 929 154 881 q 172 961 154 951 q 228 972 189 971 q 275 992 240 992 q 326 969 314 992 m 358 106 q 692 218 569 115 q 815 499 815 321 q 682 769 815 683 q 338 872 549 856 l 346 554 l 501 551 q 549 535 532 550 q 567 497 567 521 q 549 461 567 474 q 501 449 532 449 l 349 451 l 358 106 z "},"Ď":{"ha":954,"x_min":107,"x_max":882,"o":"m 279 969 q 722 837 561 951 q 882 501 882 722 q 808 242 882 353 q 594 70 733 131 q 265 10 454 10 l 167 10 q 122 21 136 10 q 108 58 108 32 q 153 106 108 106 l 200 106 l 179 875 l 169 875 q 123 885 139 875 q 107 921 107 894 q 123 961 107 950 q 169 972 139 972 l 185 972 q 232 997 197 997 q 279 969 269 997 m 306 106 q 551 159 444 111 q 717 294 657 207 q 776 501 776 382 q 286 871 776 838 l 306 106 m 636 1310 q 663 1298 651 1310 q 675 1271 675 1286 q 672 1257 675 1264 q 663 1243 668 1250 q 556 1109 599 1154 q 468 1064 513 1064 q 402 1099 440 1064 q 311 1192 364 1133 l 274 1232 q 260 1263 260 1246 q 273 1290 260 1278 q 301 1303 286 1303 q 344 1275 321 1303 q 472 1150 449 1150 q 513 1184 483 1150 q 600 1293 542 1218 q 636 1310 613 1310 z "},"Đ":{"ha":1001,"x_min":56,"x_max":929,"o":"m 326 969 q 766 835 603 954 q 929 493 929 717 q 855 237 929 346 q 642 69 781 128 q 313 10 503 10 l 214 10 q 169 21 183 10 q 156 58 156 32 q 208 104 154 104 l 242 104 l 232 454 l 128 456 q 74 469 93 456 q 56 507 56 483 q 74 547 56 532 q 129 560 93 561 l 229 557 l 221 876 q 154 929 154 881 q 172 961 154 951 q 228 972 189 971 q 275 992 240 992 q 326 969 314 992 m 358 106 q 692 218 569 115 q 815 499 815 321 q 682 769 815 683 q 338 872 549 856 l 346 554 l 501 551 q 549 535 532 550 q 567 497 567 521 q 549 461 567 474 q 501 449 532 449 l 349 451 l 358 106 z "},"Ḍ":{"ha":954,"x_min":107,"x_max":882,"o":"m 279 969 q 722 837 561 951 q 882 501 882 722 q 808 242 882 353 q 594 70 733 131 q 265 10 454 10 l 167 10 q 122 21 136 10 q 108 58 108 32 q 153 106 108 106 l 200 106 l 179 875 l 169 875 q 123 885 139 875 q 107 921 107 894 q 123 961 107 950 q 169 972 139 972 l 185 972 q 232 997 197 997 q 279 969 269 997 m 306 106 q 551 159 444 111 q 717 294 657 207 q 776 501 776 382 q 286 871 776 838 l 306 106 m 471 -249 q 417 -226 439 -249 q 396 -172 396 -204 q 417 -121 396 -142 q 471 -100 439 -100 q 524 -121 503 -100 q 546 -172 546 -142 q 524 -226 546 -204 q 471 -249 503 -249 z "},"Ḏ":{"ha":954,"x_min":107,"x_max":882,"o":"m 279 969 q 722 837 561 951 q 882 501 882 722 q 808 242 882 353 q 594 70 733 131 q 265 10 454 10 l 167 10 q 122 21 136 10 q 108 58 108 32 q 153 106 108 106 l 200 106 l 179 875 l 169 875 q 123 885 139 875 q 107 921 107 894 q 123 961 107 950 q 169 972 139 972 l 185 972 q 232 997 197 997 q 279 969 269 997 m 306 106 q 551 159 444 111 q 717 294 657 207 q 776 501 776 382 q 286 871 776 838 l 306 106 m 283 -226 q 258 -215 269 -226 q 247 -183 247 -203 q 256 -155 247 -167 q 281 -142 265 -143 q 533 -129 381 -129 q 636 -132 581 -129 q 676 -133 653 -133 q 709 -145 696 -133 q 722 -176 722 -157 q 710 -206 722 -196 q 678 -217 697 -217 l 640 -215 q 532 -211 565 -211 q 335 -222 461 -211 q 283 -226 299 -226 z "},"E":{"ha":796,"x_min":71,"x_max":743,"o":"m 676 125 q 720 115 706 128 q 735 76 735 103 q 724 42 735 53 q 693 28 713 32 q 483 17 639 17 l 439 17 q 273 19 346 17 q 108 33 200 22 q 71 79 71 38 q 81 114 71 100 q 106 128 90 128 q 129 126 119 128 q 153 465 151 265 l 136 465 q 100 478 113 465 q 88 514 88 490 q 131 563 88 563 l 153 563 l 153 717 q 151 867 153 817 q 113 911 113 874 q 127 949 113 940 q 168 961 142 958 q 407 969 246 969 q 696 957 608 969 q 731 944 719 953 q 743 911 743 935 q 731 874 743 888 q 699 863 718 860 q 443 874 560 874 q 256 868 353 874 q 261 561 261 674 l 354 560 q 496 557 465 557 q 590 554 571 554 q 629 508 629 554 q 619 471 629 485 q 590 457 610 457 l 517 458 q 351 463 454 463 q 260 464 289 463 q 236 119 258 306 q 451 113 322 113 q 570 115 526 113 q 676 125 614 118 z "},"É":{"ha":796,"x_min":71,"x_max":743,"o":"m 676 125 q 720 115 706 128 q 735 76 735 103 q 724 42 735 53 q 693 28 713 32 q 483 17 639 17 l 439 17 q 273 19 346 17 q 108 33 200 22 q 71 79 71 38 q 81 114 71 100 q 106 128 90 128 q 129 126 119 128 q 153 465 151 265 l 136 465 q 100 478 113 465 q 88 514 88 490 q 131 563 88 563 l 153 563 l 153 717 q 151 867 153 817 q 113 911 113 874 q 127 949 113 940 q 168 961 142 958 q 407 969 246 969 q 696 957 608 969 q 731 944 719 953 q 743 911 743 935 q 731 874 743 888 q 699 863 718 860 q 443 874 560 874 q 256 868 353 874 q 261 561 261 674 l 354 560 q 496 557 465 557 q 590 554 571 554 q 629 508 629 554 q 619 471 629 485 q 590 457 610 457 l 517 458 q 351 463 454 463 q 260 464 289 463 q 236 119 258 306 q 451 113 322 113 q 570 115 526 113 q 676 125 614 118 m 367 1051 q 341 1063 351 1051 q 331 1089 331 1074 q 350 1129 331 1111 l 463 1247 q 490 1273 479 1265 q 514 1281 501 1281 q 542 1268 531 1281 q 554 1238 554 1256 q 531 1193 554 1217 l 408 1074 q 367 1051 386 1051 z "},"Ĕ":{"ha":796,"x_min":71,"x_max":743,"o":"m 676 125 q 720 115 706 128 q 735 76 735 103 q 724 42 735 53 q 693 28 713 32 q 483 17 639 17 l 439 17 q 273 19 346 17 q 108 33 200 22 q 71 79 71 38 q 81 114 71 100 q 106 128 90 128 q 129 126 119 128 q 153 465 151 265 l 136 465 q 100 478 113 465 q 88 514 88 490 q 131 563 88 563 l 153 563 l 153 717 q 151 867 153 817 q 113 911 113 874 q 127 949 113 940 q 168 961 142 958 q 407 969 246 969 q 696 957 608 969 q 731 944 719 953 q 743 911 743 935 q 731 874 743 888 q 699 863 718 860 q 443 874 560 874 q 256 868 353 874 q 261 561 261 674 l 354 560 q 496 557 465 557 q 590 554 571 554 q 629 508 629 554 q 619 471 629 485 q 590 457 610 457 l 517 458 q 351 463 454 463 q 260 464 289 463 q 236 119 258 306 q 451 113 322 113 q 570 115 526 113 q 676 125 614 118 m 418 1064 q 306 1089 356 1064 q 227 1156 256 1114 q 199 1246 199 1197 q 210 1273 199 1261 q 238 1285 222 1285 q 265 1278 253 1285 q 279 1258 278 1272 q 321 1170 282 1203 q 418 1138 360 1138 q 508 1172 469 1138 q 547 1254 546 1206 q 560 1280 547 1271 q 590 1289 574 1289 q 619 1278 607 1289 q 631 1250 631 1267 q 601 1158 631 1201 q 524 1090 572 1115 q 418 1064 475 1064 z "},"Ě":{"ha":796,"x_min":71,"x_max":743,"o":"m 676 125 q 720 115 706 128 q 735 76 735 103 q 724 42 735 53 q 693 28 713 32 q 483 17 639 17 l 439 17 q 273 19 346 17 q 108 33 200 22 q 71 79 71 38 q 81 114 71 100 q 106 128 90 128 q 129 126 119 128 q 153 465 151 265 l 136 465 q 100 478 113 465 q 88 514 88 490 q 131 563 88 563 l 153 563 l 153 717 q 151 867 153 817 q 113 911 113 874 q 127 949 113 940 q 168 961 142 958 q 407 969 246 969 q 696 957 608 969 q 731 944 719 953 q 743 911 743 935 q 731 874 743 888 q 699 863 718 860 q 443 874 560 874 q 256 868 353 874 q 261 561 261 674 l 354 560 q 496 557 465 557 q 590 554 571 554 q 629 508 629 554 q 619 471 629 485 q 590 457 610 457 l 517 458 q 351 463 454 463 q 260 464 289 463 q 236 119 258 306 q 451 113 322 113 q 570 115 526 113 q 676 125 614 118 m 583 1310 q 610 1298 599 1310 q 622 1271 622 1286 q 619 1257 622 1264 q 610 1243 615 1250 q 503 1109 546 1154 q 415 1064 460 1064 q 349 1099 388 1064 q 258 1192 311 1133 l 221 1232 q 207 1263 207 1246 q 220 1290 207 1278 q 249 1303 233 1303 q 292 1275 268 1303 q 419 1150 396 1150 q 460 1184 431 1150 q 547 1293 489 1218 q 583 1310 560 1310 z "},"Ê":{"ha":796,"x_min":71,"x_max":743,"o":"m 676 125 q 720 115 706 128 q 735 76 735 103 q 724 42 735 53 q 693 28 713 32 q 483 17 639 17 l 439 17 q 273 19 346 17 q 108 33 200 22 q 71 79 71 38 q 81 114 71 100 q 106 128 90 128 q 129 126 119 128 q 153 465 151 265 l 136 465 q 100 478 113 465 q 88 514 88 490 q 131 563 88 563 l 153 563 l 153 717 q 151 867 153 817 q 113 911 113 874 q 127 949 113 940 q 168 961 142 958 q 407 969 246 969 q 696 957 608 969 q 731 944 719 953 q 743 911 743 935 q 731 874 743 888 q 699 863 718 860 q 443 874 560 874 q 256 868 353 874 q 261 561 261 674 l 354 560 q 496 557 465 557 q 590 554 571 554 q 629 508 629 554 q 619 471 629 485 q 590 457 610 457 l 517 458 q 351 463 454 463 q 260 464 289 463 q 236 119 258 306 q 451 113 322 113 q 570 115 526 113 q 676 125 614 118 m 583 1060 q 547 1078 560 1060 q 466 1181 500 1142 q 419 1219 432 1219 q 379 1190 408 1219 q 292 1094 350 1161 q 249 1067 268 1067 q 220 1079 233 1067 q 207 1107 207 1092 q 221 1139 207 1125 q 256 1176 243 1161 q 348 1270 308 1235 q 415 1306 388 1306 q 486 1273 451 1306 q 572 1174 521 1240 l 610 1126 q 622 1099 622 1114 q 610 1072 622 1083 q 583 1060 599 1060 z "},"Ế":{"ha":796,"x_min":71,"x_max":743,"o":"m 676 125 q 720 115 706 128 q 735 76 735 103 q 724 42 735 53 q 693 28 713 32 q 483 17 639 17 l 439 17 q 273 19 346 17 q 108 33 200 22 q 71 79 71 38 q 81 114 71 100 q 106 128 90 128 q 129 126 119 128 q 153 465 151 265 l 136 465 q 100 478 113 465 q 88 514 88 490 q 131 563 88 563 l 153 563 l 153 717 q 151 867 153 817 q 113 911 113 874 q 127 949 113 940 q 168 961 142 958 q 407 969 246 969 q 696 957 608 969 q 731 944 719 953 q 743 911 743 935 q 731 874 743 888 q 699 863 718 860 q 443 874 560 874 q 256 868 353 874 q 261 561 261 674 l 354 560 q 496 557 465 557 q 590 554 571 554 q 629 508 629 554 q 619 471 629 485 q 590 457 610 457 l 517 458 q 351 463 454 463 q 260 464 289 463 q 236 119 258 306 q 451 113 322 113 q 570 115 526 113 q 676 125 614 118 m 593 1257 q 567 1268 578 1257 q 556 1294 556 1279 q 574 1335 556 1313 l 642 1406 q 668 1430 657 1422 q 692 1438 679 1438 q 722 1426 710 1438 q 733 1396 733 1414 q 727 1373 733 1383 q 710 1351 721 1363 l 633 1278 q 593 1257 613 1257 m 586 1060 q 550 1078 563 1060 q 469 1181 503 1142 q 422 1219 435 1219 q 382 1190 411 1219 q 294 1094 353 1161 q 251 1067 271 1067 q 223 1079 236 1067 q 210 1107 210 1092 q 224 1139 210 1125 q 258 1176 246 1161 q 351 1270 311 1235 q 418 1306 390 1306 q 489 1273 454 1306 q 575 1174 524 1240 l 613 1126 q 625 1099 625 1114 q 613 1072 625 1083 q 586 1060 601 1060 z "},"Ệ":{"ha":796,"x_min":71,"x_max":743,"o":"m 676 125 q 720 115 706 128 q 735 76 735 103 q 724 42 735 53 q 693 28 713 32 q 483 17 639 17 l 439 17 q 273 19 346 17 q 108 33 200 22 q 71 79 71 38 q 81 114 71 100 q 106 128 90 128 q 129 126 119 128 q 153 465 151 265 l 136 465 q 100 478 113 465 q 88 514 88 490 q 131 563 88 563 l 153 563 l 153 717 q 151 867 153 817 q 113 911 113 874 q 127 949 113 940 q 168 961 142 958 q 407 969 246 969 q 696 957 608 969 q 731 944 719 953 q 743 911 743 935 q 731 874 743 888 q 699 863 718 860 q 443 874 560 874 q 256 868 353 874 q 261 561 261 674 l 354 560 q 496 557 465 557 q 590 554 571 554 q 629 508 629 554 q 619 471 629 485 q 590 457 610 457 l 517 458 q 351 463 454 463 q 260 464 289 463 q 236 119 258 306 q 451 113 322 113 q 570 115 526 113 q 676 125 614 118 m 418 -249 q 365 -226 386 -249 q 343 -172 343 -204 q 365 -121 343 -142 q 418 -100 386 -100 q 472 -121 450 -100 q 493 -172 493 -142 q 472 -226 493 -204 q 418 -249 450 -249 m 583 1060 q 547 1078 560 1060 q 466 1181 500 1142 q 419 1219 432 1219 q 379 1190 408 1219 q 292 1094 350 1161 q 249 1067 268 1067 q 220 1079 233 1067 q 207 1107 207 1092 q 221 1139 207 1125 q 256 1176 243 1161 q 348 1270 308 1235 q 415 1306 388 1306 q 486 1273 451 1306 q 572 1174 521 1240 l 610 1126 q 622 1099 622 1114 q 610 1072 622 1083 q 583 1060 599 1060 z "},"Ề":{"ha":796,"x_min":71,"x_max":743,"o":"m 676 125 q 720 115 706 128 q 735 76 735 103 q 724 42 735 53 q 693 28 713 32 q 483 17 639 17 l 439 17 q 273 19 346 17 q 108 33 200 22 q 71 79 71 38 q 81 114 71 100 q 106 128 90 128 q 129 126 119 128 q 153 465 151 265 l 136 465 q 100 478 113 465 q 88 514 88 490 q 131 563 88 563 l 153 563 l 153 717 q 151 867 153 817 q 113 911 113 874 q 127 949 113 940 q 168 961 142 958 q 407 969 246 969 q 696 957 608 969 q 731 944 719 953 q 743 911 743 935 q 731 874 743 888 q 699 863 718 860 q 443 874 560 874 q 256 868 353 874 q 261 561 261 674 l 354 560 q 496 557 465 557 q 590 554 571 554 q 629 508 629 554 q 619 471 629 485 q 590 457 610 457 l 517 458 q 351 463 454 463 q 260 464 289 463 q 236 119 258 306 q 451 113 322 113 q 570 115 526 113 q 676 125 614 118 m 649 1257 q 608 1278 629 1257 l 532 1351 q 515 1373 521 1363 q 508 1396 508 1383 q 520 1426 508 1414 q 550 1438 532 1438 q 572 1431 561 1438 q 600 1406 582 1424 l 668 1335 q 686 1294 686 1317 q 675 1268 686 1279 q 649 1257 664 1257 m 586 1060 q 550 1078 563 1060 q 469 1181 503 1142 q 422 1219 435 1219 q 382 1190 411 1219 q 294 1094 353 1161 q 251 1067 271 1067 q 223 1079 236 1067 q 210 1107 210 1092 q 224 1139 210 1125 q 258 1176 246 1161 q 351 1270 311 1235 q 418 1306 390 1306 q 489 1273 454 1306 q 575 1174 524 1240 l 613 1126 q 625 1099 625 1114 q 613 1072 625 1083 q 586 1060 601 1060 z "},"Ể":{"ha":796,"x_min":71,"x_max":743,"o":"m 676 125 q 720 115 706 128 q 735 76 735 103 q 724 42 735 53 q 693 28 713 32 q 483 17 639 17 l 439 17 q 273 19 346 17 q 108 33 200 22 q 71 79 71 38 q 81 114 71 100 q 106 128 90 128 q 129 126 119 128 q 153 465 151 265 l 136 465 q 100 478 113 465 q 88 514 88 490 q 131 563 88 563 l 153 563 l 153 717 q 151 867 153 817 q 113 911 113 874 q 127 949 113 940 q 168 961 142 958 q 407 969 246 969 q 696 957 608 969 q 731 944 719 953 q 743 911 743 935 q 731 874 743 888 q 699 863 718 860 q 443 874 560 874 q 256 868 353 874 q 261 561 261 674 l 354 560 q 496 557 465 557 q 590 554 571 554 q 629 508 629 554 q 619 471 629 485 q 590 457 610 457 l 517 458 q 351 463 454 463 q 260 464 289 463 q 236 119 258 306 q 451 113 322 113 q 570 115 526 113 q 676 125 614 118 m 636 1253 q 615 1261 624 1253 q 606 1282 606 1269 l 606 1321 q 614 1342 606 1332 q 639 1365 622 1351 q 664 1389 656 1379 q 672 1408 672 1399 q 624 1442 672 1442 q 587 1432 601 1442 q 567 1407 572 1422 q 558 1394 565 1399 q 543 1389 551 1389 q 517 1418 517 1389 q 549 1474 517 1450 q 631 1497 582 1497 q 706 1475 678 1497 q 735 1414 735 1453 q 724 1379 735 1394 q 693 1347 713 1364 q 681 1335 690 1344 q 671 1318 671 1325 l 671 1283 q 661 1260 671 1268 q 636 1253 651 1253 m 586 1060 q 550 1078 563 1060 q 469 1181 503 1142 q 422 1219 435 1219 q 382 1190 411 1219 q 294 1094 353 1161 q 251 1067 271 1067 q 223 1079 236 1067 q 210 1107 210 1092 q 224 1139 210 1125 q 258 1176 246 1161 q 351 1270 311 1235 q 418 1306 390 1306 q 489 1273 454 1306 q 575 1174 524 1240 l 613 1126 q 625 1099 625 1114 q 613 1072 625 1083 q 586 1060 601 1060 z "},"Ễ":{"ha":796,"x_min":71,"x_max":743,"o":"m 676 125 q 720 115 706 128 q 735 76 735 103 q 724 42 735 53 q 693 28 713 32 q 483 17 639 17 l 439 17 q 273 19 346 17 q 108 33 200 22 q 71 79 71 38 q 81 114 71 100 q 106 128 90 128 q 129 126 119 128 q 153 465 151 265 l 136 465 q 100 478 113 465 q 88 514 88 490 q 131 563 88 563 l 153 563 l 153 717 q 151 867 153 817 q 113 911 113 874 q 127 949 113 940 q 168 961 142 958 q 407 969 246 969 q 696 957 608 969 q 731 944 719 953 q 743 911 743 935 q 731 874 743 888 q 699 863 718 860 q 443 874 560 874 q 256 868 353 874 q 261 561 261 674 l 354 560 q 496 557 465 557 q 590 554 571 554 q 629 508 629 554 q 619 471 629 485 q 590 457 610 457 l 517 458 q 351 463 454 463 q 260 464 289 463 q 236 119 258 306 q 451 113 322 113 q 570 115 526 113 q 676 125 614 118 m 235 1350 q 208 1360 218 1350 q 197 1385 197 1371 q 210 1413 197 1400 q 268 1465 243 1450 q 329 1481 293 1481 q 384 1473 357 1481 q 446 1450 411 1465 q 488 1431 465 1440 q 525 1422 511 1422 q 547 1428 538 1422 q 569 1444 557 1433 q 585 1457 575 1449 q 606 1465 596 1465 q 633 1453 622 1465 q 644 1426 644 1440 q 632 1400 644 1411 q 578 1362 603 1374 q 525 1350 553 1350 q 483 1357 503 1350 q 444 1373 464 1364 q 414 1386 425 1382 q 335 1410 364 1410 q 306 1400 319 1410 q 274 1371 293 1390 q 235 1350 253 1350 m 586 1060 q 550 1078 563 1060 q 469 1181 503 1142 q 422 1219 435 1219 q 382 1190 411 1219 q 294 1094 353 1161 q 251 1067 271 1067 q 223 1079 236 1067 q 210 1107 210 1092 q 224 1139 210 1125 q 258 1176 246 1161 q 351 1270 311 1235 q 418 1306 390 1306 q 489 1273 454 1306 q 575 1174 524 1240 l 613 1126 q 625 1099 625 1114 q 613 1072 625 1083 q 586 1060 601 1060 z "},"Ë":{"ha":796,"x_min":71,"x_max":743,"o":"m 676 125 q 720 115 706 128 q 735 76 735 103 q 724 42 735 53 q 693 28 713 32 q 483 17 639 17 l 439 17 q 273 19 346 17 q 108 33 200 22 q 71 79 71 38 q 81 114 71 100 q 106 128 90 128 q 129 126 119 128 q 153 465 151 265 l 136 465 q 100 478 113 465 q 88 514 88 490 q 131 563 88 563 l 153 563 l 153 717 q 151 867 153 817 q 113 911 113 874 q 127 949 113 940 q 168 961 142 958 q 407 969 246 969 q 696 957 608 969 q 731 944 719 953 q 743 911 743 935 q 731 874 743 888 q 699 863 718 860 q 443 874 560 874 q 256 868 353 874 q 261 561 261 674 l 354 560 q 496 557 465 557 q 590 554 571 554 q 629 508 629 554 q 619 471 629 485 q 590 457 610 457 l 517 458 q 351 463 454 463 q 260 464 289 463 q 236 119 258 306 q 451 113 322 113 q 570 115 526 113 q 676 125 614 118 m 251 1078 q 198 1100 219 1078 q 176 1154 176 1122 q 198 1206 176 1185 q 251 1226 219 1226 q 306 1206 283 1226 q 328 1154 328 1185 q 305 1101 328 1124 q 251 1078 282 1078 m 585 1078 q 531 1100 553 1078 q 510 1154 510 1122 q 531 1206 510 1185 q 585 1226 553 1226 q 638 1206 617 1226 q 660 1154 660 1185 q 638 1100 660 1122 q 585 1078 615 1078 z "},"Ė":{"ha":796,"x_min":71,"x_max":743,"o":"m 676 125 q 720 115 706 128 q 735 76 735 103 q 724 42 735 53 q 693 28 713 32 q 483 17 639 17 l 439 17 q 273 19 346 17 q 108 33 200 22 q 71 79 71 38 q 81 114 71 100 q 106 128 90 128 q 129 126 119 128 q 153 465 151 265 l 136 465 q 100 478 113 465 q 88 514 88 490 q 131 563 88 563 l 153 563 l 153 717 q 151 867 153 817 q 113 911 113 874 q 127 949 113 940 q 168 961 142 958 q 407 969 246 969 q 696 957 608 969 q 731 944 719 953 q 743 911 743 935 q 731 874 743 888 q 699 863 718 860 q 443 874 560 874 q 256 868 353 874 q 261 561 261 674 l 354 560 q 496 557 465 557 q 590 554 571 554 q 629 508 629 554 q 619 471 629 485 q 590 457 610 457 l 517 458 q 351 463 454 463 q 260 464 289 463 q 236 119 258 306 q 451 113 322 113 q 570 115 526 113 q 676 125 614 118 m 418 1078 q 365 1100 386 1078 q 343 1154 343 1122 q 365 1206 343 1185 q 418 1226 386 1226 q 472 1206 450 1226 q 493 1154 493 1185 q 472 1100 493 1122 q 418 1078 450 1078 z "},"Ẹ":{"ha":796,"x_min":71,"x_max":743,"o":"m 676 125 q 720 115 706 128 q 735 76 735 103 q 724 42 735 53 q 693 28 713 32 q 483 17 639 17 l 439 17 q 273 19 346 17 q 108 33 200 22 q 71 79 71 38 q 81 114 71 100 q 106 128 90 128 q 129 126 119 128 q 153 465 151 265 l 136 465 q 100 478 113 465 q 88 514 88 490 q 131 563 88 563 l 153 563 l 153 717 q 151 867 153 817 q 113 911 113 874 q 127 949 113 940 q 168 961 142 958 q 407 969 246 969 q 696 957 608 969 q 731 944 719 953 q 743 911 743 935 q 731 874 743 888 q 699 863 718 860 q 443 874 560 874 q 256 868 353 874 q 261 561 261 674 l 354 560 q 496 557 465 557 q 590 554 571 554 q 629 508 629 554 q 619 471 629 485 q 590 457 610 457 l 517 458 q 351 463 454 463 q 260 464 289 463 q 236 119 258 306 q 451 113 322 113 q 570 115 526 113 q 676 125 614 118 m 418 -249 q 365 -226 386 -249 q 343 -172 343 -204 q 365 -121 343 -142 q 418 -100 386 -100 q 472 -121 450 -100 q 493 -172 493 -142 q 472 -226 493 -204 q 418 -249 450 -249 z "},"È":{"ha":796,"x_min":71,"x_max":743,"o":"m 676 125 q 720 115 706 128 q 735 76 735 103 q 724 42 735 53 q 693 28 713 32 q 483 17 639 17 l 439 17 q 273 19 346 17 q 108 33 200 22 q 71 79 71 38 q 81 114 71 100 q 106 128 90 128 q 129 126 119 128 q 153 465 151 265 l 136 465 q 100 478 113 465 q 88 514 88 490 q 131 563 88 563 l 153 563 l 153 717 q 151 867 153 817 q 113 911 113 874 q 127 949 113 940 q 168 961 142 958 q 407 969 246 969 q 696 957 608 969 q 731 944 719 953 q 743 911 743 935 q 731 874 743 888 q 699 863 718 860 q 443 874 560 874 q 256 868 353 874 q 261 561 261 674 l 354 560 q 496 557 465 557 q 590 554 571 554 q 629 508 629 554 q 619 471 629 485 q 590 457 610 457 l 517 458 q 351 463 454 463 q 260 464 289 463 q 236 119 258 306 q 451 113 322 113 q 570 115 526 113 q 676 125 614 118 m 489 1051 q 469 1056 478 1051 q 447 1074 460 1061 l 338 1193 q 314 1238 314 1219 q 326 1268 314 1256 q 354 1281 338 1281 q 406 1247 378 1281 l 507 1129 q 526 1089 526 1107 q 515 1063 526 1074 q 489 1051 504 1051 z "},"Ẻ":{"ha":796,"x_min":71,"x_max":743,"o":"m 676 125 q 720 115 706 128 q 735 76 735 103 q 724 42 735 53 q 693 28 713 32 q 483 17 639 17 l 439 17 q 273 19 346 17 q 108 33 200 22 q 71 79 71 38 q 81 114 71 100 q 106 128 90 128 q 129 126 119 128 q 153 465 151 265 l 136 465 q 100 478 113 465 q 88 514 88 490 q 131 563 88 563 l 153 563 l 153 717 q 151 867 153 817 q 113 911 113 874 q 127 949 113 940 q 168 961 142 958 q 407 969 246 969 q 696 957 608 969 q 731 944 719 953 q 743 911 743 935 q 731 874 743 888 q 699 863 718 860 q 443 874 560 874 q 256 868 353 874 q 261 561 261 674 l 354 560 q 496 557 465 557 q 590 554 571 554 q 629 508 629 554 q 619 471 629 485 q 590 457 610 457 l 517 458 q 351 463 454 463 q 260 464 289 463 q 236 119 258 306 q 451 113 322 113 q 570 115 526 113 q 676 125 614 118 m 424 1054 q 393 1067 406 1054 q 381 1099 381 1079 l 381 1151 q 392 1181 381 1168 q 431 1217 404 1194 q 467 1250 454 1235 q 481 1281 481 1265 q 460 1321 481 1306 q 403 1336 439 1336 q 311 1278 344 1336 q 278 1254 299 1254 q 254 1265 265 1254 q 243 1290 243 1276 q 251 1318 243 1306 q 411 1408 304 1408 q 524 1377 483 1408 q 565 1288 565 1346 q 550 1238 565 1258 q 506 1192 535 1218 q 483 1170 493 1181 q 471 1150 472 1160 q 469 1101 469 1131 q 456 1067 469 1079 q 424 1054 443 1054 z "},"Ē":{"ha":796,"x_min":71,"x_max":743,"o":"m 676 125 q 720 115 706 128 q 735 76 735 103 q 724 42 735 53 q 693 28 713 32 q 483 17 639 17 l 439 17 q 273 19 346 17 q 108 33 200 22 q 71 79 71 38 q 81 114 71 100 q 106 128 90 128 q 129 126 119 128 q 153 465 151 265 l 136 465 q 100 478 113 465 q 88 514 88 490 q 131 563 88 563 l 153 563 l 153 717 q 151 867 153 817 q 113 911 113 874 q 127 949 113 940 q 168 961 142 958 q 407 969 246 969 q 696 957 608 969 q 731 944 719 953 q 743 911 743 935 q 731 874 743 888 q 699 863 718 860 q 443 874 560 874 q 256 868 353 874 q 261 561 261 674 l 354 560 q 496 557 465 557 q 590 554 571 554 q 629 508 629 554 q 619 471 629 485 q 590 457 610 457 l 517 458 q 351 463 454 463 q 260 464 289 463 q 236 119 258 306 q 451 113 322 113 q 570 115 526 113 q 676 125 614 118 m 192 1075 q 163 1083 174 1072 q 153 1115 153 1094 q 163 1145 153 1133 q 190 1160 172 1157 q 435 1179 299 1178 l 515 1179 l 625 1179 q 658 1167 646 1179 q 671 1133 671 1154 q 626 1094 671 1094 q 582 1096 601 1094 l 431 1097 q 269 1087 335 1097 q 192 1075 203 1076 z "},"Ę":{"ha":796,"x_min":71,"x_max":769,"o":"m 746 -111 q 763 -119 756 -111 q 769 -142 769 -128 q 693 -192 769 -192 q 597 -165 635 -192 q 560 -82 560 -139 q 596 18 560 -32 q 439 17 542 17 q 273 19 346 17 q 108 33 200 22 q 71 79 71 38 q 81 114 71 100 q 106 128 90 128 q 129 126 119 128 q 153 465 151 265 l 136 465 q 100 478 113 465 q 88 514 88 490 q 131 563 88 563 l 153 563 l 153 717 q 151 867 153 817 q 113 911 113 874 q 127 949 113 940 q 168 961 142 958 q 407 969 246 969 q 696 957 608 969 q 731 944 719 953 q 743 911 743 935 q 731 874 743 888 q 699 863 718 860 q 443 874 560 874 q 256 868 353 874 q 261 561 261 674 l 354 560 q 496 557 465 557 q 590 554 571 554 q 629 508 629 554 q 619 471 629 485 q 590 457 610 457 l 517 458 q 351 463 454 463 q 260 464 289 463 q 236 119 258 306 q 451 113 322 113 q 570 115 526 113 q 676 125 614 118 q 720 115 706 128 q 735 76 735 103 q 719 39 735 50 q 714 33 718 35 q 658 -22 676 3 q 640 -75 640 -47 q 657 -110 640 -99 q 699 -121 674 -121 q 725 -116 708 -121 q 746 -111 742 -111 z "},"Ẽ":{"ha":796,"x_min":71,"x_max":743,"o":"m 676 125 q 720 115 706 128 q 735 76 735 103 q 724 42 735 53 q 693 28 713 32 q 483 17 639 17 l 439 17 q 273 19 346 17 q 108 33 200 22 q 71 79 71 38 q 81 114 71 100 q 106 128 90 128 q 129 126 119 128 q 153 465 151 265 l 136 465 q 100 478 113 465 q 88 514 88 490 q 131 563 88 563 l 153 563 l 153 717 q 151 867 153 817 q 113 911 113 874 q 127 949 113 940 q 168 961 142 958 q 407 969 246 969 q 696 957 608 969 q 731 944 719 953 q 743 911 743 935 q 731 874 743 888 q 699 863 718 860 q 443 874 560 874 q 256 868 353 874 q 261 561 261 674 l 354 560 q 496 557 465 557 q 590 554 571 554 q 629 508 629 554 q 619 471 629 485 q 590 457 610 457 l 517 458 q 351 463 454 463 q 260 464 289 463 q 236 119 258 306 q 451 113 322 113 q 570 115 526 113 q 676 125 614 118 m 206 1075 q 193 1104 193 1090 q 204 1133 193 1119 q 264 1190 238 1174 q 326 1207 290 1207 q 449 1176 390 1207 q 474 1163 457 1172 q 503 1150 492 1154 q 525 1146 515 1146 q 545 1152 536 1146 q 565 1169 554 1158 q 600 1190 585 1190 q 628 1176 615 1190 q 642 1147 642 1163 q 631 1118 642 1132 q 576 1077 601 1090 q 522 1064 550 1064 q 484 1070 503 1064 q 442 1089 465 1076 q 411 1103 436 1092 q 377 1117 404 1106 q 332 1129 350 1129 q 308 1121 319 1129 q 287 1101 297 1113 q 274 1086 276 1090 q 232 1064 251 1064 q 206 1075 217 1064 z "},"F":{"ha":776,"x_min":61,"x_max":733,"o":"m 689 958 q 722 943 710 954 q 733 910 733 932 q 721 874 733 888 q 686 863 708 860 q 554 876 611 872 q 426 881 497 881 q 260 875 371 881 q 274 542 272 729 q 393 546 325 546 q 611 536 535 546 q 644 519 633 533 q 654 486 654 506 q 643 453 654 467 q 607 442 632 440 q 392 449 507 449 q 274 444 328 449 q 260 51 274 213 q 243 20 257 32 q 206 8 229 8 q 166 21 181 8 q 153 53 151 33 q 168 435 167 210 l 107 426 q 76 438 88 424 q 64 474 64 451 q 110 524 64 518 q 168 531 154 529 q 151 869 167 729 l 113 868 q 73 879 85 867 q 61 917 61 892 q 72 950 61 938 q 108 964 82 963 l 142 967 l 140 983 q 153 1021 139 1007 q 194 1035 168 1035 q 249 982 243 1035 l 250 972 q 419 976 335 976 q 583 972 510 976 q 689 958 656 967 z "},"G":{"ha":1029,"x_min":64,"x_max":981,"o":"m 926 493 q 981 446 981 493 q 967 409 981 422 q 929 397 953 396 l 893 399 q 797 103 886 206 q 535 1 708 1 q 287 67 394 1 q 122 242 179 132 q 64 482 64 351 q 122 722 64 613 q 285 894 181 831 q 519 958 389 958 q 690 924 618 958 q 806 839 761 890 l 806 867 q 821 903 806 890 q 861 917 836 917 q 899 906 885 917 q 914 879 914 894 q 899 749 914 781 q 844 718 885 718 q 817 724 829 718 q 785 749 804 731 q 713 808 743 786 q 640 845 682 831 q 539 860 597 860 q 346 808 429 860 q 217 669 263 757 q 171 478 171 582 q 217 287 171 374 q 345 150 263 200 q 533 100 428 100 q 722 175 660 100 q 789 397 783 250 l 593 401 q 542 450 542 403 q 558 488 542 475 q 596 500 574 501 l 926 493 z "},"Ğ":{"ha":1029,"x_min":64,"x_max":981,"o":"m 926 493 q 981 446 981 493 q 967 409 981 422 q 929 397 953 396 l 893 399 q 797 103 886 206 q 535 1 708 1 q 287 67 394 1 q 122 242 179 132 q 64 482 64 351 q 122 722 64 613 q 285 894 181 831 q 519 958 389 958 q 690 924 618 958 q 806 839 761 890 l 806 867 q 821 903 806 890 q 861 917 836 917 q 899 906 885 917 q 914 879 914 894 q 899 749 914 781 q 844 718 885 718 q 817 724 829 718 q 785 749 804 731 q 713 808 743 786 q 640 845 682 831 q 539 860 597 860 q 346 808 429 860 q 217 669 263 757 q 171 478 171 582 q 217 287 171 374 q 345 150 263 200 q 533 100 428 100 q 722 175 660 100 q 789 397 783 250 l 593 401 q 542 450 542 403 q 558 488 542 475 q 596 500 574 501 l 926 493 m 521 1064 q 408 1089 458 1064 q 330 1156 358 1114 q 301 1246 301 1197 q 313 1273 301 1261 q 340 1285 325 1285 q 368 1278 356 1285 q 382 1258 381 1272 q 424 1170 385 1203 q 521 1138 463 1138 q 610 1172 572 1138 q 650 1254 649 1206 q 663 1280 650 1271 q 693 1289 676 1289 q 722 1278 710 1289 q 733 1250 733 1267 q 704 1158 733 1201 q 626 1090 675 1115 q 521 1064 578 1064 z "},"Ǧ":{"ha":1029,"x_min":64,"x_max":981,"o":"m 926 493 q 981 446 981 493 q 967 409 981 422 q 929 397 953 396 l 893 399 q 797 103 886 206 q 535 1 708 1 q 287 67 394 1 q 122 242 179 132 q 64 482 64 351 q 122 722 64 613 q 285 894 181 831 q 519 958 389 958 q 690 924 618 958 q 806 839 761 890 l 806 867 q 821 903 806 890 q 861 917 836 917 q 899 906 885 917 q 914 879 914 894 q 899 749 914 781 q 844 718 885 718 q 817 724 829 718 q 785 749 804 731 q 713 808 743 786 q 640 845 682 831 q 539 860 597 860 q 346 808 429 860 q 217 669 263 757 q 171 478 171 582 q 217 287 171 374 q 345 150 263 200 q 533 100 428 100 q 722 175 660 100 q 789 397 783 250 l 593 401 q 542 450 542 403 q 558 488 542 475 q 596 500 574 501 l 926 493 m 686 1310 q 713 1298 701 1310 q 725 1271 725 1286 q 722 1257 725 1264 q 713 1243 718 1250 q 606 1109 649 1154 q 518 1064 563 1064 q 452 1099 490 1064 q 361 1192 414 1133 l 324 1232 q 310 1263 310 1246 q 323 1290 310 1278 q 351 1303 336 1303 q 394 1275 371 1303 q 522 1150 499 1150 q 563 1184 533 1150 q 650 1293 592 1218 q 686 1310 663 1310 z "},"Ĝ":{"ha":1029,"x_min":64,"x_max":981,"o":"m 926 493 q 981 446 981 493 q 967 409 981 422 q 929 397 953 396 l 893 399 q 797 103 886 206 q 535 1 708 1 q 287 67 394 1 q 122 242 179 132 q 64 482 64 351 q 122 722 64 613 q 285 894 181 831 q 519 958 389 958 q 690 924 618 958 q 806 839 761 890 l 806 867 q 821 903 806 890 q 861 917 836 917 q 899 906 885 917 q 914 879 914 894 q 899 749 914 781 q 844 718 885 718 q 817 724 829 718 q 785 749 804 731 q 713 808 743 786 q 640 845 682 831 q 539 860 597 860 q 346 808 429 860 q 217 669 263 757 q 171 478 171 582 q 217 287 171 374 q 345 150 263 200 q 533 100 428 100 q 722 175 660 100 q 789 397 783 250 l 593 401 q 542 450 542 403 q 558 488 542 475 q 596 500 574 501 l 926 493 m 686 1060 q 650 1078 663 1060 q 569 1181 603 1142 q 522 1219 535 1219 q 482 1190 511 1219 q 394 1094 453 1161 q 351 1067 371 1067 q 323 1079 336 1067 q 310 1107 310 1092 q 324 1139 310 1125 q 358 1176 346 1161 q 451 1270 411 1235 q 518 1306 490 1306 q 589 1273 554 1306 q 675 1174 624 1240 l 713 1126 q 725 1099 725 1114 q 713 1072 725 1083 q 686 1060 701 1060 z "},"Ģ":{"ha":1029,"x_min":64,"x_max":981,"o":"m 926 493 q 981 446 981 493 q 967 409 981 422 q 929 397 953 396 l 893 399 q 797 103 886 206 q 535 1 708 1 q 287 67 394 1 q 122 242 179 132 q 64 482 64 351 q 122 722 64 613 q 285 894 181 831 q 519 958 389 958 q 690 924 618 958 q 806 839 761 890 l 806 867 q 821 903 806 890 q 861 917 836 917 q 899 906 885 917 q 914 879 914 894 q 899 749 914 781 q 844 718 885 718 q 817 724 829 718 q 785 749 804 731 q 713 808 743 786 q 640 845 682 831 q 539 860 597 860 q 346 808 429 860 q 217 669 263 757 q 171 478 171 582 q 217 287 171 374 q 345 150 263 200 q 533 100 428 100 q 722 175 660 100 q 789 397 783 250 l 593 401 q 542 450 542 403 q 558 488 542 475 q 596 500 574 501 l 926 493 m 525 -100 q 582 -124 558 -100 q 606 -181 606 -147 q 574 -279 606 -228 q 486 -376 543 -331 q 463 -386 476 -386 q 438 -376 450 -386 q 426 -353 426 -367 q 432 -336 426 -344 l 453 -312 q 504 -250 493 -269 q 461 -227 479 -247 q 443 -181 443 -207 q 467 -124 443 -147 q 525 -100 492 -100 z "},"Ġ":{"ha":1029,"x_min":64,"x_max":981,"o":"m 926 493 q 981 446 981 493 q 967 409 981 422 q 929 397 953 396 l 893 399 q 797 103 886 206 q 535 1 708 1 q 287 67 394 1 q 122 242 179 132 q 64 482 64 351 q 122 722 64 613 q 285 894 181 831 q 519 958 389 958 q 690 924 618 958 q 806 839 761 890 l 806 867 q 821 903 806 890 q 861 917 836 917 q 899 906 885 917 q 914 879 914 894 q 899 749 914 781 q 844 718 885 718 q 817 724 829 718 q 785 749 804 731 q 713 808 743 786 q 640 845 682 831 q 539 860 597 860 q 346 808 429 860 q 217 669 263 757 q 171 478 171 582 q 217 287 171 374 q 345 150 263 200 q 533 100 428 100 q 722 175 660 100 q 789 397 783 250 l 593 401 q 542 450 542 403 q 558 488 542 475 q 596 500 574 501 l 926 493 m 521 1078 q 467 1100 489 1078 q 446 1154 446 1122 q 467 1206 446 1185 q 521 1226 489 1226 q 574 1206 553 1226 q 596 1154 596 1185 q 574 1100 596 1122 q 521 1078 553 1078 z "},"Ḡ":{"ha":1029,"x_min":64,"x_max":981,"o":"m 926 493 q 981 446 981 493 q 967 409 981 422 q 929 397 953 396 l 893 399 q 797 103 886 206 q 535 1 708 1 q 287 67 394 1 q 122 242 179 132 q 64 482 64 351 q 122 722 64 613 q 285 894 181 831 q 519 958 389 958 q 690 924 618 958 q 806 839 761 890 l 806 867 q 821 903 806 890 q 861 917 836 917 q 899 906 885 917 q 914 879 914 894 q 899 749 914 781 q 844 718 885 718 q 817 724 829 718 q 785 749 804 731 q 713 808 743 786 q 640 845 682 831 q 539 860 597 860 q 346 808 429 860 q 217 669 263 757 q 171 478 171 582 q 217 287 171 374 q 345 150 263 200 q 533 100 428 100 q 722 175 660 100 q 789 397 783 250 l 593 401 q 542 450 542 403 q 558 488 542 475 q 596 500 574 501 l 926 493 m 294 1075 q 266 1083 276 1072 q 256 1115 256 1094 q 265 1145 256 1133 q 293 1160 275 1157 q 538 1179 401 1178 l 618 1179 l 728 1179 q 761 1167 749 1179 q 774 1133 774 1154 q 729 1094 774 1094 q 685 1096 704 1094 l 533 1097 q 372 1087 438 1097 q 294 1075 306 1076 z "},"H":{"ha":990,"x_min":81,"x_max":921,"o":"m 858 488 q 921 438 921 488 q 858 389 921 389 l 836 389 l 846 51 q 833 13 847 28 q 794 -1 819 -1 q 754 12 768 -1 q 739 49 740 25 l 729 392 l 271 399 l 242 31 q 189 -8 238 -8 q 135 39 131 -8 l 164 401 l 138 401 q 97 414 114 401 q 81 450 81 426 q 97 486 81 474 q 140 499 114 499 l 172 499 l 208 954 q 226 991 210 979 q 264 1003 242 1003 q 304 987 292 1003 q 315 947 317 971 l 279 496 l 726 489 l 713 950 q 726 989 713 975 q 765 1003 740 1003 q 805 989 790 1003 q 819 954 819 975 l 833 488 l 858 488 z "},"Ħ":{"ha":1013,"x_min":81,"x_max":943,"o":"m 878 488 q 940 438 940 488 q 878 389 940 389 l 856 389 l 865 51 q 853 13 867 28 q 814 -1 839 -1 q 774 12 788 -1 q 758 49 760 25 l 749 392 l 290 399 l 261 31 q 208 -8 257 -8 q 154 39 150 -8 l 183 401 l 157 401 q 117 414 133 401 q 100 450 100 426 q 117 486 100 474 q 160 499 133 499 l 192 499 l 207 689 l 139 690 q 97 703 114 692 q 81 735 81 715 q 99 767 81 756 q 142 779 117 779 l 214 778 l 228 954 q 245 991 229 979 q 283 1003 261 1003 q 324 987 311 1003 q 335 947 336 971 l 321 776 l 738 771 l 732 950 q 746 989 732 975 q 785 1003 760 1003 q 824 989 810 1003 q 839 954 839 975 l 844 768 l 882 768 q 926 756 910 768 q 943 724 943 744 q 926 689 943 700 q 882 678 910 678 l 847 678 l 853 488 l 878 488 m 746 489 l 740 681 l 314 688 l 299 496 l 746 489 z "},"Ḫ":{"ha":990,"x_min":81,"x_max":921,"o":"m 858 488 q 921 438 921 488 q 858 389 921 389 l 836 389 l 846 51 q 833 13 847 28 q 794 -1 819 -1 q 754 12 768 -1 q 739 49 740 25 l 729 392 l 271 399 l 242 31 q 189 -8 238 -8 q 135 39 131 -8 l 164 401 l 138 401 q 97 414 114 401 q 81 450 81 426 q 97 486 81 474 q 140 499 114 499 l 172 499 l 208 954 q 226 991 210 979 q 264 1003 242 1003 q 304 987 292 1003 q 315 947 317 971 l 279 496 l 726 489 l 713 950 q 726 989 713 975 q 765 1003 740 1003 q 805 989 790 1003 q 819 954 819 975 l 833 488 l 858 488 z "},"Ĥ":{"ha":990,"x_min":81,"x_max":921,"o":"m 858 488 q 921 438 921 488 q 858 389 921 389 l 836 389 l 846 51 q 833 13 847 28 q 794 -1 819 -1 q 754 12 768 -1 q 739 49 740 25 l 729 392 l 271 399 l 242 31 q 189 -8 238 -8 q 135 39 131 -8 l 164 401 l 138 401 q 97 414 114 401 q 81 450 81 426 q 97 486 81 474 q 140 499 114 499 l 172 499 l 208 954 q 226 991 210 979 q 264 1003 242 1003 q 304 987 292 1003 q 315 947 317 971 l 279 496 l 726 489 l 713 950 q 726 989 713 975 q 765 1003 740 1003 q 805 989 790 1003 q 819 954 819 975 l 833 488 l 858 488 m 674 1060 q 638 1078 650 1060 q 556 1181 590 1142 q 510 1219 522 1219 q 469 1190 499 1219 q 382 1094 440 1161 q 339 1067 358 1067 q 310 1079 324 1067 q 297 1107 297 1092 q 311 1139 297 1125 q 346 1176 333 1161 q 438 1270 399 1235 q 506 1306 478 1306 q 576 1273 542 1306 q 663 1174 611 1240 l 700 1126 q 713 1099 713 1114 q 701 1072 713 1083 q 674 1060 689 1060 z "},"Ḥ":{"ha":990,"x_min":81,"x_max":921,"o":"m 858 488 q 921 438 921 488 q 858 389 921 389 l 836 389 l 846 51 q 833 13 847 28 q 794 -1 819 -1 q 754 12 768 -1 q 739 49 740 25 l 729 392 l 271 399 l 242 31 q 189 -8 238 -8 q 135 39 131 -8 l 164 401 l 138 401 q 97 414 114 401 q 81 450 81 426 q 97 486 81 474 q 140 499 114 499 l 172 499 l 208 954 q 226 991 210 979 q 264 1003 242 1003 q 304 987 292 1003 q 315 947 317 971 l 279 496 l 726 489 l 713 950 q 726 989 713 975 q 765 1003 740 1003 q 805 989 790 1003 q 819 954 819 975 l 833 488 l 858 488 m 494 -249 q 441 -226 463 -249 q 419 -172 419 -204 q 441 -121 419 -142 q 494 -100 463 -100 q 548 -121 526 -100 q 569 -172 569 -142 q 548 -226 569 -204 q 494 -249 526 -249 z "},"I":{"ha":608,"x_min":44,"x_max":564,"o":"m 517 104 q 564 56 564 104 q 515 6 564 6 l 94 11 q 51 61 51 13 q 65 98 51 86 q 97 110 78 110 l 256 107 q 281 885 281 507 q 118 876 218 883 l 81 874 q 56 888 67 874 q 44 924 44 901 q 89 972 44 964 q 196 981 114 976 q 356 985 278 985 q 521 976 472 985 q 553 963 542 972 q 564 929 564 954 q 551 892 564 906 q 515 881 538 879 q 388 886 461 885 q 382 480 388 661 q 361 106 376 299 l 517 104 z "},"Ĳ":{"ha":1371,"x_min":44,"x_max":1357,"o":"m 517 104 q 564 56 564 104 q 515 6 564 6 l 94 11 q 51 61 51 13 q 65 98 51 86 q 97 110 78 110 l 256 107 q 281 885 281 507 q 118 876 218 883 l 81 874 q 56 888 67 874 q 44 924 44 901 q 89 972 44 964 q 196 981 114 976 q 356 985 278 985 q 521 976 472 985 q 553 963 542 972 q 564 929 564 954 q 551 892 564 906 q 515 881 538 879 q 388 886 461 885 q 382 480 388 661 q 361 106 376 299 l 517 104 m 1313 972 q 1357 924 1357 968 q 1306 876 1357 876 l 1235 876 q 1231 358 1231 583 q 1150 94 1231 189 q 922 0 1069 0 q 716 83 792 0 q 640 356 640 167 q 651 397 640 383 q 692 411 663 411 q 733 397 721 411 q 747 356 746 383 q 763 229 751 282 q 811 138 774 176 q 922 99 849 99 q 1066 163 1013 99 q 1119 365 1119 228 q 1128 874 1119 585 l 1031 874 q 992 886 1006 874 q 978 922 978 899 q 988 955 978 943 q 1014 968 999 967 q 1169 974 1081 974 q 1313 972 1285 974 z "},"Í":{"ha":608,"x_min":44,"x_max":564,"o":"m 517 104 q 564 56 564 104 q 515 6 564 6 l 94 11 q 51 61 51 13 q 65 98 51 86 q 97 110 78 110 l 256 107 q 281 885 281 507 q 118 876 218 883 l 81 874 q 56 888 67 874 q 44 924 44 901 q 89 972 44 964 q 196 981 114 976 q 356 985 278 985 q 521 976 472 985 q 553 963 542 972 q 564 929 564 954 q 551 892 564 906 q 515 881 538 879 q 388 886 461 885 q 382 480 388 661 q 361 106 376 299 l 517 104 m 261 1051 q 235 1063 246 1051 q 225 1089 225 1074 q 244 1129 225 1111 l 357 1247 q 385 1273 374 1265 q 408 1281 396 1281 q 437 1268 425 1281 q 449 1238 449 1256 q 425 1193 449 1217 l 303 1074 q 261 1051 281 1051 z "},"Ĭ":{"ha":608,"x_min":44,"x_max":564,"o":"m 517 104 q 564 56 564 104 q 515 6 564 6 l 94 11 q 51 61 51 13 q 65 98 51 86 q 97 110 78 110 l 256 107 q 281 885 281 507 q 118 876 218 883 l 81 874 q 56 888 67 874 q 44 924 44 901 q 89 972 44 964 q 196 981 114 976 q 356 985 278 985 q 521 976 472 985 q 553 963 542 972 q 564 929 564 954 q 551 892 564 906 q 515 881 538 879 q 388 886 461 885 q 382 480 388 661 q 361 106 376 299 l 517 104 m 313 1064 q 200 1089 250 1064 q 122 1156 150 1114 q 93 1246 93 1197 q 105 1273 93 1261 q 132 1285 117 1285 q 160 1278 147 1285 q 174 1258 172 1272 q 215 1170 176 1203 q 313 1138 254 1138 q 402 1172 364 1138 q 442 1254 440 1206 q 455 1280 442 1271 q 485 1289 468 1289 q 513 1278 501 1289 q 525 1250 525 1267 q 496 1158 525 1201 q 418 1090 467 1115 q 313 1064 369 1064 z "},"Ǐ":{"ha":608,"x_min":44,"x_max":564,"o":"m 517 104 q 564 56 564 104 q 515 6 564 6 l 94 11 q 51 61 51 13 q 65 98 51 86 q 97 110 78 110 l 256 107 q 281 885 281 507 q 118 876 218 883 l 81 874 q 56 888 67 874 q 44 924 44 901 q 89 972 44 964 q 196 981 114 976 q 356 985 278 985 q 521 976 472 985 q 553 963 542 972 q 564 929 564 954 q 551 892 564 906 q 515 881 538 879 q 388 886 461 885 q 382 480 388 661 q 361 106 376 299 l 517 104 m 478 1310 q 505 1298 493 1310 q 517 1271 517 1286 q 513 1257 517 1264 q 504 1243 510 1250 q 397 1109 440 1154 q 310 1064 354 1064 q 244 1099 282 1064 q 153 1192 206 1133 l 115 1232 q 101 1263 101 1246 q 115 1290 101 1278 q 143 1303 128 1303 q 186 1275 163 1303 q 314 1150 290 1150 q 354 1184 325 1150 q 442 1293 383 1218 q 478 1310 454 1310 z "},"Î":{"ha":608,"x_min":44,"x_max":564,"o":"m 517 104 q 564 56 564 104 q 515 6 564 6 l 94 11 q 51 61 51 13 q 65 98 51 86 q 97 110 78 110 l 256 107 q 281 885 281 507 q 118 876 218 883 l 81 874 q 56 888 67 874 q 44 924 44 901 q 89 972 44 964 q 196 981 114 976 q 356 985 278 985 q 521 976 472 985 q 553 963 542 972 q 564 929 564 954 q 551 892 564 906 q 515 881 538 879 q 388 886 461 885 q 382 480 388 661 q 361 106 376 299 l 517 104 m 478 1060 q 442 1078 454 1060 q 360 1181 394 1142 q 314 1219 326 1219 q 274 1190 303 1219 q 186 1094 244 1161 q 143 1067 163 1067 q 115 1079 128 1067 q 101 1107 101 1092 q 115 1139 101 1125 q 150 1176 138 1161 q 242 1270 203 1235 q 310 1306 282 1306 q 381 1273 346 1306 q 467 1174 415 1240 l 504 1126 q 517 1099 517 1114 q 505 1072 517 1083 q 478 1060 493 1060 z "},"Ï":{"ha":608,"x_min":44,"x_max":564,"o":"m 517 104 q 564 56 564 104 q 515 6 564 6 l 94 11 q 51 61 51 13 q 65 98 51 86 q 97 110 78 110 l 256 107 q 281 885 281 507 q 118 876 218 883 l 81 874 q 56 888 67 874 q 44 924 44 901 q 89 972 44 964 q 196 981 114 976 q 356 985 278 985 q 521 976 472 985 q 553 963 542 972 q 564 929 564 954 q 551 892 564 906 q 515 881 538 879 q 388 886 461 885 q 382 480 388 661 q 361 106 376 299 l 517 104 m 146 1078 q 92 1100 114 1078 q 71 1154 71 1122 q 92 1206 71 1185 q 146 1226 114 1226 q 200 1206 178 1226 q 222 1154 222 1185 q 199 1101 222 1124 q 146 1078 176 1078 m 479 1078 q 426 1100 447 1078 q 404 1154 404 1122 q 426 1206 404 1185 q 479 1226 447 1226 q 533 1206 511 1226 q 554 1154 554 1185 q 532 1100 554 1122 q 479 1078 510 1078 z "},"İ":{"ha":608,"x_min":44,"x_max":564,"o":"m 517 104 q 564 56 564 104 q 515 6 564 6 l 94 11 q 51 61 51 13 q 65 98 51 86 q 97 110 78 110 l 256 107 q 281 885 281 507 q 118 876 218 883 l 81 874 q 56 888 67 874 q 44 924 44 901 q 89 972 44 964 q 196 981 114 976 q 356 985 278 985 q 521 976 472 985 q 553 963 542 972 q 564 929 564 954 q 551 892 564 906 q 515 881 538 879 q 388 886 461 885 q 382 480 388 661 q 361 106 376 299 l 517 104 m 313 1078 q 259 1100 281 1078 q 238 1154 238 1122 q 259 1206 238 1185 q 313 1226 281 1226 q 366 1206 344 1226 q 388 1154 388 1185 q 366 1100 388 1122 q 313 1078 344 1078 z "},"Ị":{"ha":608,"x_min":44,"x_max":564,"o":"m 517 104 q 564 56 564 104 q 515 6 564 6 l 94 11 q 51 61 51 13 q 65 98 51 86 q 97 110 78 110 l 256 107 q 281 885 281 507 q 118 876 218 883 l 81 874 q 56 888 67 874 q 44 924 44 901 q 89 972 44 964 q 196 981 114 976 q 356 985 278 985 q 521 976 472 985 q 553 963 542 972 q 564 929 564 954 q 551 892 564 906 q 515 881 538 879 q 388 886 461 885 q 382 480 388 661 q 361 106 376 299 l 517 104 m 313 -249 q 259 -226 281 -249 q 238 -172 238 -204 q 259 -121 238 -142 q 313 -100 281 -100 q 366 -121 344 -100 q 388 -172 388 -142 q 366 -226 388 -204 q 313 -249 344 -249 z "},"Ì":{"ha":608,"x_min":44,"x_max":564,"o":"m 517 104 q 564 56 564 104 q 515 6 564 6 l 94 11 q 51 61 51 13 q 65 98 51 86 q 97 110 78 110 l 256 107 q 281 885 281 507 q 118 876 218 883 l 81 874 q 56 888 67 874 q 44 924 44 901 q 89 972 44 964 q 196 981 114 976 q 356 985 278 985 q 521 976 472 985 q 553 963 542 972 q 564 929 564 954 q 551 892 564 906 q 515 881 538 879 q 388 886 461 885 q 382 480 388 661 q 361 106 376 299 l 517 104 m 383 1051 q 363 1056 372 1051 q 342 1074 354 1061 l 232 1193 q 208 1238 208 1219 q 220 1268 208 1256 q 249 1281 232 1281 q 300 1247 272 1281 l 401 1129 q 421 1089 421 1107 q 410 1063 421 1074 q 383 1051 399 1051 z "},"Ỉ":{"ha":608,"x_min":44,"x_max":564,"o":"m 517 104 q 564 56 564 104 q 515 6 564 6 l 94 11 q 51 61 51 13 q 65 98 51 86 q 97 110 78 110 l 256 107 q 281 885 281 507 q 118 876 218 883 l 81 874 q 56 888 67 874 q 44 924 44 901 q 89 972 44 964 q 196 981 114 976 q 356 985 278 985 q 521 976 472 985 q 553 963 542 972 q 564 929 564 954 q 551 892 564 906 q 515 881 538 879 q 388 886 461 885 q 382 480 388 661 q 361 106 376 299 l 517 104 m 318 1054 q 288 1067 300 1054 q 275 1099 275 1079 l 275 1151 q 287 1181 275 1168 q 325 1217 299 1194 q 362 1250 349 1235 q 375 1281 375 1265 q 354 1321 375 1306 q 297 1336 333 1336 q 206 1278 239 1336 q 172 1254 193 1254 q 149 1265 160 1254 q 138 1290 138 1276 q 146 1318 138 1306 q 306 1408 199 1408 q 419 1377 378 1408 q 460 1288 460 1346 q 444 1238 460 1258 q 400 1192 429 1218 q 377 1170 388 1181 q 365 1150 367 1160 q 364 1101 364 1131 q 351 1067 364 1079 q 318 1054 338 1054 z "},"Ī":{"ha":608,"x_min":44,"x_max":565,"o":"m 517 104 q 564 56 564 104 q 515 6 564 6 l 94 11 q 51 61 51 13 q 65 98 51 86 q 97 110 78 110 l 256 107 q 281 885 281 507 q 118 876 218 883 l 81 874 q 56 888 67 874 q 44 924 44 901 q 89 972 44 964 q 196 981 114 976 q 356 985 278 985 q 521 976 472 985 q 553 963 542 972 q 564 929 564 954 q 551 892 564 906 q 515 881 538 879 q 388 886 461 885 q 382 480 388 661 q 361 106 376 299 l 517 104 m 86 1075 q 58 1083 68 1072 q 47 1115 47 1094 q 57 1145 47 1133 q 85 1160 67 1157 q 329 1179 193 1178 l 410 1179 l 519 1179 q 553 1167 540 1179 q 565 1133 565 1154 q 521 1094 565 1094 q 476 1096 496 1094 l 325 1097 q 163 1087 229 1097 q 86 1075 97 1076 z "},"Į":{"ha":608,"x_min":44,"x_max":600,"o":"m 576 -132 q 593 -140 586 -132 q 600 -162 600 -149 q 524 -212 600 -212 q 428 -186 465 -212 q 390 -103 390 -160 q 433 7 390 -47 l 94 11 q 51 61 51 13 q 65 98 51 86 q 97 110 78 110 l 256 107 q 281 885 281 507 q 118 876 218 883 l 81 874 q 56 888 67 874 q 44 924 44 901 q 89 972 44 964 q 196 981 114 976 q 356 985 278 985 q 521 976 472 985 q 553 963 542 972 q 564 929 564 954 q 551 892 564 906 q 515 881 538 879 q 388 886 461 885 q 382 480 388 661 q 361 106 376 299 l 517 104 q 564 56 564 104 q 543 11 564 22 q 489 -44 507 -19 q 471 -96 471 -68 q 488 -131 471 -119 q 529 -142 504 -142 q 556 -137 539 -142 q 576 -132 572 -132 z "},"Ĩ":{"ha":608,"x_min":44,"x_max":564,"o":"m 517 104 q 564 56 564 104 q 515 6 564 6 l 94 11 q 51 61 51 13 q 65 98 51 86 q 97 110 78 110 l 256 107 q 281 885 281 507 q 118 876 218 883 l 81 874 q 56 888 67 874 q 44 924 44 901 q 89 972 44 964 q 196 981 114 976 q 356 985 278 985 q 521 976 472 985 q 553 963 542 972 q 564 929 564 954 q 551 892 564 906 q 515 881 538 879 q 388 886 461 885 q 382 480 388 661 q 361 106 376 299 l 517 104 m 100 1075 q 88 1104 88 1090 q 99 1133 88 1119 q 158 1190 132 1174 q 221 1207 185 1207 q 343 1176 285 1207 q 369 1163 351 1172 q 398 1150 386 1154 q 419 1146 410 1146 q 440 1152 431 1146 q 460 1169 449 1158 q 494 1190 479 1190 q 523 1176 510 1190 q 536 1147 536 1163 q 525 1118 536 1132 q 470 1077 496 1090 q 417 1064 444 1064 q 378 1070 397 1064 q 336 1089 360 1076 q 306 1103 331 1092 q 272 1117 299 1106 q 226 1129 244 1129 q 203 1121 214 1129 q 181 1101 192 1113 q 168 1086 171 1090 q 126 1064 146 1064 q 100 1075 111 1064 z "},"J":{"ha":763,"x_min":32,"x_max":749,"o":"m 704 972 q 749 924 749 968 q 697 876 749 876 l 626 876 q 622 358 622 583 q 542 94 622 189 q 314 0 461 0 q 108 83 183 0 q 32 356 32 167 q 43 397 32 383 q 83 411 54 411 q 125 397 113 411 q 139 356 138 383 q 154 229 143 282 q 203 138 165 176 q 314 99 240 99 q 458 163 404 99 q 511 365 511 228 q 519 874 511 585 l 422 874 q 383 886 397 874 q 369 922 369 899 q 380 955 369 943 q 406 968 390 967 q 561 974 472 974 q 704 972 676 974 z "},"Ĵ":{"ha":763,"x_min":32,"x_max":771,"o":"m 704 972 q 749 924 749 968 q 697 876 749 876 l 626 876 q 622 358 622 583 q 542 94 622 189 q 314 0 461 0 q 108 83 183 0 q 32 356 32 167 q 43 397 32 383 q 83 411 54 411 q 125 397 113 411 q 139 356 138 383 q 154 229 143 282 q 203 138 165 176 q 314 99 240 99 q 458 163 404 99 q 511 365 511 228 q 519 874 511 585 l 422 874 q 383 886 397 874 q 369 922 369 899 q 380 955 369 943 q 406 968 390 967 q 561 974 472 974 q 704 972 676 974 m 732 1060 q 696 1078 708 1060 q 615 1181 649 1142 q 568 1219 581 1219 q 528 1190 557 1219 q 440 1094 499 1161 q 397 1067 417 1067 q 369 1079 382 1067 q 356 1107 356 1092 q 369 1139 356 1125 q 404 1176 392 1161 q 497 1270 457 1235 q 564 1306 536 1306 q 635 1273 600 1306 q 721 1174 669 1240 l 758 1126 q 771 1099 771 1114 q 759 1072 771 1083 q 732 1060 747 1060 z "},"K":{"ha":843,"x_min":106,"x_max":818,"o":"m 765 964 q 802 949 786 964 q 818 911 818 933 q 800 874 818 888 q 588 724 717 807 q 521 681 543 696 q 356 574 500 667 q 263 514 283 528 l 326 456 q 494 304 403 383 q 624 199 572 238 q 768 93 675 160 q 789 50 789 79 q 774 13 789 26 q 738 -1 758 -1 q 707 8 718 -1 q 435 225 538 139 q 218 425 324 318 q 215 282 218 374 q 213 51 213 138 q 198 13 213 26 q 158 0 183 0 q 106 63 106 0 q 108 264 106 125 q 113 528 113 383 q 111 717 113 657 l 110 924 q 125 957 110 943 q 164 971 140 971 q 203 956 189 971 q 218 919 218 942 l 219 596 q 454 754 326 667 l 485 775 q 732 953 653 892 q 765 964 747 964 z "},"Ķ":{"ha":843,"x_min":106,"x_max":818,"o":"m 765 964 q 802 949 786 964 q 818 911 818 933 q 800 874 818 888 q 588 724 717 807 q 521 681 543 696 q 356 574 500 667 q 263 514 283 528 l 326 456 q 494 304 403 383 q 624 199 572 238 q 768 93 675 160 q 789 50 789 79 q 774 13 789 26 q 738 -1 758 -1 q 707 8 718 -1 q 435 225 538 139 q 218 425 324 318 q 215 282 218 374 q 213 51 213 138 q 198 13 213 26 q 158 0 183 0 q 106 63 106 0 q 108 264 106 125 q 113 528 113 383 q 111 717 113 657 l 110 924 q 125 957 110 943 q 164 971 140 971 q 203 956 189 971 q 218 919 218 942 l 219 596 q 454 754 326 667 l 485 775 q 732 953 653 892 q 765 964 747 964 m 425 -100 q 482 -124 458 -100 q 506 -181 506 -147 q 474 -279 506 -228 q 386 -376 443 -331 q 363 -386 376 -386 q 338 -376 350 -386 q 326 -353 326 -367 q 332 -336 326 -344 l 353 -312 q 404 -250 393 -269 q 361 -227 379 -247 q 343 -181 343 -207 q 367 -124 343 -147 q 425 -100 392 -100 z "},"L":{"ha":731,"x_min":85,"x_max":696,"o":"m 360 -1 q 178 24 235 -1 q 103 110 121 49 q 85 304 85 172 q 99 600 85 456 q 144 933 114 744 q 163 965 147 953 q 201 976 178 976 q 251 931 251 976 q 250 917 251 921 q 201 563 214 681 q 188 301 188 444 q 198 169 188 210 q 242 111 208 128 q 350 94 275 94 q 487 103 428 94 q 639 131 546 111 q 653 132 644 132 q 685 118 675 132 q 696 83 696 104 q 682 49 696 61 q 639 29 668 36 q 360 -1 510 -1 z "},"Ĺ":{"ha":731,"x_min":85,"x_max":696,"o":"m 360 -1 q 178 24 235 -1 q 103 110 121 49 q 85 304 85 172 q 99 600 85 456 q 144 933 114 744 q 163 965 147 953 q 201 976 178 976 q 251 931 251 976 q 250 917 251 921 q 201 563 214 681 q 188 301 188 444 q 198 169 188 210 q 242 111 208 128 q 350 94 275 94 q 487 103 428 94 q 639 131 546 111 q 653 132 644 132 q 685 118 675 132 q 696 83 696 104 q 682 49 696 61 q 639 29 668 36 q 360 -1 510 -1 m 168 1051 q 142 1063 153 1051 q 132 1089 132 1074 q 151 1129 132 1111 l 264 1247 q 292 1273 281 1265 q 315 1281 303 1281 q 344 1268 332 1281 q 356 1238 356 1256 q 332 1193 356 1217 l 210 1074 q 168 1051 188 1051 z "},"Ľ":{"ha":731,"x_min":85,"x_max":696,"o":"m 360 -1 q 178 24 235 -1 q 103 110 121 49 q 85 304 85 172 q 99 600 85 456 q 144 933 114 744 q 163 965 147 953 q 201 976 178 976 q 251 931 251 976 q 250 917 251 921 q 201 563 214 681 q 188 301 188 444 q 198 169 188 210 q 242 111 208 128 q 350 94 275 94 q 487 103 428 94 q 639 131 546 111 q 653 132 644 132 q 685 118 675 132 q 696 83 696 104 q 682 49 696 61 q 639 29 668 36 q 360 -1 510 -1 m 544 985 q 601 960 578 985 q 625 903 625 936 q 506 708 625 817 q 482 699 493 699 q 457 708 467 699 q 447 732 447 718 q 456 753 447 743 q 487 784 461 758 q 525 833 513 810 q 481 856 500 833 q 463 904 463 878 q 487 961 463 938 q 544 985 511 985 z "},"Ļ":{"ha":731,"x_min":85,"x_max":696,"o":"m 360 -1 q 178 24 235 -1 q 103 110 121 49 q 85 304 85 172 q 99 600 85 456 q 144 933 114 744 q 163 965 147 953 q 201 976 178 976 q 251 931 251 976 q 250 917 251 921 q 201 563 214 681 q 188 301 188 444 q 198 169 188 210 q 242 111 208 128 q 350 94 275 94 q 487 103 428 94 q 639 131 546 111 q 653 132 644 132 q 685 118 675 132 q 696 83 696 104 q 682 49 696 61 q 639 29 668 36 q 360 -1 510 -1 m 369 -100 q 426 -124 403 -100 q 450 -181 450 -147 q 419 -279 450 -228 q 331 -376 388 -331 q 307 -386 321 -386 q 283 -376 294 -386 q 271 -353 271 -367 q 276 -336 271 -344 l 297 -312 q 349 -250 338 -269 q 306 -227 324 -247 q 288 -181 288 -207 q 312 -124 288 -147 q 369 -100 336 -100 z "},"Ŀ":{"ha":731,"x_min":85,"x_max":696,"o":"m 360 -1 q 178 24 235 -1 q 103 110 121 49 q 85 304 85 172 q 99 600 85 456 q 144 933 114 744 q 163 965 147 953 q 201 976 178 976 q 251 931 251 976 q 250 917 251 921 q 201 563 214 681 q 188 301 188 444 q 198 169 188 210 q 242 111 208 128 q 350 94 275 94 q 487 103 428 94 q 639 131 546 111 q 653 132 644 132 q 685 118 675 132 q 696 83 696 104 q 682 49 696 61 q 639 29 668 36 q 360 -1 510 -1 m 438 363 q 358 394 392 363 q 325 472 325 426 q 359 551 325 519 q 438 583 393 583 q 515 551 483 583 q 547 472 547 519 q 515 392 547 422 q 438 363 482 363 z "},"Ḷ":{"ha":731,"x_min":85,"x_max":696,"o":"m 360 -1 q 178 24 235 -1 q 103 110 121 49 q 85 304 85 172 q 99 600 85 456 q 144 933 114 744 q 163 965 147 953 q 201 976 178 976 q 251 931 251 976 q 250 917 251 921 q 201 563 214 681 q 188 301 188 444 q 198 169 188 210 q 242 111 208 128 q 350 94 275 94 q 487 103 428 94 q 639 131 546 111 q 653 132 644 132 q 685 118 675 132 q 696 83 696 104 q 682 49 696 61 q 639 29 668 36 q 360 -1 510 -1 m 365 -249 q 312 -226 333 -249 q 290 -172 290 -204 q 312 -121 290 -142 q 365 -100 333 -100 q 419 -121 397 -100 q 440 -172 440 -142 q 419 -226 440 -204 q 365 -249 397 -249 z "},"Ḹ":{"ha":731,"x_min":-46,"x_max":696,"o":"m 360 -1 q 178 24 235 -1 q 103 110 121 49 q 85 304 85 172 q 99 600 85 456 q 144 933 114 744 q 163 965 147 953 q 201 976 178 976 q 251 931 251 976 q 250 917 251 921 q 201 563 214 681 q 188 301 188 444 q 198 169 188 210 q 242 111 208 128 q 350 94 275 94 q 487 103 428 94 q 639 131 546 111 q 653 132 644 132 q 685 118 675 132 q 696 83 696 104 q 682 49 696 61 q 639 29 668 36 q 360 -1 510 -1 m 365 -249 q 312 -226 333 -249 q 290 -172 290 -204 q 312 -121 290 -142 q 365 -100 333 -100 q 419 -121 397 -100 q 440 -172 440 -142 q 419 -226 440 -204 q 365 -249 397 -249 m -7 1075 q -35 1083 -25 1072 q -46 1115 -46 1094 q -36 1145 -46 1133 q -8 1160 -26 1157 q 236 1179 100 1178 l 317 1179 l 426 1179 q 460 1167 447 1179 q 472 1133 472 1154 q 428 1094 472 1094 q 383 1096 403 1094 l 232 1097 q 70 1087 136 1097 q -7 1075 4 1076 z "},"Ḻ":{"ha":731,"x_min":85,"x_max":696,"o":"m 360 -1 q 178 24 235 -1 q 103 110 121 49 q 85 304 85 172 q 99 600 85 456 q 144 933 114 744 q 163 965 147 953 q 201 976 178 976 q 251 931 251 976 q 250 917 251 921 q 201 563 214 681 q 188 301 188 444 q 198 169 188 210 q 242 111 208 128 q 350 94 275 94 q 487 103 428 94 q 639 131 546 111 q 653 132 644 132 q 685 118 675 132 q 696 83 696 104 q 682 49 696 61 q 639 29 668 36 q 360 -1 510 -1 m 178 -226 q 153 -215 164 -226 q 142 -183 142 -203 q 151 -155 142 -167 q 175 -142 160 -143 q 428 -129 275 -129 q 531 -132 475 -129 q 571 -133 547 -133 q 603 -145 590 -133 q 617 -176 617 -157 q 604 -206 617 -196 q 572 -217 592 -217 l 535 -215 q 426 -211 460 -211 q 229 -222 356 -211 q 178 -226 193 -226 z "},"Ł":{"ha":731,"x_min":4,"x_max":696,"o":"m 639 131 q 653 132 644 132 q 685 118 675 132 q 696 83 696 104 q 682 49 696 61 q 639 29 668 36 q 360 -1 510 -1 q 178 24 235 -1 q 103 110 121 49 q 85 304 85 172 l 85 356 q 51 350 63 350 q 17 363 29 350 q 4 393 4 378 q 38 447 4 421 l 90 489 q 144 933 103 679 q 163 965 147 953 q 201 976 178 976 q 251 931 251 976 q 250 917 251 921 q 244 882 247 900 q 239 844 242 864 q 203 579 210 650 l 376 718 q 414 731 393 731 q 453 714 439 731 q 464 683 464 699 q 433 629 464 653 l 190 433 q 188 301 188 350 q 198 169 188 210 q 242 111 208 128 q 350 94 275 94 q 487 103 428 94 q 639 131 546 111 z "},"M":{"ha":1107,"x_min":111,"x_max":996,"o":"m 993 321 q 996 44 996 143 q 983 6 996 21 q 943 -8 969 -8 q 903 6 918 -8 q 889 43 889 21 q 888 443 888 176 q 828 864 888 864 q 763 801 803 864 q 694 674 722 738 q 650 546 668 613 q 613 392 632 479 q 553 350 604 350 q 515 359 529 350 q 493 389 500 368 l 474 458 q 413 667 438 603 q 346 803 385 739 q 285 867 307 867 q 240 749 254 867 q 221 454 225 632 q 219 261 219 392 l 219 43 q 205 10 219 22 q 163 -1 190 -1 q 122 13 132 -1 q 111 53 111 28 q 114 271 111 132 l 115 456 q 153 860 115 731 q 272 989 190 989 q 435 850 365 989 q 551 515 506 711 q 622 739 576 629 q 726 919 668 849 q 846 989 785 989 q 933 926 901 989 q 976 747 964 864 q 992 446 989 629 l 993 321 z "},"Ṃ":{"ha":1107,"x_min":111,"x_max":996,"o":"m 993 321 q 996 44 996 143 q 983 6 996 21 q 943 -8 969 -8 q 903 6 918 -8 q 889 43 889 21 q 888 443 888 176 q 828 864 888 864 q 763 801 803 864 q 694 674 722 738 q 650 546 668 613 q 613 392 632 479 q 553 350 604 350 q 515 359 529 350 q 493 389 500 368 l 474 458 q 413 667 438 603 q 346 803 385 739 q 285 867 307 867 q 240 749 254 867 q 221 454 225 632 q 219 261 219 392 l 219 43 q 205 10 219 22 q 163 -1 190 -1 q 122 13 132 -1 q 111 53 111 28 q 114 271 111 132 l 115 456 q 153 860 115 731 q 272 989 190 989 q 435 850 365 989 q 551 515 506 711 q 622 739 576 629 q 726 919 668 849 q 846 989 785 989 q 933 926 901 989 q 976 747 964 864 q 992 446 989 629 l 993 321 m 563 -249 q 509 -226 531 -249 q 488 -172 488 -204 q 509 -121 488 -142 q 563 -100 531 -100 q 616 -121 594 -100 q 638 -172 638 -142 q 616 -226 638 -204 q 563 -249 594 -249 z "},"N":{"ha":1025,"x_min":111,"x_max":914,"o":"m 858 990 q 900 976 886 990 q 914 935 914 961 l 913 428 q 902 171 913 260 q 872 49 892 82 q 817 17 851 17 q 729 60 775 17 q 626 188 683 104 q 461 443 569 272 q 308 684 360 604 q 218 815 256 764 q 219 664 218 721 l 221 479 l 222 58 q 207 27 222 40 q 168 14 192 14 q 130 27 146 14 q 114 58 114 40 l 114 481 q 113 686 114 613 l 111 893 q 125 959 111 938 q 174 981 139 981 q 249 947 211 981 q 326 856 286 914 q 442 675 365 797 q 515 556 431 694 q 790 149 688 281 q 804 429 804 250 l 804 942 q 819 977 804 964 q 858 990 833 990 z "},"Ń":{"ha":1025,"x_min":111,"x_max":914,"o":"m 858 990 q 900 976 886 990 q 914 935 914 961 l 913 428 q 902 171 913 260 q 872 49 892 82 q 817 17 851 17 q 729 60 775 17 q 626 188 683 104 q 461 443 569 272 q 308 684 360 604 q 218 815 256 764 q 219 664 218 721 l 221 479 l 222 58 q 207 27 222 40 q 168 14 192 14 q 130 27 146 14 q 114 58 114 40 l 114 481 q 113 686 114 613 l 111 893 q 125 959 111 938 q 174 981 139 981 q 249 947 211 981 q 326 856 286 914 q 442 675 365 797 q 515 556 431 694 q 790 149 688 281 q 804 429 804 250 l 804 942 q 819 977 804 964 q 858 990 833 990 m 469 1051 q 444 1063 454 1051 q 433 1089 433 1074 q 453 1129 433 1111 l 565 1247 q 593 1273 582 1265 q 617 1281 604 1281 q 645 1268 633 1281 q 657 1238 657 1256 q 633 1193 657 1217 l 511 1074 q 469 1051 489 1051 z "},"Ň":{"ha":1025,"x_min":111,"x_max":914,"o":"m 858 990 q 900 976 886 990 q 914 935 914 961 l 913 428 q 902 171 913 260 q 872 49 892 82 q 817 17 851 17 q 729 60 775 17 q 626 188 683 104 q 461 443 569 272 q 308 684 360 604 q 218 815 256 764 q 219 664 218 721 l 221 479 l 222 58 q 207 27 222 40 q 168 14 192 14 q 130 27 146 14 q 114 58 114 40 l 114 481 q 113 686 114 613 l 111 893 q 125 959 111 938 q 174 981 139 981 q 249 947 211 981 q 326 856 286 914 q 442 675 365 797 q 515 556 431 694 q 790 149 688 281 q 804 429 804 250 l 804 942 q 819 977 804 964 q 858 990 833 990 m 686 1310 q 713 1298 701 1310 q 725 1271 725 1286 q 722 1257 725 1264 q 713 1243 718 1250 q 606 1109 649 1154 q 518 1064 563 1064 q 452 1099 490 1064 q 361 1192 414 1133 l 324 1232 q 310 1263 310 1246 q 323 1290 310 1278 q 351 1303 336 1303 q 394 1275 371 1303 q 522 1150 499 1150 q 563 1184 533 1150 q 650 1293 592 1218 q 686 1310 663 1310 z "},"Ņ":{"ha":1025,"x_min":111,"x_max":914,"o":"m 858 990 q 900 976 886 990 q 914 935 914 961 l 913 428 q 902 171 913 260 q 872 49 892 82 q 817 17 851 17 q 729 60 775 17 q 626 188 683 104 q 461 443 569 272 q 308 684 360 604 q 218 815 256 764 q 219 664 218 721 l 221 479 l 222 58 q 207 27 222 40 q 168 14 192 14 q 130 27 146 14 q 114 58 114 40 l 114 481 q 113 686 114 613 l 111 893 q 125 959 111 938 q 174 981 139 981 q 249 947 211 981 q 326 856 286 914 q 442 675 365 797 q 515 556 431 694 q 790 149 688 281 q 804 429 804 250 l 804 942 q 819 977 804 964 q 858 990 833 990 m 525 -100 q 582 -124 558 -100 q 606 -181 606 -147 q 574 -279 606 -228 q 486 -376 543 -331 q 463 -386 476 -386 q 438 -376 450 -386 q 426 -353 426 -367 q 432 -336 426 -344 l 453 -312 q 504 -250 493 -269 q 461 -227 479 -247 q 443 -181 443 -207 q 467 -124 443 -147 q 525 -100 492 -100 z "},"Ṅ":{"ha":1025,"x_min":111,"x_max":914,"o":"m 858 990 q 900 976 886 990 q 914 935 914 961 l 913 428 q 902 171 913 260 q 872 49 892 82 q 817 17 851 17 q 729 60 775 17 q 626 188 683 104 q 461 443 569 272 q 308 684 360 604 q 218 815 256 764 q 219 664 218 721 l 221 479 l 222 58 q 207 27 222 40 q 168 14 192 14 q 130 27 146 14 q 114 58 114 40 l 114 481 q 113 686 114 613 l 111 893 q 125 959 111 938 q 174 981 139 981 q 249 947 211 981 q 326 856 286 914 q 442 675 365 797 q 515 556 431 694 q 790 149 688 281 q 804 429 804 250 l 804 942 q 819 977 804 964 q 858 990 833 990 m 521 1078 q 467 1100 489 1078 q 446 1154 446 1122 q 467 1206 446 1185 q 521 1226 489 1226 q 574 1206 553 1226 q 596 1154 596 1185 q 574 1100 596 1122 q 521 1078 553 1078 z "},"Ṇ":{"ha":1025,"x_min":111,"x_max":914,"o":"m 858 990 q 900 976 886 990 q 914 935 914 961 l 913 428 q 902 171 913 260 q 872 49 892 82 q 817 17 851 17 q 729 60 775 17 q 626 188 683 104 q 461 443 569 272 q 308 684 360 604 q 218 815 256 764 q 219 664 218 721 l 221 479 l 222 58 q 207 27 222 40 q 168 14 192 14 q 130 27 146 14 q 114 58 114 40 l 114 481 q 113 686 114 613 l 111 893 q 125 959 111 938 q 174 981 139 981 q 249 947 211 981 q 326 856 286 914 q 442 675 365 797 q 515 556 431 694 q 790 149 688 281 q 804 429 804 250 l 804 942 q 819 977 804 964 q 858 990 833 990 m 521 -249 q 467 -226 489 -249 q 446 -172 446 -204 q 467 -121 446 -142 q 521 -100 489 -100 q 574 -121 553 -100 q 596 -172 596 -142 q 574 -226 596 -204 q 521 -249 553 -249 z "},"Ŋ":{"ha":1025,"x_min":111,"x_max":914,"o":"m 913 428 q 906 203 913 297 l 901 -4 q 834 -261 899 -179 q 661 -343 769 -343 q 560 -319 607 -343 q 487 -253 514 -296 q 460 -158 460 -211 q 515 -101 460 -101 q 553 -114 540 -101 q 567 -147 567 -126 q 595 -228 567 -203 q 667 -253 624 -253 q 759 -190 731 -253 q 792 -4 788 -128 l 793 21 q 711 79 756 32 q 613 206 667 126 q 461 443 558 286 q 308 684 360 604 q 218 815 256 764 q 219 664 218 721 l 221 479 l 222 58 q 207 27 222 40 q 168 14 192 14 q 130 27 146 14 q 114 58 114 40 l 114 481 q 113 686 114 613 l 111 893 q 125 959 111 938 q 174 981 139 981 q 249 947 211 981 q 326 856 286 914 q 442 675 365 797 q 515 556 431 694 q 790 149 688 281 q 799 236 797 197 l 804 390 l 804 429 l 804 942 q 819 977 804 964 q 858 990 833 990 q 900 976 886 990 q 914 935 914 961 l 913 428 z "},"Ṉ":{"ha":1025,"x_min":111,"x_max":914,"o":"m 858 990 q 900 976 886 990 q 914 935 914 961 l 913 428 q 902 171 913 260 q 872 49 892 82 q 817 17 851 17 q 729 60 775 17 q 626 188 683 104 q 461 443 569 272 q 308 684 360 604 q 218 815 256 764 q 219 664 218 721 l 221 479 l 222 58 q 207 27 222 40 q 168 14 192 14 q 130 27 146 14 q 114 58 114 40 l 114 481 q 113 686 114 613 l 111 893 q 125 959 111 938 q 174 981 139 981 q 249 947 211 981 q 326 856 286 914 q 442 675 365 797 q 515 556 431 694 q 790 149 688 281 q 804 429 804 250 l 804 942 q 819 977 804 964 q 858 990 833 990 m 333 -226 q 308 -215 319 -226 q 297 -183 297 -203 q 306 -155 297 -167 q 331 -142 315 -143 q 583 -129 431 -129 q 686 -132 631 -129 q 726 -133 703 -133 q 759 -145 746 -133 q 772 -176 772 -157 q 760 -206 772 -196 q 728 -217 747 -217 l 690 -215 q 582 -211 615 -211 q 385 -222 511 -211 q 333 -226 349 -226 z "},"Ñ":{"ha":1025,"x_min":111,"x_max":914,"o":"m 858 990 q 900 976 886 990 q 914 935 914 961 l 913 428 q 902 171 913 260 q 872 49 892 82 q 817 17 851 17 q 729 60 775 17 q 626 188 683 104 q 461 443 569 272 q 308 684 360 604 q 218 815 256 764 q 219 664 218 721 l 221 479 l 222 58 q 207 27 222 40 q 168 14 192 14 q 130 27 146 14 q 114 58 114 40 l 114 481 q 113 686 114 613 l 111 893 q 125 959 111 938 q 174 981 139 981 q 249 947 211 981 q 326 856 286 914 q 442 675 365 797 q 515 556 431 694 q 790 149 688 281 q 804 429 804 250 l 804 942 q 819 977 804 964 q 858 990 833 990 m 308 1075 q 296 1104 296 1090 q 307 1133 296 1119 q 367 1190 340 1174 q 429 1207 393 1207 q 551 1176 493 1207 q 577 1163 560 1172 q 606 1150 594 1154 q 628 1146 618 1146 q 648 1152 639 1146 q 668 1169 657 1158 q 703 1190 688 1190 q 731 1176 718 1190 q 744 1147 744 1163 q 733 1118 744 1132 q 678 1077 704 1090 q 625 1064 653 1064 q 587 1070 606 1064 q 544 1089 568 1076 q 514 1103 539 1092 q 480 1117 507 1106 q 435 1129 453 1129 q 411 1121 422 1129 q 390 1101 400 1113 q 376 1086 379 1090 q 335 1064 354 1064 q 308 1075 319 1064 z "},"O":{"ha":1100,"x_min":75,"x_max":1025,"o":"m 540 11 q 306 62 411 11 q 138 217 200 113 q 75 476 75 322 q 132 738 75 622 q 293 917 189 853 q 533 982 397 982 q 783 916 671 982 q 960 733 896 850 q 1025 469 1025 617 q 958 217 1025 321 q 781 63 892 114 q 540 11 671 11 m 547 110 q 725 148 640 110 q 864 269 810 186 q 918 475 918 351 q 869 685 918 592 q 734 831 821 778 q 539 883 647 883 q 352 833 433 883 q 226 692 271 782 q 181 483 181 601 q 235 267 181 351 q 372 147 289 183 q 547 110 456 110 z "},"Ó":{"ha":1100,"x_min":75,"x_max":1025,"o":"m 540 11 q 306 62 411 11 q 138 217 200 113 q 75 476 75 322 q 132 738 75 622 q 293 917 189 853 q 533 982 397 982 q 783 916 671 982 q 960 733 896 850 q 1025 469 1025 617 q 958 217 1025 321 q 781 63 892 114 q 540 11 671 11 m 547 110 q 725 148 640 110 q 864 269 810 186 q 918 475 918 351 q 869 685 918 592 q 734 831 821 778 q 539 883 647 883 q 352 833 433 883 q 226 692 271 782 q 181 483 181 601 q 235 267 181 351 q 372 147 289 183 q 547 110 456 110 m 496 1051 q 470 1063 481 1051 q 460 1089 460 1074 q 479 1129 460 1111 l 592 1247 q 619 1273 608 1265 q 643 1281 631 1281 q 672 1268 660 1281 q 683 1238 683 1256 q 660 1193 683 1217 l 538 1074 q 496 1051 515 1051 z "},"Ŏ":{"ha":1100,"x_min":75,"x_max":1025,"o":"m 540 11 q 306 62 411 11 q 138 217 200 113 q 75 476 75 322 q 132 738 75 622 q 293 917 189 853 q 533 982 397 982 q 783 916 671 982 q 960 733 896 850 q 1025 469 1025 617 q 958 217 1025 321 q 781 63 892 114 q 540 11 671 11 m 547 110 q 725 148 640 110 q 864 269 810 186 q 918 475 918 351 q 869 685 918 592 q 734 831 821 778 q 539 883 647 883 q 352 833 433 883 q 226 692 271 782 q 181 483 181 601 q 235 267 181 351 q 372 147 289 183 q 547 110 456 110 m 547 1064 q 435 1089 485 1064 q 356 1156 385 1114 q 328 1246 328 1197 q 340 1273 328 1261 q 367 1285 351 1285 q 394 1278 382 1285 q 408 1258 407 1272 q 450 1170 411 1203 q 547 1138 489 1138 q 637 1172 599 1138 q 676 1254 675 1206 q 690 1280 676 1271 q 719 1289 703 1289 q 748 1278 736 1289 q 760 1250 760 1267 q 731 1158 760 1201 q 653 1090 701 1115 q 547 1064 604 1064 z "},"Ǒ":{"ha":1100,"x_min":75,"x_max":1025,"o":"m 540 11 q 306 62 411 11 q 138 217 200 113 q 75 476 75 322 q 132 738 75 622 q 293 917 189 853 q 533 982 397 982 q 783 916 671 982 q 960 733 896 850 q 1025 469 1025 617 q 958 217 1025 321 q 781 63 892 114 q 540 11 671 11 m 547 110 q 725 148 640 110 q 864 269 810 186 q 918 475 918 351 q 869 685 918 592 q 734 831 821 778 q 539 883 647 883 q 352 833 433 883 q 226 692 271 782 q 181 483 181 601 q 235 267 181 351 q 372 147 289 183 q 547 110 456 110 m 713 1310 q 740 1298 728 1310 q 751 1271 751 1286 q 748 1257 751 1264 q 739 1243 744 1250 q 632 1109 675 1154 q 544 1064 589 1064 q 478 1099 517 1064 q 388 1192 440 1133 l 350 1232 q 336 1263 336 1246 q 349 1290 336 1278 q 378 1303 363 1303 q 421 1275 397 1303 q 549 1150 525 1150 q 589 1184 560 1150 q 676 1293 618 1218 q 713 1310 689 1310 z "},"Ô":{"ha":1100,"x_min":75,"x_max":1025,"o":"m 540 11 q 306 62 411 11 q 138 217 200 113 q 75 476 75 322 q 132 738 75 622 q 293 917 189 853 q 533 982 397 982 q 783 916 671 982 q 960 733 896 850 q 1025 469 1025 617 q 958 217 1025 321 q 781 63 892 114 q 540 11 671 11 m 547 110 q 725 148 640 110 q 864 269 810 186 q 918 475 918 351 q 869 685 918 592 q 734 831 821 778 q 539 883 647 883 q 352 833 433 883 q 226 692 271 782 q 181 483 181 601 q 235 267 181 351 q 372 147 289 183 q 547 110 456 110 m 713 1060 q 676 1078 689 1060 q 595 1181 629 1142 q 549 1219 561 1219 q 508 1190 538 1219 q 421 1094 479 1161 q 378 1067 397 1067 q 349 1079 363 1067 q 336 1107 336 1092 q 350 1139 336 1125 q 385 1176 372 1161 q 477 1270 438 1235 q 544 1306 517 1306 q 615 1273 581 1306 q 701 1174 650 1240 l 739 1126 q 751 1099 751 1114 q 740 1072 751 1083 q 713 1060 728 1060 z "},"Ố":{"ha":1100,"x_min":75,"x_max":1025,"o":"m 540 11 q 306 62 411 11 q 138 217 200 113 q 75 476 75 322 q 132 738 75 622 q 293 917 189 853 q 533 982 397 982 q 783 916 671 982 q 960 733 896 850 q 1025 469 1025 617 q 958 217 1025 321 q 781 63 892 114 q 540 11 671 11 m 547 110 q 725 148 640 110 q 864 269 810 186 q 918 475 918 351 q 869 685 918 592 q 734 831 821 778 q 539 883 647 883 q 352 833 433 883 q 226 692 271 782 q 181 483 181 601 q 235 267 181 351 q 372 147 289 183 q 547 110 456 110 m 722 1257 q 696 1268 707 1257 q 685 1294 685 1279 q 703 1335 685 1313 l 771 1406 q 797 1430 786 1422 q 821 1438 808 1438 q 851 1426 839 1438 q 863 1396 863 1414 q 856 1373 863 1383 q 839 1351 850 1363 l 763 1278 q 722 1257 742 1257 m 715 1060 q 679 1078 692 1060 q 598 1181 632 1142 q 551 1219 564 1219 q 511 1190 540 1219 q 424 1094 482 1161 q 381 1067 400 1067 q 352 1079 365 1067 q 339 1107 339 1092 q 353 1139 339 1125 q 388 1176 375 1161 q 480 1270 440 1235 q 547 1306 519 1306 q 618 1273 583 1306 q 704 1174 653 1240 l 742 1126 q 754 1099 754 1114 q 742 1072 754 1083 q 715 1060 731 1060 z "},"Ộ":{"ha":1100,"x_min":75,"x_max":1025,"o":"m 540 11 q 306 62 411 11 q 138 217 200 113 q 75 476 75 322 q 132 738 75 622 q 293 917 189 853 q 533 982 397 982 q 783 916 671 982 q 960 733 896 850 q 1025 469 1025 617 q 958 217 1025 321 q 781 63 892 114 q 540 11 671 11 m 547 110 q 725 148 640 110 q 864 269 810 186 q 918 475 918 351 q 869 685 918 592 q 734 831 821 778 q 539 883 647 883 q 352 833 433 883 q 226 692 271 782 q 181 483 181 601 q 235 267 181 351 q 372 147 289 183 q 547 110 456 110 m 547 -249 q 494 -226 515 -249 q 472 -172 472 -204 q 494 -121 472 -142 q 547 -100 515 -100 q 601 -121 579 -100 q 622 -172 622 -142 q 601 -226 622 -204 q 547 -249 579 -249 m 713 1060 q 676 1078 689 1060 q 595 1181 629 1142 q 549 1219 561 1219 q 508 1190 538 1219 q 421 1094 479 1161 q 378 1067 397 1067 q 349 1079 363 1067 q 336 1107 336 1092 q 350 1139 336 1125 q 385 1176 372 1161 q 477 1270 438 1235 q 544 1306 517 1306 q 615 1273 581 1306 q 701 1174 650 1240 l 739 1126 q 751 1099 751 1114 q 740 1072 751 1083 q 713 1060 728 1060 z "},"Ồ":{"ha":1100,"x_min":75,"x_max":1025,"o":"m 540 11 q 306 62 411 11 q 138 217 200 113 q 75 476 75 322 q 132 738 75 622 q 293 917 189 853 q 533 982 397 982 q 783 916 671 982 q 960 733 896 850 q 1025 469 1025 617 q 958 217 1025 321 q 781 63 892 114 q 540 11 671 11 m 547 110 q 725 148 640 110 q 864 269 810 186 q 918 475 918 351 q 869 685 918 592 q 734 831 821 778 q 539 883 647 883 q 352 833 433 883 q 226 692 271 782 q 181 483 181 601 q 235 267 181 351 q 372 147 289 183 q 547 110 456 110 m 778 1257 q 738 1278 758 1257 l 661 1351 q 644 1373 650 1363 q 638 1396 638 1383 q 649 1426 638 1414 q 679 1438 661 1438 q 701 1431 690 1438 q 729 1406 711 1424 l 797 1335 q 815 1294 815 1317 q 804 1268 815 1279 q 778 1257 793 1257 m 715 1060 q 679 1078 692 1060 q 598 1181 632 1142 q 551 1219 564 1219 q 511 1190 540 1219 q 424 1094 482 1161 q 381 1067 400 1067 q 352 1079 365 1067 q 339 1107 339 1092 q 353 1139 339 1125 q 388 1176 375 1161 q 480 1270 440 1235 q 547 1306 519 1306 q 618 1273 583 1306 q 704 1174 653 1240 l 742 1126 q 754 1099 754 1114 q 742 1072 754 1083 q 715 1060 731 1060 z "},"Ổ":{"ha":1100,"x_min":75,"x_max":1025,"o":"m 540 11 q 306 62 411 11 q 138 217 200 113 q 75 476 75 322 q 132 738 75 622 q 293 917 189 853 q 533 982 397 982 q 783 916 671 982 q 960 733 896 850 q 1025 469 1025 617 q 958 217 1025 321 q 781 63 892 114 q 540 11 671 11 m 547 110 q 725 148 640 110 q 864 269 810 186 q 918 475 918 351 q 869 685 918 592 q 734 831 821 778 q 539 883 647 883 q 352 833 433 883 q 226 692 271 782 q 181 483 181 601 q 235 267 181 351 q 372 147 289 183 q 547 110 456 110 m 765 1253 q 744 1261 753 1253 q 735 1282 735 1269 l 735 1321 q 743 1342 735 1332 q 768 1365 751 1351 q 793 1389 785 1379 q 801 1408 801 1399 q 753 1442 801 1442 q 716 1432 731 1442 q 696 1407 701 1422 q 688 1394 694 1399 q 672 1389 681 1389 q 646 1418 646 1389 q 678 1474 646 1450 q 760 1497 711 1497 q 835 1475 807 1497 q 864 1414 864 1453 q 853 1379 864 1394 q 822 1347 842 1364 q 810 1335 819 1344 q 800 1318 800 1325 l 800 1283 q 790 1260 800 1268 q 765 1253 781 1253 m 715 1060 q 679 1078 692 1060 q 598 1181 632 1142 q 551 1219 564 1219 q 511 1190 540 1219 q 424 1094 482 1161 q 381 1067 400 1067 q 352 1079 365 1067 q 339 1107 339 1092 q 353 1139 339 1125 q 388 1176 375 1161 q 480 1270 440 1235 q 547 1306 519 1306 q 618 1273 583 1306 q 704 1174 653 1240 l 742 1126 q 754 1099 754 1114 q 742 1072 754 1083 q 715 1060 731 1060 z "},"Ỗ":{"ha":1100,"x_min":75,"x_max":1025,"o":"m 540 11 q 306 62 411 11 q 138 217 200 113 q 75 476 75 322 q 132 738 75 622 q 293 917 189 853 q 533 982 397 982 q 783 916 671 982 q 960 733 896 850 q 1025 469 1025 617 q 958 217 1025 321 q 781 63 892 114 q 540 11 671 11 m 547 110 q 725 148 640 110 q 864 269 810 186 q 918 475 918 351 q 869 685 918 592 q 734 831 821 778 q 539 883 647 883 q 352 833 433 883 q 226 692 271 782 q 181 483 181 601 q 235 267 181 351 q 372 147 289 183 q 547 110 456 110 m 364 1350 q 338 1360 347 1350 q 326 1385 326 1371 q 339 1413 326 1400 q 397 1465 372 1450 q 458 1481 422 1481 q 513 1473 486 1481 q 575 1450 540 1465 q 617 1431 594 1440 q 654 1422 640 1422 q 676 1428 667 1422 q 699 1444 686 1433 q 715 1457 704 1449 q 735 1465 725 1465 q 763 1453 751 1465 q 774 1426 774 1440 q 761 1400 774 1411 q 707 1362 732 1374 q 654 1350 682 1350 q 613 1357 632 1350 q 574 1373 593 1364 q 543 1386 554 1382 q 464 1410 493 1410 q 435 1400 449 1410 q 403 1371 422 1390 q 364 1350 382 1350 m 715 1060 q 679 1078 692 1060 q 598 1181 632 1142 q 551 1219 564 1219 q 511 1190 540 1219 q 424 1094 482 1161 q 381 1067 400 1067 q 352 1079 365 1067 q 339 1107 339 1092 q 353 1139 339 1125 q 388 1176 375 1161 q 480 1270 440 1235 q 547 1306 519 1306 q 618 1273 583 1306 q 704 1174 653 1240 l 742 1126 q 754 1099 754 1114 q 742 1072 754 1083 q 715 1060 731 1060 z "},"Ö":{"ha":1100,"x_min":75,"x_max":1025,"o":"m 540 11 q 306 62 411 11 q 138 217 200 113 q 75 476 75 322 q 132 738 75 622 q 293 917 189 853 q 533 982 397 982 q 783 916 671 982 q 960 733 896 850 q 1025 469 1025 617 q 958 217 1025 321 q 781 63 892 114 q 540 11 671 11 m 547 110 q 725 148 640 110 q 864 269 810 186 q 918 475 918 351 q 869 685 918 592 q 734 831 821 778 q 539 883 647 883 q 352 833 433 883 q 226 692 271 782 q 181 483 181 601 q 235 267 181 351 q 372 147 289 183 q 547 110 456 110 m 381 1078 q 327 1100 349 1078 q 306 1154 306 1122 q 327 1206 306 1185 q 381 1226 349 1226 q 435 1206 413 1226 q 457 1154 457 1185 q 434 1101 457 1124 q 381 1078 411 1078 m 714 1078 q 660 1100 682 1078 q 639 1154 639 1122 q 660 1206 639 1185 q 714 1226 682 1226 q 767 1206 746 1226 q 789 1154 789 1185 q 767 1100 789 1122 q 714 1078 744 1078 z "},"Ọ":{"ha":1100,"x_min":75,"x_max":1025,"o":"m 540 11 q 306 62 411 11 q 138 217 200 113 q 75 476 75 322 q 132 738 75 622 q 293 917 189 853 q 533 982 397 982 q 783 916 671 982 q 960 733 896 850 q 1025 469 1025 617 q 958 217 1025 321 q 781 63 892 114 q 540 11 671 11 m 547 110 q 725 148 640 110 q 864 269 810 186 q 918 475 918 351 q 869 685 918 592 q 734 831 821 778 q 539 883 647 883 q 352 833 433 883 q 226 692 271 782 q 181 483 181 601 q 235 267 181 351 q 372 147 289 183 q 547 110 456 110 m 547 -249 q 494 -226 515 -249 q 472 -172 472 -204 q 494 -121 472 -142 q 547 -100 515 -100 q 601 -121 579 -100 q 622 -172 622 -142 q 601 -226 622 -204 q 547 -249 579 -249 z "},"Ò":{"ha":1100,"x_min":75,"x_max":1025,"o":"m 540 11 q 306 62 411 11 q 138 217 200 113 q 75 476 75 322 q 132 738 75 622 q 293 917 189 853 q 533 982 397 982 q 783 916 671 982 q 960 733 896 850 q 1025 469 1025 617 q 958 217 1025 321 q 781 63 892 114 q 540 11 671 11 m 547 110 q 725 148 640 110 q 864 269 810 186 q 918 475 918 351 q 869 685 918 592 q 734 831 821 778 q 539 883 647 883 q 352 833 433 883 q 226 692 271 782 q 181 483 181 601 q 235 267 181 351 q 372 147 289 183 q 547 110 456 110 m 618 1051 q 598 1056 607 1051 q 576 1074 589 1061 l 467 1193 q 443 1238 443 1219 q 455 1268 443 1256 q 483 1281 467 1281 q 535 1247 507 1281 l 636 1129 q 656 1089 656 1107 q 644 1063 656 1074 q 618 1051 633 1051 z "},"Ỏ":{"ha":1100,"x_min":75,"x_max":1025,"o":"m 540 11 q 306 62 411 11 q 138 217 200 113 q 75 476 75 322 q 132 738 75 622 q 293 917 189 853 q 533 982 397 982 q 783 916 671 982 q 960 733 896 850 q 1025 469 1025 617 q 958 217 1025 321 q 781 63 892 114 q 540 11 671 11 m 547 110 q 725 148 640 110 q 864 269 810 186 q 918 475 918 351 q 869 685 918 592 q 734 831 821 778 q 539 883 647 883 q 352 833 433 883 q 226 692 271 782 q 181 483 181 601 q 235 267 181 351 q 372 147 289 183 q 547 110 456 110 m 553 1054 q 522 1067 535 1054 q 510 1099 510 1079 l 510 1151 q 522 1181 510 1168 q 560 1217 533 1194 q 597 1250 583 1235 q 610 1281 610 1265 q 589 1321 610 1306 q 532 1336 568 1336 q 440 1278 474 1336 q 407 1254 428 1254 q 383 1265 394 1254 q 372 1290 372 1276 q 381 1318 372 1306 q 540 1408 433 1408 q 653 1377 613 1408 q 694 1288 694 1346 q 679 1238 694 1258 q 635 1192 664 1218 q 612 1170 622 1181 q 600 1150 601 1160 q 599 1101 599 1131 q 585 1067 599 1079 q 553 1054 572 1054 z "},"Ơ":{"ha":1138,"x_min":75,"x_max":1124,"o":"m 1124 938 q 1090 792 1124 860 q 982 689 1056 724 q 1025 469 1025 588 q 958 217 1025 321 q 781 63 892 114 q 540 11 671 11 q 306 62 411 11 q 138 217 200 113 q 75 476 75 322 q 132 738 75 622 q 293 917 189 853 q 533 982 397 982 q 774 921 665 982 q 949 753 883 860 q 1023 827 997 778 q 1049 939 1049 876 q 1086 976 1049 976 q 1114 966 1104 976 q 1124 938 1124 956 m 547 110 q 725 148 640 110 q 864 269 810 186 q 918 475 918 351 q 869 685 918 592 q 734 831 821 778 q 539 883 647 883 q 352 833 433 883 q 226 692 271 782 q 181 483 181 601 q 235 267 181 351 q 372 147 289 183 q 547 110 456 110 z "},"Ớ":{"ha":1138,"x_min":75,"x_max":1124,"o":"m 1124 938 q 1090 792 1124 860 q 982 689 1056 724 q 1025 469 1025 588 q 958 217 1025 321 q 781 63 892 114 q 540 11 671 11 q 306 62 411 11 q 138 217 200 113 q 75 476 75 322 q 132 738 75 622 q 293 917 189 853 q 533 982 397 982 q 774 921 665 982 q 949 753 883 860 q 1023 827 997 778 q 1049 939 1049 876 q 1086 976 1049 976 q 1114 966 1104 976 q 1124 938 1124 956 m 547 110 q 725 148 640 110 q 864 269 810 186 q 918 475 918 351 q 869 685 918 592 q 734 831 821 778 q 539 883 647 883 q 352 833 433 883 q 226 692 271 782 q 181 483 181 601 q 235 267 181 351 q 372 147 289 183 q 547 110 456 110 m 496 1051 q 470 1063 481 1051 q 460 1089 460 1074 q 479 1129 460 1111 l 592 1247 q 619 1273 608 1265 q 643 1281 631 1281 q 672 1268 660 1281 q 683 1238 683 1256 q 660 1193 683 1217 l 538 1074 q 496 1051 515 1051 z "},"Ợ":{"ha":1138,"x_min":75,"x_max":1124,"o":"m 1124 938 q 1090 792 1124 860 q 982 689 1056 724 q 1025 469 1025 588 q 958 217 1025 321 q 781 63 892 114 q 540 11 671 11 q 306 62 411 11 q 138 217 200 113 q 75 476 75 322 q 132 738 75 622 q 293 917 189 853 q 533 982 397 982 q 774 921 665 982 q 949 753 883 860 q 1023 827 997 778 q 1049 939 1049 876 q 1086 976 1049 976 q 1114 966 1104 976 q 1124 938 1124 956 m 547 110 q 725 148 640 110 q 864 269 810 186 q 918 475 918 351 q 869 685 918 592 q 734 831 821 778 q 539 883 647 883 q 352 833 433 883 q 226 692 271 782 q 181 483 181 601 q 235 267 181 351 q 372 147 289 183 q 547 110 456 110 m 547 -249 q 494 -226 515 -249 q 472 -172 472 -204 q 494 -121 472 -142 q 547 -100 515 -100 q 601 -121 579 -100 q 622 -172 622 -142 q 601 -226 622 -204 q 547 -249 579 -249 z "},"Ờ":{"ha":1138,"x_min":75,"x_max":1124,"o":"m 1124 938 q 1090 792 1124 860 q 982 689 1056 724 q 1025 469 1025 588 q 958 217 1025 321 q 781 63 892 114 q 540 11 671 11 q 306 62 411 11 q 138 217 200 113 q 75 476 75 322 q 132 738 75 622 q 293 917 189 853 q 533 982 397 982 q 774 921 665 982 q 949 753 883 860 q 1023 827 997 778 q 1049 939 1049 876 q 1086 976 1049 976 q 1114 966 1104 976 q 1124 938 1124 956 m 547 110 q 725 148 640 110 q 864 269 810 186 q 918 475 918 351 q 869 685 918 592 q 734 831 821 778 q 539 883 647 883 q 352 833 433 883 q 226 692 271 782 q 181 483 181 601 q 235 267 181 351 q 372 147 289 183 q 547 110 456 110 m 618 1051 q 598 1056 607 1051 q 576 1074 589 1061 l 467 1193 q 443 1238 443 1219 q 455 1268 443 1256 q 483 1281 467 1281 q 535 1247 507 1281 l 636 1129 q 656 1089 656 1107 q 644 1063 656 1074 q 618 1051 633 1051 z "},"Ở":{"ha":1138,"x_min":75,"x_max":1124,"o":"m 1124 938 q 1090 792 1124 860 q 982 689 1056 724 q 1025 469 1025 588 q 958 217 1025 321 q 781 63 892 114 q 540 11 671 11 q 306 62 411 11 q 138 217 200 113 q 75 476 75 322 q 132 738 75 622 q 293 917 189 853 q 533 982 397 982 q 774 921 665 982 q 949 753 883 860 q 1023 827 997 778 q 1049 939 1049 876 q 1086 976 1049 976 q 1114 966 1104 976 q 1124 938 1124 956 m 547 110 q 725 148 640 110 q 864 269 810 186 q 918 475 918 351 q 869 685 918 592 q 734 831 821 778 q 539 883 647 883 q 352 833 433 883 q 226 692 271 782 q 181 483 181 601 q 235 267 181 351 q 372 147 289 183 q 547 110 456 110 m 553 1054 q 522 1067 535 1054 q 510 1099 510 1079 l 510 1151 q 522 1181 510 1168 q 560 1217 533 1194 q 597 1250 583 1235 q 610 1281 610 1265 q 589 1321 610 1306 q 532 1336 568 1336 q 440 1278 474 1336 q 407 1254 428 1254 q 383 1265 394 1254 q 372 1290 372 1276 q 381 1318 372 1306 q 540 1408 433 1408 q 653 1377 613 1408 q 694 1288 694 1346 q 679 1238 694 1258 q 635 1192 664 1218 q 612 1170 622 1181 q 600 1150 601 1160 q 599 1101 599 1131 q 585 1067 599 1079 q 553 1054 572 1054 z "},"Ỡ":{"ha":1138,"x_min":75,"x_max":1124,"o":"m 1124 938 q 1090 792 1124 860 q 982 689 1056 724 q 1025 469 1025 588 q 958 217 1025 321 q 781 63 892 114 q 540 11 671 11 q 306 62 411 11 q 138 217 200 113 q 75 476 75 322 q 132 738 75 622 q 293 917 189 853 q 533 982 397 982 q 774 921 665 982 q 949 753 883 860 q 1023 827 997 778 q 1049 939 1049 876 q 1086 976 1049 976 q 1114 966 1104 976 q 1124 938 1124 956 m 547 110 q 725 148 640 110 q 864 269 810 186 q 918 475 918 351 q 869 685 918 592 q 734 831 821 778 q 539 883 647 883 q 352 833 433 883 q 226 692 271 782 q 181 483 181 601 q 235 267 181 351 q 372 147 289 183 q 547 110 456 110 m 335 1075 q 322 1104 322 1090 q 333 1133 322 1119 q 393 1190 367 1174 q 456 1207 419 1207 q 578 1176 519 1207 q 603 1163 586 1172 q 633 1150 621 1154 q 654 1146 644 1146 q 674 1152 665 1146 q 694 1169 683 1158 q 729 1190 714 1190 q 758 1176 744 1190 q 771 1147 771 1163 q 760 1118 771 1132 q 705 1077 731 1090 q 651 1064 679 1064 q 613 1070 632 1064 q 571 1089 594 1076 q 540 1103 565 1092 q 506 1117 533 1106 q 461 1129 479 1129 q 438 1121 449 1129 q 416 1101 426 1113 q 403 1086 406 1090 q 361 1064 381 1064 q 335 1075 346 1064 z "},"Ő":{"ha":1100,"x_min":75,"x_max":1025,"o":"m 540 11 q 306 62 411 11 q 138 217 200 113 q 75 476 75 322 q 132 738 75 622 q 293 917 189 853 q 533 982 397 982 q 783 916 671 982 q 960 733 896 850 q 1025 469 1025 617 q 958 217 1025 321 q 781 63 892 114 q 540 11 671 11 m 547 110 q 725 148 640 110 q 864 269 810 186 q 918 475 918 351 q 869 685 918 592 q 734 831 821 778 q 539 883 647 883 q 352 833 433 883 q 226 692 271 782 q 181 483 181 601 q 235 267 181 351 q 372 147 289 183 q 547 110 456 110 m 381 1051 q 355 1063 365 1051 q 344 1089 344 1074 q 363 1129 344 1107 l 464 1247 q 515 1281 492 1281 q 544 1268 532 1281 q 556 1238 556 1256 q 532 1193 556 1217 l 421 1072 q 381 1051 400 1051 m 590 1051 q 565 1063 575 1051 q 554 1089 554 1074 q 574 1129 554 1107 l 674 1247 q 726 1281 701 1281 q 755 1268 743 1281 q 767 1238 767 1256 q 742 1193 767 1218 l 632 1074 q 610 1056 619 1061 q 590 1051 601 1051 z "},"Ō":{"ha":1100,"x_min":75,"x_max":1025,"o":"m 540 11 q 306 62 411 11 q 138 217 200 113 q 75 476 75 322 q 132 738 75 622 q 293 917 189 853 q 533 982 397 982 q 783 916 671 982 q 960 733 896 850 q 1025 469 1025 617 q 958 217 1025 321 q 781 63 892 114 q 540 11 671 11 m 547 110 q 725 148 640 110 q 864 269 810 186 q 918 475 918 351 q 869 685 918 592 q 734 831 821 778 q 539 883 647 883 q 352 833 433 883 q 226 692 271 782 q 181 483 181 601 q 235 267 181 351 q 372 147 289 183 q 547 110 456 110 m 321 1075 q 292 1083 303 1072 q 282 1115 282 1094 q 292 1145 282 1133 q 319 1160 301 1157 q 564 1179 428 1178 l 644 1179 l 754 1179 q 788 1167 775 1179 q 800 1133 800 1154 q 756 1094 800 1094 q 711 1096 731 1094 l 560 1097 q 398 1087 464 1097 q 321 1075 332 1076 z "},"Ø":{"ha":1100,"x_min":75,"x_max":1025,"o":"m 883 838 q 988 674 950 768 q 1025 469 1025 579 q 958 217 1025 321 q 781 63 892 114 q 540 11 671 11 q 254 92 374 11 l 172 -6 q 128 -32 150 -32 q 97 -21 111 -32 q 83 7 83 -10 q 96 36 83 18 l 190 147 q 75 476 75 272 q 132 738 75 622 q 293 917 189 853 q 533 982 397 982 q 819 893 696 982 l 913 1003 q 956 1031 933 1031 q 985 1018 972 1031 q 997 989 997 1006 q 982 956 997 972 l 883 838 m 181 483 q 261 232 181 326 l 756 817 q 539 883 661 883 q 352 833 433 883 q 226 692 271 782 q 181 483 181 601 m 547 110 q 725 148 640 110 q 864 269 810 186 q 918 475 918 351 q 892 633 918 560 q 818 761 865 706 l 324 175 q 547 110 418 110 z "},"Ǿ":{"ha":1100,"x_min":75,"x_max":1025,"o":"m 883 838 q 988 674 950 768 q 1025 469 1025 579 q 958 217 1025 321 q 781 63 892 114 q 540 11 671 11 q 254 92 374 11 l 172 -6 q 128 -32 150 -32 q 97 -21 111 -32 q 83 7 83 -10 q 96 36 83 18 l 190 147 q 75 476 75 272 q 132 738 75 622 q 293 917 189 853 q 533 982 397 982 q 819 893 696 982 l 913 1003 q 956 1031 933 1031 q 985 1018 972 1031 q 997 989 997 1006 q 982 956 997 972 l 883 838 m 181 483 q 261 232 181 326 l 756 817 q 539 883 661 883 q 352 833 433 883 q 226 692 271 782 q 181 483 181 601 m 547 110 q 725 148 640 110 q 864 269 810 186 q 918 475 918 351 q 892 633 918 560 q 818 761 865 706 l 324 175 q 547 110 418 110 m 496 1051 q 470 1063 481 1051 q 460 1089 460 1074 q 479 1129 460 1111 l 592 1247 q 619 1273 608 1265 q 643 1281 631 1281 q 672 1268 660 1281 q 683 1238 683 1256 q 660 1193 683 1217 l 538 1074 q 496 1051 515 1051 z "},"Õ":{"ha":1100,"x_min":75,"x_max":1025,"o":"m 540 11 q 306 62 411 11 q 138 217 200 113 q 75 476 75 322 q 132 738 75 622 q 293 917 189 853 q 533 982 397 982 q 783 916 671 982 q 960 733 896 850 q 1025 469 1025 617 q 958 217 1025 321 q 781 63 892 114 q 540 11 671 11 m 547 110 q 725 148 640 110 q 864 269 810 186 q 918 475 918 351 q 869 685 918 592 q 734 831 821 778 q 539 883 647 883 q 352 833 433 883 q 226 692 271 782 q 181 483 181 601 q 235 267 181 351 q 372 147 289 183 q 547 110 456 110 m 335 1075 q 322 1104 322 1090 q 333 1133 322 1119 q 393 1190 367 1174 q 456 1207 419 1207 q 578 1176 519 1207 q 603 1163 586 1172 q 633 1150 621 1154 q 654 1146 644 1146 q 674 1152 665 1146 q 694 1169 683 1158 q 729 1190 714 1190 q 758 1176 744 1190 q 771 1147 771 1163 q 760 1118 771 1132 q 705 1077 731 1090 q 651 1064 679 1064 q 613 1070 632 1064 q 571 1089 594 1076 q 540 1103 565 1092 q 506 1117 533 1106 q 461 1129 479 1129 q 438 1121 449 1129 q 416 1101 426 1113 q 403 1086 406 1090 q 361 1064 381 1064 q 335 1075 346 1064 z "},"Œ":{"ha":1356,"x_min":75,"x_max":1303,"o":"m 1253 110 q 1284 100 1274 111 q 1294 71 1294 89 q 1256 28 1294 33 q 1086 21 1178 17 l 1013 25 q 785 32 832 32 q 740 41 753 32 q 726 68 726 50 q 781 107 726 107 l 792 218 q 672 72 761 131 q 456 14 582 14 q 269 64 356 14 q 128 219 182 114 q 75 483 75 325 q 125 751 75 636 q 261 928 175 867 q 456 990 347 990 q 677 915 582 990 q 807 722 772 839 l 806 761 l 803 807 q 799 879 803 840 q 771 918 771 879 q 817 960 771 960 l 906 963 q 1054 967 1047 967 q 1275 957 1164 967 q 1296 944 1289 956 q 1303 911 1303 932 q 1290 879 1303 889 q 1260 871 1276 869 q 1076 879 1129 879 l 1010 879 q 903 876 938 879 q 913 696 913 760 q 911 546 913 619 l 1054 544 q 1146 543 1090 543 q 1182 532 1169 543 q 1194 499 1194 521 q 1183 467 1194 479 q 1149 453 1171 454 q 1028 454 1115 451 l 906 456 q 888 114 900 253 l 942 110 q 1111 101 1056 101 q 1194 106 1156 101 l 1253 110 m 476 107 q 626 148 558 107 q 734 275 693 189 q 775 490 775 361 q 734 703 775 610 q 622 850 693 797 q 465 903 551 903 q 326 851 390 903 q 222 706 261 800 q 183 489 183 611 q 224 271 183 357 q 330 146 264 185 q 476 107 396 107 z "},"P":{"ha":849,"x_min":54,"x_max":807,"o":"m 415 979 q 609 940 519 979 q 753 827 699 900 q 807 658 807 754 q 760 503 807 571 q 630 400 713 436 q 442 364 547 364 q 240 407 322 364 l 236 43 q 222 4 236 18 q 182 -10 207 -10 q 141 4 156 -10 q 126 42 126 18 q 129 231 126 106 q 132 442 132 364 q 126 751 132 585 q 125 781 125 761 l 121 778 q 97 771 107 771 q 66 790 78 771 q 54 833 54 808 q 65 860 54 850 q 99 882 76 871 l 122 896 l 122 918 q 136 965 122 950 q 179 981 150 981 q 218 972 204 981 q 232 950 232 964 l 232 947 q 415 979 321 979 m 422 456 q 562 482 501 456 q 656 556 622 508 q 689 663 689 603 q 651 776 689 726 q 552 854 614 826 q 417 882 490 882 q 233 833 340 882 q 236 706 236 736 q 239 608 236 675 q 240 500 242 526 q 422 456 318 456 z "},"Þ":{"ha":876,"x_min":64,"x_max":835,"o":"m 453 897 q 638 858 550 897 q 781 747 726 819 q 835 579 835 674 q 786 422 835 490 q 653 316 738 353 q 465 279 568 279 q 278 313 369 279 l 274 40 q 257 5 274 19 q 217 -10 240 -10 q 171 5 188 -10 q 154 47 154 19 q 158 88 154 56 q 163 247 163 121 q 160 408 163 289 l 151 724 l 132 711 q 113 704 122 704 q 78 719 93 704 q 64 754 64 733 q 86 792 64 776 q 147 821 99 801 q 135 1026 140 965 q 149 1062 132 1047 q 193 1076 167 1076 q 234 1064 218 1076 q 250 1026 250 1051 q 258 861 250 965 q 453 897 367 897 m 457 376 q 587 403 528 376 q 681 477 646 429 q 715 585 715 525 q 678 695 715 646 q 578 772 642 744 q 442 799 515 799 q 264 772 354 799 l 268 699 l 272 597 q 274 546 272 565 q 276 411 274 467 q 457 376 378 376 z "},"Q":{"ha":1085,"x_min":72,"x_max":1010,"o":"m 978 119 q 996 81 996 101 q 979 42 996 58 q 940 25 963 25 q 901 40 917 25 l 825 117 q 683 44 761 69 q 518 18 604 18 q 283 78 385 18 q 127 244 182 138 q 72 486 72 350 q 138 751 72 638 q 309 926 203 865 q 535 988 415 988 q 766 925 657 988 q 942 751 875 863 q 1010 499 1010 639 q 904 192 1010 321 l 978 119 m 519 117 q 642 136 583 117 q 749 192 700 156 l 646 293 q 631 324 631 308 q 652 363 631 344 q 694 382 674 382 q 718 374 708 382 l 826 267 q 903 500 903 369 q 851 697 903 608 q 717 838 800 786 q 540 889 633 889 q 367 840 450 889 q 231 701 283 792 q 179 489 179 610 q 222 296 179 381 q 343 164 265 211 q 519 117 421 117 z "},"R":{"ha":890,"x_min":65,"x_max":808,"o":"m 765 122 q 793 81 793 106 q 779 38 793 57 q 740 18 765 18 q 716 23 729 18 q 694 33 703 28 l 233 324 q 232 42 232 222 q 218 6 232 18 q 181 -7 204 -7 q 140 8 154 -7 q 125 50 125 22 l 125 489 q 122 692 125 569 l 121 775 l 117 774 q 104 771 108 771 q 74 788 83 771 q 65 829 65 806 q 107 882 65 860 l 119 888 l 119 926 q 133 963 119 950 q 171 975 147 975 q 207 965 193 975 q 221 940 221 956 l 221 933 q 426 972 319 972 q 628 936 542 972 q 762 835 715 900 q 808 682 808 769 q 755 523 808 588 q 613 426 701 458 q 419 393 525 393 q 303 410 369 393 l 765 122 m 433 874 q 333 862 383 874 q 222 824 283 850 q 225 746 225 771 q 233 508 232 632 q 408 488 308 488 q 615 538 539 488 q 692 678 692 588 q 620 819 692 764 q 433 874 549 874 z "},"Ŕ":{"ha":890,"x_min":65,"x_max":808,"o":"m 765 122 q 793 81 793 106 q 779 38 793 57 q 740 18 765 18 q 716 23 729 18 q 694 33 703 28 l 233 324 q 232 42 232 222 q 218 6 232 18 q 181 -7 204 -7 q 140 8 154 -7 q 125 50 125 22 l 125 489 q 122 692 125 569 l 121 775 l 117 774 q 104 771 108 771 q 74 788 83 771 q 65 829 65 806 q 107 882 65 860 l 119 888 l 119 926 q 133 963 119 950 q 171 975 147 975 q 207 965 193 975 q 221 940 221 956 l 221 933 q 426 972 319 972 q 628 936 542 972 q 762 835 715 900 q 808 682 808 769 q 755 523 808 588 q 613 426 701 458 q 419 393 525 393 q 303 410 369 393 l 765 122 m 433 874 q 333 862 383 874 q 222 824 283 850 q 225 746 225 771 q 233 508 232 632 q 408 488 308 488 q 615 538 539 488 q 692 678 692 588 q 620 819 692 764 q 433 874 549 874 m 397 1051 q 372 1063 382 1051 q 361 1089 361 1074 q 381 1129 361 1111 l 493 1247 q 521 1273 510 1265 q 544 1281 532 1281 q 573 1268 561 1281 q 585 1238 585 1256 q 561 1193 585 1217 l 439 1074 q 397 1051 417 1051 z "},"Ř":{"ha":890,"x_min":65,"x_max":808,"o":"m 765 122 q 793 81 793 106 q 779 38 793 57 q 740 18 765 18 q 716 23 729 18 q 694 33 703 28 l 233 324 q 232 42 232 222 q 218 6 232 18 q 181 -7 204 -7 q 140 8 154 -7 q 125 50 125 22 l 125 489 q 122 692 125 569 l 121 775 l 117 774 q 104 771 108 771 q 74 788 83 771 q 65 829 65 806 q 107 882 65 860 l 119 888 l 119 926 q 133 963 119 950 q 171 975 147 975 q 207 965 193 975 q 221 940 221 956 l 221 933 q 426 972 319 972 q 628 936 542 972 q 762 835 715 900 q 808 682 808 769 q 755 523 808 588 q 613 426 701 458 q 419 393 525 393 q 303 410 369 393 l 765 122 m 433 874 q 333 862 383 874 q 222 824 283 850 q 225 746 225 771 q 233 508 232 632 q 408 488 308 488 q 615 538 539 488 q 692 678 692 588 q 620 819 692 764 q 433 874 549 874 m 614 1310 q 641 1298 629 1310 q 653 1271 653 1286 q 649 1257 653 1264 q 640 1243 646 1250 q 533 1109 576 1154 q 446 1064 490 1064 q 380 1099 418 1064 q 289 1192 342 1133 l 251 1232 q 238 1263 238 1246 q 251 1290 238 1278 q 279 1303 264 1303 q 322 1275 299 1303 q 450 1150 426 1150 q 490 1184 461 1150 q 578 1293 519 1218 q 614 1310 590 1310 z "},"Ŗ":{"ha":890,"x_min":65,"x_max":808,"o":"m 765 122 q 793 81 793 106 q 779 38 793 57 q 740 18 765 18 q 716 23 729 18 q 694 33 703 28 l 233 324 q 232 42 232 222 q 218 6 232 18 q 181 -7 204 -7 q 140 8 154 -7 q 125 50 125 22 l 125 489 q 122 692 125 569 l 121 775 l 117 774 q 104 771 108 771 q 74 788 83 771 q 65 829 65 806 q 107 882 65 860 l 119 888 l 119 926 q 133 963 119 950 q 171 975 147 975 q 207 965 193 975 q 221 940 221 956 l 221 933 q 426 972 319 972 q 628 936 542 972 q 762 835 715 900 q 808 682 808 769 q 755 523 808 588 q 613 426 701 458 q 419 393 525 393 q 303 410 369 393 l 765 122 m 433 874 q 333 862 383 874 q 222 824 283 850 q 225 746 225 771 q 233 508 232 632 q 408 488 308 488 q 615 538 539 488 q 692 678 692 588 q 620 819 692 764 q 433 874 549 874 m 453 -100 q 510 -124 486 -100 q 533 -181 533 -147 q 502 -279 533 -228 q 414 -376 471 -331 q 390 -386 404 -386 q 366 -376 378 -386 q 354 -353 354 -367 q 360 -336 354 -344 l 381 -312 q 432 -250 421 -269 q 389 -227 407 -247 q 371 -181 371 -207 q 395 -124 371 -147 q 453 -100 419 -100 z "},"Ṛ":{"ha":890,"x_min":65,"x_max":808,"o":"m 765 122 q 793 81 793 106 q 779 38 793 57 q 740 18 765 18 q 716 23 729 18 q 694 33 703 28 l 233 324 q 232 42 232 222 q 218 6 232 18 q 181 -7 204 -7 q 140 8 154 -7 q 125 50 125 22 l 125 489 q 122 692 125 569 l 121 775 l 117 774 q 104 771 108 771 q 74 788 83 771 q 65 829 65 806 q 107 882 65 860 l 119 888 l 119 926 q 133 963 119 950 q 171 975 147 975 q 207 965 193 975 q 221 940 221 956 l 221 933 q 426 972 319 972 q 628 936 542 972 q 762 835 715 900 q 808 682 808 769 q 755 523 808 588 q 613 426 701 458 q 419 393 525 393 q 303 410 369 393 l 765 122 m 433 874 q 333 862 383 874 q 222 824 283 850 q 225 746 225 771 q 233 508 232 632 q 408 488 308 488 q 615 538 539 488 q 692 678 692 588 q 620 819 692 764 q 433 874 549 874 m 449 -249 q 395 -226 417 -249 q 374 -172 374 -204 q 395 -121 374 -142 q 449 -100 417 -100 q 502 -121 481 -100 q 524 -172 524 -142 q 502 -226 524 -204 q 449 -249 481 -249 z "},"Ṝ":{"ha":890,"x_min":65,"x_max":808,"o":"m 765 122 q 793 81 793 106 q 779 38 793 57 q 740 18 765 18 q 716 23 729 18 q 694 33 703 28 l 233 324 q 232 42 232 222 q 218 6 232 18 q 181 -7 204 -7 q 140 8 154 -7 q 125 50 125 22 l 125 489 q 122 692 125 569 l 121 775 l 117 774 q 104 771 108 771 q 74 788 83 771 q 65 829 65 806 q 107 882 65 860 l 119 888 l 119 926 q 133 963 119 950 q 171 975 147 975 q 207 965 193 975 q 221 940 221 956 l 221 933 q 426 972 319 972 q 628 936 542 972 q 762 835 715 900 q 808 682 808 769 q 755 523 808 588 q 613 426 701 458 q 419 393 525 393 q 303 410 369 393 l 765 122 m 433 874 q 333 862 383 874 q 222 824 283 850 q 225 746 225 771 q 233 508 232 632 q 408 488 308 488 q 615 538 539 488 q 692 678 692 588 q 620 819 692 764 q 433 874 549 874 m 449 -249 q 395 -226 417 -249 q 374 -172 374 -204 q 395 -121 374 -142 q 449 -100 417 -100 q 502 -121 481 -100 q 524 -172 524 -142 q 502 -226 524 -204 q 449 -249 481 -249 m 222 1075 q 194 1083 204 1072 q 183 1115 183 1094 q 193 1145 183 1133 q 221 1160 203 1157 q 465 1179 329 1178 l 546 1179 l 656 1179 q 689 1167 676 1179 q 701 1133 701 1154 q 657 1094 701 1094 q 613 1096 632 1094 l 461 1097 q 299 1087 365 1097 q 222 1075 233 1076 z "},"Ṟ":{"ha":890,"x_min":65,"x_max":808,"o":"m 765 122 q 793 81 793 106 q 779 38 793 57 q 740 18 765 18 q 716 23 729 18 q 694 33 703 28 l 233 324 q 232 42 232 222 q 218 6 232 18 q 181 -7 204 -7 q 140 8 154 -7 q 125 50 125 22 l 125 489 q 122 692 125 569 l 121 775 l 117 774 q 104 771 108 771 q 74 788 83 771 q 65 829 65 806 q 107 882 65 860 l 119 888 l 119 926 q 133 963 119 950 q 171 975 147 975 q 207 965 193 975 q 221 940 221 956 l 221 933 q 426 972 319 972 q 628 936 542 972 q 762 835 715 900 q 808 682 808 769 q 755 523 808 588 q 613 426 701 458 q 419 393 525 393 q 303 410 369 393 l 765 122 m 433 874 q 333 862 383 874 q 222 824 283 850 q 225 746 225 771 q 233 508 232 632 q 408 488 308 488 q 615 538 539 488 q 692 678 692 588 q 620 819 692 764 q 433 874 549 874 m 261 -226 q 236 -215 247 -226 q 225 -183 225 -203 q 234 -155 225 -167 q 258 -142 243 -143 q 511 -129 358 -129 q 614 -132 558 -129 q 654 -133 631 -133 q 687 -145 674 -133 q 700 -176 700 -157 q 688 -206 700 -196 q 656 -217 675 -217 l 618 -215 q 510 -211 543 -211 q 313 -222 439 -211 q 261 -226 276 -226 z "},"S":{"ha":782,"x_min":83,"x_max":701,"o":"m 406 1 q 232 42 304 1 q 123 152 160 83 q 86 301 86 221 q 98 340 86 326 q 139 354 110 354 q 193 308 193 354 q 222 196 193 243 q 300 124 251 149 q 406 99 349 99 q 542 138 489 99 q 596 250 596 176 q 567 340 596 304 q 490 397 538 375 q 369 440 443 418 q 235 487 290 463 q 131 565 179 511 q 83 708 83 619 q 125 850 83 788 q 236 947 167 913 q 389 982 306 982 q 545 944 475 982 q 655 846 615 907 q 694 717 694 785 q 683 674 694 686 q 643 661 671 661 q 600 674 611 661 q 589 708 589 686 q 533 833 589 782 q 389 885 478 885 q 245 834 300 885 q 190 707 190 783 q 220 623 190 656 q 295 572 250 590 q 424 529 340 554 q 552 480 494 507 q 656 396 610 453 q 701 251 701 339 q 663 119 701 176 q 558 32 625 63 q 406 1 490 1 z "},"Ś":{"ha":782,"x_min":83,"x_max":701,"o":"m 406 1 q 232 42 304 1 q 123 152 160 83 q 86 301 86 221 q 98 340 86 326 q 139 354 110 354 q 193 308 193 354 q 222 196 193 243 q 300 124 251 149 q 406 99 349 99 q 542 138 489 99 q 596 250 596 176 q 567 340 596 304 q 490 397 538 375 q 369 440 443 418 q 235 487 290 463 q 131 565 179 511 q 83 708 83 619 q 125 850 83 788 q 236 947 167 913 q 389 982 306 982 q 545 944 475 982 q 655 846 615 907 q 694 717 694 785 q 683 674 694 686 q 643 661 671 661 q 600 674 611 661 q 589 708 589 686 q 533 833 589 782 q 389 885 478 885 q 245 834 300 885 q 190 707 190 783 q 220 623 190 656 q 295 572 250 590 q 424 529 340 554 q 552 480 494 507 q 656 396 610 453 q 701 251 701 339 q 663 119 701 176 q 558 32 625 63 q 406 1 490 1 m 350 1051 q 324 1063 335 1051 q 314 1089 314 1074 q 333 1129 314 1111 l 446 1247 q 474 1273 463 1265 q 497 1281 485 1281 q 526 1268 514 1281 q 538 1238 538 1256 q 514 1193 538 1217 l 392 1074 q 350 1051 369 1051 z "},"Š":{"ha":782,"x_min":83,"x_max":701,"o":"m 406 1 q 232 42 304 1 q 123 152 160 83 q 86 301 86 221 q 98 340 86 326 q 139 354 110 354 q 193 308 193 354 q 222 196 193 243 q 300 124 251 149 q 406 99 349 99 q 542 138 489 99 q 596 250 596 176 q 567 340 596 304 q 490 397 538 375 q 369 440 443 418 q 235 487 290 463 q 131 565 179 511 q 83 708 83 619 q 125 850 83 788 q 236 947 167 913 q 389 982 306 982 q 545 944 475 982 q 655 846 615 907 q 694 717 694 785 q 683 674 694 686 q 643 661 671 661 q 600 674 611 661 q 589 708 589 686 q 533 833 589 782 q 389 885 478 885 q 245 834 300 885 q 190 707 190 783 q 220 623 190 656 q 295 572 250 590 q 424 529 340 554 q 552 480 494 507 q 656 396 610 453 q 701 251 701 339 q 663 119 701 176 q 558 32 625 63 q 406 1 490 1 m 567 1310 q 594 1298 582 1310 q 606 1271 606 1286 q 602 1257 606 1264 q 593 1243 599 1250 q 486 1109 529 1154 q 399 1064 443 1064 q 333 1099 371 1064 q 242 1192 294 1133 l 204 1232 q 190 1263 190 1246 q 203 1290 190 1278 q 232 1303 217 1303 q 275 1275 251 1303 q 403 1150 379 1150 q 443 1184 414 1150 q 531 1293 472 1218 q 567 1310 543 1310 z "},"Ş":{"ha":782,"x_min":83,"x_max":701,"o":"m 701 251 q 632 82 701 149 q 451 4 563 15 l 403 -75 q 490 -108 457 -86 q 522 -174 522 -129 q 471 -276 522 -243 q 339 -310 419 -310 q 236 -290 288 -310 q 215 -274 222 -285 q 207 -250 207 -262 q 219 -221 207 -232 q 247 -210 231 -210 q 261 -211 257 -210 q 344 -226 317 -226 q 413 -219 392 -226 q 433 -183 433 -212 q 415 -156 433 -164 q 369 -144 397 -149 q 328 -137 340 -140 q 293 -122 304 -135 q 288 -90 282 -108 l 349 6 q 206 59 265 17 q 117 165 147 101 q 86 301 86 228 q 98 340 86 326 q 139 354 110 354 q 193 308 193 354 q 222 196 193 243 q 300 124 251 149 q 406 99 349 99 q 542 138 489 99 q 596 250 596 176 q 567 340 596 304 q 490 397 538 375 q 369 440 443 418 q 235 487 290 463 q 131 565 179 511 q 83 708 83 619 q 125 850 83 788 q 236 947 167 913 q 389 982 306 982 q 545 944 475 982 q 655 846 615 907 q 694 717 694 785 q 683 674 694 686 q 643 661 671 661 q 600 674 611 661 q 589 708 589 686 q 533 833 589 782 q 389 885 478 885 q 245 834 300 885 q 190 707 190 783 q 220 623 190 656 q 295 572 250 590 q 424 529 340 554 q 552 480 494 507 q 656 396 610 453 q 701 251 701 339 z "},"Ŝ":{"ha":782,"x_min":83,"x_max":701,"o":"m 406 1 q 232 42 304 1 q 123 152 160 83 q 86 301 86 221 q 98 340 86 326 q 139 354 110 354 q 193 308 193 354 q 222 196 193 243 q 300 124 251 149 q 406 99 349 99 q 542 138 489 99 q 596 250 596 176 q 567 340 596 304 q 490 397 538 375 q 369 440 443 418 q 235 487 290 463 q 131 565 179 511 q 83 708 83 619 q 125 850 83 788 q 236 947 167 913 q 389 982 306 982 q 545 944 475 982 q 655 846 615 907 q 694 717 694 785 q 683 674 694 686 q 643 661 671 661 q 600 674 611 661 q 589 708 589 686 q 533 833 589 782 q 389 885 478 885 q 245 834 300 885 q 190 707 190 783 q 220 623 190 656 q 295 572 250 590 q 424 529 340 554 q 552 480 494 507 q 656 396 610 453 q 701 251 701 339 q 663 119 701 176 q 558 32 625 63 q 406 1 490 1 m 567 1060 q 531 1078 543 1060 q 449 1181 483 1142 q 403 1219 415 1219 q 363 1190 392 1219 q 275 1094 333 1161 q 232 1067 251 1067 q 203 1079 217 1067 q 190 1107 190 1092 q 204 1139 190 1125 q 239 1176 226 1161 q 331 1270 292 1235 q 399 1306 371 1306 q 469 1273 435 1306 q 556 1174 504 1240 l 593 1126 q 606 1099 606 1114 q 594 1072 606 1083 q 567 1060 582 1060 z "},"Ș":{"ha":782,"x_min":83,"x_max":701,"o":"m 406 1 q 232 42 304 1 q 123 152 160 83 q 86 301 86 221 q 98 340 86 326 q 139 354 110 354 q 193 308 193 354 q 222 196 193 243 q 300 124 251 149 q 406 99 349 99 q 542 138 489 99 q 596 250 596 176 q 567 340 596 304 q 490 397 538 375 q 369 440 443 418 q 235 487 290 463 q 131 565 179 511 q 83 708 83 619 q 125 850 83 788 q 236 947 167 913 q 389 982 306 982 q 545 944 475 982 q 655 846 615 907 q 694 717 694 785 q 683 674 694 686 q 643 661 671 661 q 600 674 611 661 q 589 708 589 686 q 533 833 589 782 q 389 885 478 885 q 245 834 300 885 q 190 707 190 783 q 220 623 190 656 q 295 572 250 590 q 424 529 340 554 q 552 480 494 507 q 656 396 610 453 q 701 251 701 339 q 663 119 701 176 q 558 32 625 63 q 406 1 490 1 m 406 -100 q 463 -124 439 -100 q 486 -181 486 -147 q 455 -279 486 -228 q 367 -376 424 -331 q 343 -386 357 -386 q 319 -376 331 -386 q 307 -353 307 -367 q 313 -336 307 -344 l 333 -312 q 385 -250 374 -269 q 342 -227 360 -247 q 324 -181 324 -207 q 348 -124 324 -147 q 406 -100 372 -100 z "},"Ṡ":{"ha":782,"x_min":83,"x_max":701,"o":"m 406 1 q 232 42 304 1 q 123 152 160 83 q 86 301 86 221 q 98 340 86 326 q 139 354 110 354 q 193 308 193 354 q 222 196 193 243 q 300 124 251 149 q 406 99 349 99 q 542 138 489 99 q 596 250 596 176 q 567 340 596 304 q 490 397 538 375 q 369 440 443 418 q 235 487 290 463 q 131 565 179 511 q 83 708 83 619 q 125 850 83 788 q 236 947 167 913 q 389 982 306 982 q 545 944 475 982 q 655 846 615 907 q 694 717 694 785 q 683 674 694 686 q 643 661 671 661 q 600 674 611 661 q 589 708 589 686 q 533 833 589 782 q 389 885 478 885 q 245 834 300 885 q 190 707 190 783 q 220 623 190 656 q 295 572 250 590 q 424 529 340 554 q 552 480 494 507 q 656 396 610 453 q 701 251 701 339 q 663 119 701 176 q 558 32 625 63 q 406 1 490 1 m 401 1078 q 348 1100 369 1078 q 326 1154 326 1122 q 348 1206 326 1185 q 401 1226 369 1226 q 455 1206 433 1226 q 476 1154 476 1185 q 455 1100 476 1122 q 401 1078 433 1078 z "},"Ṣ":{"ha":782,"x_min":83,"x_max":701,"o":"m 406 1 q 232 42 304 1 q 123 152 160 83 q 86 301 86 221 q 98 340 86 326 q 139 354 110 354 q 193 308 193 354 q 222 196 193 243 q 300 124 251 149 q 406 99 349 99 q 542 138 489 99 q 596 250 596 176 q 567 340 596 304 q 490 397 538 375 q 369 440 443 418 q 235 487 290 463 q 131 565 179 511 q 83 708 83 619 q 125 850 83 788 q 236 947 167 913 q 389 982 306 982 q 545 944 475 982 q 655 846 615 907 q 694 717 694 785 q 683 674 694 686 q 643 661 671 661 q 600 674 611 661 q 589 708 589 686 q 533 833 589 782 q 389 885 478 885 q 245 834 300 885 q 190 707 190 783 q 220 623 190 656 q 295 572 250 590 q 424 529 340 554 q 552 480 494 507 q 656 396 610 453 q 701 251 701 339 q 663 119 701 176 q 558 32 625 63 q 406 1 490 1 m 401 -249 q 348 -226 369 -249 q 326 -172 326 -204 q 348 -121 326 -142 q 401 -100 369 -100 q 455 -121 433 -100 q 476 -172 476 -142 q 455 -226 476 -204 q 401 -249 433 -249 z "},"ẞ":{"ha":935,"x_min":111,"x_max":860,"o":"m 619 -3 q 449 44 517 -3 q 344 146 382 90 q 314 211 314 192 q 333 249 314 232 q 372 265 351 265 q 397 256 388 265 q 422 225 407 247 q 439 200 439 200 q 515 126 469 158 q 614 93 560 93 q 706 123 669 93 q 742 203 742 153 q 714 276 742 244 q 625 356 686 308 q 547 422 576 394 q 497 487 518 449 q 476 571 476 525 q 492 643 476 611 q 535 718 507 675 q 567 774 557 753 q 578 818 578 796 q 556 880 578 850 q 494 929 533 910 q 403 949 454 949 q 272 879 314 949 q 229 685 229 810 q 233 479 229 607 q 242 56 242 229 q 228 13 242 26 q 179 0 214 0 q 140 14 154 0 q 125 50 125 28 l 113 699 q 141 868 111 790 q 235 994 171 946 q 397 1042 300 1042 q 538 1014 469 1042 q 649 935 606 986 q 693 817 693 885 q 679 749 693 776 q 639 686 665 721 q 604 634 615 656 q 593 583 593 613 q 621 508 593 540 q 708 428 649 475 q 787 361 757 390 q 838 292 817 332 q 860 199 860 251 q 828 96 860 142 q 741 24 796 50 q 619 -3 686 -3 z "},"Ə":{"ha":1103,"x_min":81,"x_max":1011,"o":"m 529 -11 q 300 43 403 -11 q 139 186 197 97 q 81 374 81 275 q 102 457 81 433 q 185 482 124 481 l 890 493 q 899 496 897 493 q 901 507 901 499 q 853 693 901 613 q 721 818 806 774 q 526 863 636 863 q 372 833 435 863 q 276 764 310 803 q 211 675 242 725 q 197 663 207 668 q 172 658 186 658 q 128 670 149 658 q 107 701 107 682 q 122 743 107 718 q 292 905 183 847 q 535 963 400 963 q 789 897 681 963 q 954 721 897 831 q 1011 483 1011 611 q 951 237 1011 350 q 782 56 892 124 q 529 -11 672 -11 m 532 76 q 722 125 638 76 q 854 248 807 174 q 901 397 901 322 q 899 407 901 404 q 890 410 897 410 l 214 397 q 191 390 197 397 q 185 367 185 383 q 233 226 185 293 q 362 117 282 158 q 532 76 442 76 z "},"T":{"ha":774,"x_min":50,"x_max":725,"o":"m 676 957 q 725 907 725 951 q 711 869 725 882 q 672 857 697 856 q 446 868 546 867 q 428 494 435 739 l 426 465 q 417 44 417 182 q 403 -1 417 13 q 360 -14 390 -14 q 315 1 328 -14 q 303 57 303 17 q 307 210 303 100 q 314 383 311 321 l 318 464 l 338 868 q 104 853 231 865 q 65 863 79 850 q 50 903 50 876 q 92 950 50 946 q 400 967 244 967 q 676 957 593 967 z "},"Ŧ":{"ha":774,"x_min":50,"x_max":725,"o":"m 676 957 q 725 907 725 951 q 711 869 725 882 q 672 857 697 856 q 446 868 546 867 q 432 613 436 753 l 572 608 q 619 567 619 606 q 607 534 619 546 q 574 522 594 522 l 429 528 l 426 465 q 417 44 417 182 q 403 -1 417 13 q 360 -14 390 -14 q 315 1 328 -14 q 303 57 303 17 q 307 210 303 100 q 314 383 311 321 l 318 464 l 321 531 l 181 536 q 150 549 163 536 q 138 579 138 561 q 151 608 138 597 q 183 619 165 619 l 325 615 l 338 868 q 104 853 231 865 q 65 863 79 850 q 50 903 50 876 q 92 950 50 946 q 400 967 244 967 q 676 957 593 967 z "},"Ť":{"ha":774,"x_min":50,"x_max":725,"o":"m 676 957 q 725 907 725 951 q 711 869 725 882 q 672 857 697 856 q 446 868 546 867 q 428 494 435 739 l 426 465 q 417 44 417 182 q 403 -1 417 13 q 360 -14 390 -14 q 315 1 328 -14 q 303 57 303 17 q 307 210 303 100 q 314 383 311 321 l 318 464 l 338 868 q 104 853 231 865 q 65 863 79 850 q 50 903 50 876 q 92 950 50 946 q 400 967 244 967 q 676 957 593 967 m 543 1310 q 570 1298 558 1310 q 582 1271 582 1286 q 578 1257 582 1264 q 569 1243 575 1250 q 463 1109 506 1154 q 375 1064 419 1064 q 309 1099 347 1064 q 218 1192 271 1133 l 181 1232 q 167 1263 167 1246 q 180 1290 167 1278 q 208 1303 193 1303 q 251 1275 228 1303 q 379 1150 356 1150 q 419 1184 390 1150 q 507 1293 449 1218 q 543 1310 519 1310 z "},"Ţ":{"ha":774,"x_min":50,"x_max":725,"o":"m 676 957 q 725 907 725 951 q 711 869 725 882 q 672 857 697 856 q 446 868 546 867 q 428 494 435 739 l 426 465 q 417 44 417 182 q 399 -4 417 8 l 356 -75 q 442 -108 410 -86 q 475 -174 475 -129 q 424 -276 475 -243 q 292 -310 372 -310 q 189 -290 240 -310 q 167 -274 175 -285 q 160 -250 160 -262 q 172 -221 160 -232 q 200 -210 183 -210 q 214 -211 210 -210 q 297 -226 269 -226 q 366 -219 346 -226 q 386 -183 386 -212 q 368 -156 386 -164 q 322 -144 350 -149 q 281 -137 293 -140 q 246 -122 257 -135 q 240 -90 235 -108 l 308 14 q 303 64 303 31 q 318 464 304 168 l 338 868 q 104 853 231 865 q 65 863 79 850 q 50 903 50 876 q 92 950 50 946 q 400 967 244 967 q 676 957 593 967 z "},"Ț":{"ha":774,"x_min":50,"x_max":725,"o":"m 676 957 q 725 907 725 951 q 711 869 725 882 q 672 857 697 856 q 446 868 546 867 q 428 494 435 739 l 426 465 q 417 44 417 182 q 403 -1 417 13 q 360 -14 390 -14 q 315 1 328 -14 q 303 57 303 17 q 307 210 303 100 q 314 383 311 321 l 318 464 l 338 868 q 104 853 231 865 q 65 863 79 850 q 50 903 50 876 q 92 950 50 946 q 400 967 244 967 q 676 957 593 967 m 358 -100 q 415 -124 392 -100 q 439 -181 439 -147 q 408 -279 439 -228 q 319 -376 376 -331 q 296 -386 310 -386 q 272 -376 283 -386 q 260 -353 260 -367 q 265 -336 260 -344 l 286 -312 q 338 -250 326 -269 q 294 -227 313 -247 q 276 -181 276 -207 q 301 -124 276 -147 q 358 -100 325 -100 z "},"Ṭ":{"ha":774,"x_min":50,"x_max":725,"o":"m 676 957 q 725 907 725 951 q 711 869 725 882 q 672 857 697 856 q 446 868 546 867 q 428 494 435 739 l 426 465 q 417 44 417 182 q 403 -1 417 13 q 360 -14 390 -14 q 315 1 328 -14 q 303 57 303 17 q 307 210 303 100 q 314 383 311 321 l 318 464 l 338 868 q 104 853 231 865 q 65 863 79 850 q 50 903 50 876 q 92 950 50 946 q 400 967 244 967 q 676 957 593 967 m 354 -249 q 301 -226 322 -249 q 279 -172 279 -204 q 301 -121 279 -142 q 354 -100 322 -100 q 408 -121 386 -100 q 429 -172 429 -142 q 408 -226 429 -204 q 354 -249 386 -249 z "},"Ṯ":{"ha":774,"x_min":50,"x_max":725,"o":"m 676 957 q 725 907 725 951 q 711 869 725 882 q 672 857 697 856 q 446 868 546 867 q 428 494 435 739 l 426 465 q 417 44 417 182 q 403 -1 417 13 q 360 -14 390 -14 q 315 1 328 -14 q 303 57 303 17 q 307 210 303 100 q 314 383 311 321 l 318 464 l 338 868 q 104 853 231 865 q 65 863 79 850 q 50 903 50 876 q 92 950 50 946 q 400 967 244 967 q 676 957 593 967 m 167 -226 q 142 -215 153 -226 q 131 -183 131 -203 q 140 -155 131 -167 q 164 -142 149 -143 q 417 -129 264 -129 q 519 -132 464 -129 q 560 -133 536 -133 q 592 -145 579 -133 q 606 -176 606 -157 q 593 -206 606 -196 q 561 -217 581 -217 l 524 -215 q 415 -211 449 -211 q 218 -222 344 -211 q 167 -226 182 -226 z "},"U":{"ha":926,"x_min":100,"x_max":824,"o":"m 819 592 q 821 503 819 535 q 824 43 824 267 q 771 -3 824 -3 q 730 10 743 -3 q 717 53 717 24 l 717 161 q 600 47 678 92 q 425 3 522 3 q 179 106 258 3 q 100 363 100 208 q 101 524 100 438 q 104 656 103 610 q 110 929 107 749 q 161 975 110 975 q 201 963 188 975 q 215 928 215 950 q 211 636 215 886 q 208 364 208 458 q 269 168 208 235 q 443 101 329 101 q 578 146 515 101 q 677 258 640 190 q 714 392 714 326 q 710 935 714 564 q 760 983 710 983 q 801 969 786 983 q 815 932 815 956 q 819 592 815 782 z "},"Ú":{"ha":926,"x_min":100,"x_max":824,"o":"m 819 592 q 821 503 819 535 q 824 43 824 267 q 771 -3 824 -3 q 730 10 743 -3 q 717 53 717 24 l 717 161 q 600 47 678 92 q 425 3 522 3 q 179 106 258 3 q 100 363 100 208 q 101 524 100 438 q 104 656 103 610 q 110 929 107 749 q 161 975 110 975 q 201 963 188 975 q 215 928 215 950 q 211 636 215 886 q 208 364 208 458 q 269 168 208 235 q 443 101 329 101 q 578 146 515 101 q 677 258 640 190 q 714 392 714 326 q 710 935 714 564 q 760 983 710 983 q 801 969 786 983 q 815 932 815 956 q 819 592 815 782 m 410 1051 q 384 1063 394 1051 q 374 1089 374 1074 q 393 1129 374 1111 l 506 1247 q 533 1273 522 1265 q 557 1281 544 1281 q 585 1268 574 1281 q 597 1238 597 1256 q 574 1193 597 1217 l 451 1074 q 410 1051 429 1051 z "},"Ŭ":{"ha":926,"x_min":100,"x_max":824,"o":"m 819 592 q 821 503 819 535 q 824 43 824 267 q 771 -3 824 -3 q 730 10 743 -3 q 717 53 717 24 l 717 161 q 600 47 678 92 q 425 3 522 3 q 179 106 258 3 q 100 363 100 208 q 101 524 100 438 q 104 656 103 610 q 110 929 107 749 q 161 975 110 975 q 201 963 188 975 q 215 928 215 950 q 211 636 215 886 q 208 364 208 458 q 269 168 208 235 q 443 101 329 101 q 578 146 515 101 q 677 258 640 190 q 714 392 714 326 q 710 935 714 564 q 760 983 710 983 q 801 969 786 983 q 815 932 815 956 q 819 592 815 782 m 461 1064 q 349 1089 399 1064 q 270 1156 299 1114 q 242 1246 242 1197 q 253 1273 242 1261 q 281 1285 265 1285 q 308 1278 296 1285 q 322 1258 321 1272 q 364 1170 325 1203 q 461 1138 403 1138 q 551 1172 513 1138 q 590 1254 589 1206 q 603 1280 590 1271 q 633 1289 617 1289 q 662 1278 650 1289 q 674 1250 674 1267 q 644 1158 674 1201 q 567 1090 615 1115 q 461 1064 518 1064 z "},"Ǔ":{"ha":926,"x_min":100,"x_max":824,"o":"m 819 592 q 821 503 819 535 q 824 43 824 267 q 771 -3 824 -3 q 730 10 743 -3 q 717 53 717 24 l 717 161 q 600 47 678 92 q 425 3 522 3 q 179 106 258 3 q 100 363 100 208 q 101 524 100 438 q 104 656 103 610 q 110 929 107 749 q 161 975 110 975 q 201 963 188 975 q 215 928 215 950 q 211 636 215 886 q 208 364 208 458 q 269 168 208 235 q 443 101 329 101 q 578 146 515 101 q 677 258 640 190 q 714 392 714 326 q 710 935 714 564 q 760 983 710 983 q 801 969 786 983 q 815 932 815 956 q 819 592 815 782 m 626 1310 q 653 1298 642 1310 q 665 1271 665 1286 q 662 1257 665 1264 q 653 1243 658 1250 q 546 1109 589 1154 q 458 1064 503 1064 q 392 1099 431 1064 q 301 1192 354 1133 l 264 1232 q 250 1263 250 1246 q 263 1290 250 1278 q 292 1303 276 1303 q 335 1275 311 1303 q 463 1150 439 1150 q 503 1184 474 1150 q 590 1293 532 1218 q 626 1310 603 1310 z "},"Û":{"ha":926,"x_min":100,"x_max":824,"o":"m 819 592 q 821 503 819 535 q 824 43 824 267 q 771 -3 824 -3 q 730 10 743 -3 q 717 53 717 24 l 717 161 q 600 47 678 92 q 425 3 522 3 q 179 106 258 3 q 100 363 100 208 q 101 524 100 438 q 104 656 103 610 q 110 929 107 749 q 161 975 110 975 q 201 963 188 975 q 215 928 215 950 q 211 636 215 886 q 208 364 208 458 q 269 168 208 235 q 443 101 329 101 q 578 146 515 101 q 677 258 640 190 q 714 392 714 326 q 710 935 714 564 q 760 983 710 983 q 801 969 786 983 q 815 932 815 956 q 819 592 815 782 m 626 1060 q 590 1078 603 1060 q 509 1181 543 1142 q 463 1219 475 1219 q 422 1190 451 1219 q 335 1094 393 1161 q 292 1067 311 1067 q 263 1079 276 1067 q 250 1107 250 1092 q 264 1139 250 1125 q 299 1176 286 1161 q 391 1270 351 1235 q 458 1306 431 1306 q 529 1273 494 1306 q 615 1174 564 1240 l 653 1126 q 665 1099 665 1114 q 653 1072 665 1083 q 626 1060 642 1060 z "},"Ü":{"ha":926,"x_min":100,"x_max":824,"o":"m 819 592 q 821 503 819 535 q 824 43 824 267 q 771 -3 824 -3 q 730 10 743 -3 q 717 53 717 24 l 717 161 q 600 47 678 92 q 425 3 522 3 q 179 106 258 3 q 100 363 100 208 q 101 524 100 438 q 104 656 103 610 q 110 929 107 749 q 161 975 110 975 q 201 963 188 975 q 215 928 215 950 q 211 636 215 886 q 208 364 208 458 q 269 168 208 235 q 443 101 329 101 q 578 146 515 101 q 677 258 640 190 q 714 392 714 326 q 710 935 714 564 q 760 983 710 983 q 801 969 786 983 q 815 932 815 956 q 819 592 815 782 m 294 1078 q 241 1100 263 1078 q 219 1154 219 1122 q 241 1206 219 1185 q 294 1226 263 1226 q 349 1206 326 1226 q 371 1154 371 1185 q 348 1101 371 1124 q 294 1078 325 1078 m 628 1078 q 574 1100 596 1078 q 553 1154 553 1122 q 574 1206 553 1185 q 628 1226 596 1226 q 681 1206 660 1226 q 703 1154 703 1185 q 681 1100 703 1122 q 628 1078 658 1078 z "},"Ǘ":{"ha":926,"x_min":100,"x_max":824,"o":"m 819 592 q 821 503 819 535 q 824 43 824 267 q 771 -3 824 -3 q 730 10 743 -3 q 717 53 717 24 l 717 161 q 600 47 678 92 q 425 3 522 3 q 179 106 258 3 q 100 363 100 208 q 101 524 100 438 q 104 656 103 610 q 110 929 107 749 q 161 975 110 975 q 201 963 188 975 q 215 928 215 950 q 211 636 215 886 q 208 364 208 458 q 269 168 208 235 q 443 101 329 101 q 578 146 515 101 q 677 258 640 190 q 714 392 714 326 q 710 935 714 564 q 760 983 710 983 q 801 969 786 983 q 815 932 815 956 q 819 592 815 782 z "},"Ǚ":{"ha":926,"x_min":100,"x_max":824,"o":"m 819 592 q 821 503 819 535 q 824 43 824 267 q 771 -3 824 -3 q 730 10 743 -3 q 717 53 717 24 l 717 161 q 600 47 678 92 q 425 3 522 3 q 179 106 258 3 q 100 363 100 208 q 101 524 100 438 q 104 656 103 610 q 110 929 107 749 q 161 975 110 975 q 201 963 188 975 q 215 928 215 950 q 211 636 215 886 q 208 364 208 458 q 269 168 208 235 q 443 101 329 101 q 578 146 515 101 q 677 258 640 190 q 714 392 714 326 q 710 935 714 564 q 760 983 710 983 q 801 969 786 983 q 815 932 815 956 q 819 592 815 782 z "},"Ǜ":{"ha":926,"x_min":100,"x_max":824,"o":"m 819 592 q 821 503 819 535 q 824 43 824 267 q 771 -3 824 -3 q 730 10 743 -3 q 717 53 717 24 l 717 161 q 600 47 678 92 q 425 3 522 3 q 179 106 258 3 q 100 363 100 208 q 101 524 100 438 q 104 656 103 610 q 110 929 107 749 q 161 975 110 975 q 201 963 188 975 q 215 928 215 950 q 211 636 215 886 q 208 364 208 458 q 269 168 208 235 q 443 101 329 101 q 578 146 515 101 q 677 258 640 190 q 714 392 714 326 q 710 935 714 564 q 760 983 710 983 q 801 969 786 983 q 815 932 815 956 q 819 592 815 782 z "},"Ǖ":{"ha":926,"x_min":100,"x_max":824,"o":"m 819 592 q 821 503 819 535 q 824 43 824 267 q 771 -3 824 -3 q 730 10 743 -3 q 717 53 717 24 l 717 161 q 600 47 678 92 q 425 3 522 3 q 179 106 258 3 q 100 363 100 208 q 101 524 100 438 q 104 656 103 610 q 110 929 107 749 q 161 975 110 975 q 201 963 188 975 q 215 928 215 950 q 211 636 215 886 q 208 364 208 458 q 269 168 208 235 q 443 101 329 101 q 578 146 515 101 q 677 258 640 190 q 714 392 714 326 q 710 935 714 564 q 760 983 710 983 q 801 969 786 983 q 815 932 815 956 q 819 592 815 782 z "},"Ụ":{"ha":926,"x_min":100,"x_max":824,"o":"m 819 592 q 821 503 819 535 q 824 43 824 267 q 771 -3 824 -3 q 730 10 743 -3 q 717 53 717 24 l 717 161 q 600 47 678 92 q 425 3 522 3 q 179 106 258 3 q 100 363 100 208 q 101 524 100 438 q 104 656 103 610 q 110 929 107 749 q 161 975 110 975 q 201 963 188 975 q 215 928 215 950 q 211 636 215 886 q 208 364 208 458 q 269 168 208 235 q 443 101 329 101 q 578 146 515 101 q 677 258 640 190 q 714 392 714 326 q 710 935 714 564 q 760 983 710 983 q 801 969 786 983 q 815 932 815 956 q 819 592 815 782 m 461 -249 q 408 -226 429 -249 q 386 -172 386 -204 q 408 -121 386 -142 q 461 -100 429 -100 q 515 -121 493 -100 q 536 -172 536 -142 q 515 -226 536 -204 q 461 -249 493 -249 z "},"Ù":{"ha":926,"x_min":100,"x_max":824,"o":"m 819 592 q 821 503 819 535 q 824 43 824 267 q 771 -3 824 -3 q 730 10 743 -3 q 717 53 717 24 l 717 161 q 600 47 678 92 q 425 3 522 3 q 179 106 258 3 q 100 363 100 208 q 101 524 100 438 q 104 656 103 610 q 110 929 107 749 q 161 975 110 975 q 201 963 188 975 q 215 928 215 950 q 211 636 215 886 q 208 364 208 458 q 269 168 208 235 q 443 101 329 101 q 578 146 515 101 q 677 258 640 190 q 714 392 714 326 q 710 935 714 564 q 760 983 710 983 q 801 969 786 983 q 815 932 815 956 q 819 592 815 782 m 532 1051 q 512 1056 521 1051 q 490 1074 503 1061 l 381 1193 q 357 1238 357 1219 q 369 1268 357 1256 q 397 1281 381 1281 q 449 1247 421 1281 l 550 1129 q 569 1089 569 1107 q 558 1063 569 1074 q 532 1051 547 1051 z "},"Ủ":{"ha":926,"x_min":100,"x_max":824,"o":"m 819 592 q 821 503 819 535 q 824 43 824 267 q 771 -3 824 -3 q 730 10 743 -3 q 717 53 717 24 l 717 161 q 600 47 678 92 q 425 3 522 3 q 179 106 258 3 q 100 363 100 208 q 101 524 100 438 q 104 656 103 610 q 110 929 107 749 q 161 975 110 975 q 201 963 188 975 q 215 928 215 950 q 211 636 215 886 q 208 364 208 458 q 269 168 208 235 q 443 101 329 101 q 578 146 515 101 q 677 258 640 190 q 714 392 714 326 q 710 935 714 564 q 760 983 710 983 q 801 969 786 983 q 815 932 815 956 q 819 592 815 782 m 467 1054 q 436 1067 449 1054 q 424 1099 424 1079 l 424 1151 q 435 1181 424 1168 q 474 1217 447 1194 q 510 1250 497 1235 q 524 1281 524 1265 q 503 1321 524 1306 q 446 1336 482 1336 q 354 1278 388 1336 q 321 1254 342 1254 q 297 1265 308 1254 q 286 1290 286 1276 q 294 1318 286 1306 q 454 1408 347 1408 q 567 1377 526 1408 q 608 1288 608 1346 q 593 1238 608 1258 q 549 1192 578 1218 q 526 1170 536 1181 q 514 1150 515 1160 q 513 1101 513 1131 q 499 1067 513 1079 q 467 1054 486 1054 z "},"Ư":{"ha":1007,"x_min":100,"x_max":993,"o":"m 993 951 q 951 792 993 864 q 818 690 908 719 q 819 592 818 626 q 821 503 819 535 q 824 43 824 267 q 771 -3 824 -3 q 730 10 743 -3 q 717 53 717 24 l 717 161 q 600 47 678 92 q 425 3 522 3 q 179 106 258 3 q 100 363 100 208 q 101 524 100 438 q 104 656 103 610 q 110 929 107 749 q 161 975 110 975 q 201 963 188 975 q 215 928 215 950 q 211 636 215 886 q 208 364 208 458 q 269 168 208 235 q 443 101 329 101 q 578 146 515 101 q 677 258 640 190 q 714 392 714 326 q 710 935 714 564 q 760 983 710 983 q 801 969 786 983 q 815 932 815 956 q 817 765 815 821 q 892 840 865 790 q 918 953 918 889 q 956 990 918 990 q 983 980 974 990 q 993 951 993 969 z "},"Ứ":{"ha":1007,"x_min":100,"x_max":993,"o":"m 993 951 q 951 792 993 864 q 818 690 908 719 q 819 592 818 626 q 821 503 819 535 q 824 43 824 267 q 771 -3 824 -3 q 730 10 743 -3 q 717 53 717 24 l 717 161 q 600 47 678 92 q 425 3 522 3 q 179 106 258 3 q 100 363 100 208 q 101 524 100 438 q 104 656 103 610 q 110 929 107 749 q 161 975 110 975 q 201 963 188 975 q 215 928 215 950 q 211 636 215 886 q 208 364 208 458 q 269 168 208 235 q 443 101 329 101 q 578 146 515 101 q 677 258 640 190 q 714 392 714 326 q 710 935 714 564 q 760 983 710 983 q 801 969 786 983 q 815 932 815 956 q 817 765 815 821 q 892 840 865 790 q 918 953 918 889 q 956 990 918 990 q 983 980 974 990 q 993 951 993 969 m 410 1051 q 384 1063 394 1051 q 374 1089 374 1074 q 393 1129 374 1111 l 506 1247 q 533 1273 522 1265 q 557 1281 544 1281 q 585 1268 574 1281 q 597 1238 597 1256 q 574 1193 597 1217 l 451 1074 q 410 1051 429 1051 z "},"Ự":{"ha":1007,"x_min":100,"x_max":993,"o":"m 993 951 q 951 792 993 864 q 818 690 908 719 q 819 592 818 626 q 821 503 819 535 q 824 43 824 267 q 771 -3 824 -3 q 730 10 743 -3 q 717 53 717 24 l 717 161 q 600 47 678 92 q 425 3 522 3 q 179 106 258 3 q 100 363 100 208 q 101 524 100 438 q 104 656 103 610 q 110 929 107 749 q 161 975 110 975 q 201 963 188 975 q 215 928 215 950 q 211 636 215 886 q 208 364 208 458 q 269 168 208 235 q 443 101 329 101 q 578 146 515 101 q 677 258 640 190 q 714 392 714 326 q 710 935 714 564 q 760 983 710 983 q 801 969 786 983 q 815 932 815 956 q 817 765 815 821 q 892 840 865 790 q 918 953 918 889 q 956 990 918 990 q 983 980 974 990 q 993 951 993 969 m 461 -249 q 408 -226 429 -249 q 386 -172 386 -204 q 408 -121 386 -142 q 461 -100 429 -100 q 515 -121 493 -100 q 536 -172 536 -142 q 515 -226 536 -204 q 461 -249 493 -249 z "},"Ừ":{"ha":1007,"x_min":100,"x_max":993,"o":"m 993 951 q 951 792 993 864 q 818 690 908 719 q 819 592 818 626 q 821 503 819 535 q 824 43 824 267 q 771 -3 824 -3 q 730 10 743 -3 q 717 53 717 24 l 717 161 q 600 47 678 92 q 425 3 522 3 q 179 106 258 3 q 100 363 100 208 q 101 524 100 438 q 104 656 103 610 q 110 929 107 749 q 161 975 110 975 q 201 963 188 975 q 215 928 215 950 q 211 636 215 886 q 208 364 208 458 q 269 168 208 235 q 443 101 329 101 q 578 146 515 101 q 677 258 640 190 q 714 392 714 326 q 710 935 714 564 q 760 983 710 983 q 801 969 786 983 q 815 932 815 956 q 817 765 815 821 q 892 840 865 790 q 918 953 918 889 q 956 990 918 990 q 983 980 974 990 q 993 951 993 969 m 532 1051 q 512 1056 521 1051 q 490 1074 503 1061 l 381 1193 q 357 1238 357 1219 q 369 1268 357 1256 q 397 1281 381 1281 q 449 1247 421 1281 l 550 1129 q 569 1089 569 1107 q 558 1063 569 1074 q 532 1051 547 1051 z "},"Ử":{"ha":1007,"x_min":100,"x_max":993,"o":"m 993 951 q 951 792 993 864 q 818 690 908 719 q 819 592 818 626 q 821 503 819 535 q 824 43 824 267 q 771 -3 824 -3 q 730 10 743 -3 q 717 53 717 24 l 717 161 q 600 47 678 92 q 425 3 522 3 q 179 106 258 3 q 100 363 100 208 q 101 524 100 438 q 104 656 103 610 q 110 929 107 749 q 161 975 110 975 q 201 963 188 975 q 215 928 215 950 q 211 636 215 886 q 208 364 208 458 q 269 168 208 235 q 443 101 329 101 q 578 146 515 101 q 677 258 640 190 q 714 392 714 326 q 710 935 714 564 q 760 983 710 983 q 801 969 786 983 q 815 932 815 956 q 817 765 815 821 q 892 840 865 790 q 918 953 918 889 q 956 990 918 990 q 983 980 974 990 q 993 951 993 969 m 467 1054 q 436 1067 449 1054 q 424 1099 424 1079 l 424 1151 q 435 1181 424 1168 q 474 1217 447 1194 q 510 1250 497 1235 q 524 1281 524 1265 q 503 1321 524 1306 q 446 1336 482 1336 q 354 1278 388 1336 q 321 1254 342 1254 q 297 1265 308 1254 q 286 1290 286 1276 q 294 1318 286 1306 q 454 1408 347 1408 q 567 1377 526 1408 q 608 1288 608 1346 q 593 1238 608 1258 q 549 1192 578 1218 q 526 1170 536 1181 q 514 1150 515 1160 q 513 1101 513 1131 q 499 1067 513 1079 q 467 1054 486 1054 z "},"Ữ":{"ha":1007,"x_min":100,"x_max":993,"o":"m 993 951 q 951 792 993 864 q 818 690 908 719 q 819 592 818 626 q 821 503 819 535 q 824 43 824 267 q 771 -3 824 -3 q 730 10 743 -3 q 717 53 717 24 l 717 161 q 600 47 678 92 q 425 3 522 3 q 179 106 258 3 q 100 363 100 208 q 101 524 100 438 q 104 656 103 610 q 110 929 107 749 q 161 975 110 975 q 201 963 188 975 q 215 928 215 950 q 211 636 215 886 q 208 364 208 458 q 269 168 208 235 q 443 101 329 101 q 578 146 515 101 q 677 258 640 190 q 714 392 714 326 q 710 935 714 564 q 760 983 710 983 q 801 969 786 983 q 815 932 815 956 q 817 765 815 821 q 892 840 865 790 q 918 953 918 889 q 956 990 918 990 q 983 980 974 990 q 993 951 993 969 m 249 1075 q 236 1104 236 1090 q 247 1133 236 1119 q 307 1190 281 1174 q 369 1207 333 1207 q 492 1176 433 1207 q 517 1163 500 1172 q 547 1150 535 1154 q 568 1146 558 1146 q 588 1152 579 1146 q 608 1169 597 1158 q 643 1190 628 1190 q 672 1176 658 1190 q 685 1147 685 1163 q 674 1118 685 1132 q 619 1077 644 1090 q 565 1064 593 1064 q 527 1070 546 1064 q 485 1089 508 1076 q 454 1103 479 1092 q 420 1117 447 1106 q 375 1129 393 1129 q 351 1121 363 1129 q 330 1101 340 1113 q 317 1086 319 1090 q 275 1064 294 1064 q 249 1075 260 1064 z "},"Ű":{"ha":926,"x_min":100,"x_max":824,"o":"m 819 592 q 821 503 819 535 q 824 43 824 267 q 771 -3 824 -3 q 730 10 743 -3 q 717 53 717 24 l 717 161 q 600 47 678 92 q 425 3 522 3 q 179 106 258 3 q 100 363 100 208 q 101 524 100 438 q 104 656 103 610 q 110 929 107 749 q 161 975 110 975 q 201 963 188 975 q 215 928 215 950 q 211 636 215 886 q 208 364 208 458 q 269 168 208 235 q 443 101 329 101 q 578 146 515 101 q 677 258 640 190 q 714 392 714 326 q 710 935 714 564 q 760 983 710 983 q 801 969 786 983 q 815 932 815 956 q 819 592 815 782 m 294 1051 q 269 1063 279 1051 q 258 1089 258 1074 q 276 1129 258 1107 l 378 1247 q 429 1281 406 1281 q 458 1268 446 1281 q 469 1238 469 1256 q 446 1193 469 1217 l 335 1072 q 294 1051 314 1051 m 504 1051 q 478 1063 489 1051 q 468 1089 468 1074 q 488 1129 468 1107 l 588 1247 q 640 1281 615 1281 q 669 1268 657 1281 q 681 1238 681 1256 q 656 1193 681 1218 l 546 1074 q 524 1056 533 1061 q 504 1051 515 1051 z "},"Ū":{"ha":926,"x_min":100,"x_max":824,"o":"m 819 592 q 821 503 819 535 q 824 43 824 267 q 771 -3 824 -3 q 730 10 743 -3 q 717 53 717 24 l 717 161 q 600 47 678 92 q 425 3 522 3 q 179 106 258 3 q 100 363 100 208 q 101 524 100 438 q 104 656 103 610 q 110 929 107 749 q 161 975 110 975 q 201 963 188 975 q 215 928 215 950 q 211 636 215 886 q 208 364 208 458 q 269 168 208 235 q 443 101 329 101 q 578 146 515 101 q 677 258 640 190 q 714 392 714 326 q 710 935 714 564 q 760 983 710 983 q 801 969 786 983 q 815 932 815 956 q 819 592 815 782 m 235 1075 q 206 1083 217 1072 q 196 1115 196 1094 q 206 1145 196 1133 q 233 1160 215 1157 q 478 1179 342 1178 l 558 1179 l 668 1179 q 701 1167 689 1179 q 714 1133 714 1154 q 669 1094 714 1094 q 625 1096 644 1094 l 474 1097 q 312 1087 378 1097 q 235 1075 246 1076 z "},"Ų":{"ha":926,"x_min":100,"x_max":858,"o":"m 835 -140 q 851 -149 844 -140 q 858 -171 858 -157 q 782 -221 858 -221 q 686 -194 724 -221 q 649 -111 649 -168 q 719 29 649 -39 q 717 53 717 43 l 717 161 q 600 47 678 92 q 425 3 522 3 q 179 106 258 3 q 100 363 100 208 q 101 524 100 438 q 104 656 103 610 q 110 929 107 749 q 161 975 110 975 q 201 963 188 975 q 215 928 215 950 q 211 636 215 886 q 208 364 208 458 q 269 168 208 235 q 443 101 329 101 q 578 146 515 101 q 677 258 640 190 q 714 392 714 326 q 710 935 714 564 q 760 983 710 983 q 801 969 786 983 q 815 932 815 956 q 819 592 815 782 q 821 503 819 535 q 824 43 824 267 q 801 3 824 13 q 747 -51 765 -26 q 729 -104 729 -76 q 746 -139 729 -128 q 788 -150 763 -150 q 814 -145 797 -150 q 835 -140 831 -140 z "},"Ů":{"ha":926,"x_min":100,"x_max":824,"o":"m 819 592 q 821 503 819 535 q 824 43 824 267 q 771 -3 824 -3 q 730 10 743 -3 q 717 53 717 24 l 717 161 q 600 47 678 92 q 425 3 522 3 q 179 106 258 3 q 100 363 100 208 q 101 524 100 438 q 104 656 103 610 q 110 929 107 749 q 161 975 110 975 q 201 963 188 975 q 215 928 215 950 q 211 636 215 886 q 208 364 208 458 q 269 168 208 235 q 443 101 329 101 q 578 146 515 101 q 677 258 640 190 q 714 392 714 326 q 710 935 714 564 q 760 983 710 983 q 801 969 786 983 q 815 932 815 956 q 819 592 815 782 m 463 1024 q 355 1067 399 1024 q 311 1175 311 1111 q 356 1279 311 1236 q 467 1322 400 1322 q 541 1301 507 1322 q 594 1247 575 1281 q 613 1175 613 1213 q 570 1067 613 1110 q 463 1024 528 1024 m 463 1094 q 520 1117 497 1094 q 543 1175 543 1140 q 520 1229 543 1206 q 463 1253 497 1253 q 405 1230 428 1253 q 382 1175 382 1207 q 405 1117 382 1140 q 463 1094 428 1094 z "},"Ũ":{"ha":926,"x_min":100,"x_max":824,"o":"m 819 592 q 821 503 819 535 q 824 43 824 267 q 771 -3 824 -3 q 730 10 743 -3 q 717 53 717 24 l 717 161 q 600 47 678 92 q 425 3 522 3 q 179 106 258 3 q 100 363 100 208 q 101 524 100 438 q 104 656 103 610 q 110 929 107 749 q 161 975 110 975 q 201 963 188 975 q 215 928 215 950 q 211 636 215 886 q 208 364 208 458 q 269 168 208 235 q 443 101 329 101 q 578 146 515 101 q 677 258 640 190 q 714 392 714 326 q 710 935 714 564 q 760 983 710 983 q 801 969 786 983 q 815 932 815 956 q 819 592 815 782 m 249 1075 q 236 1104 236 1090 q 247 1133 236 1119 q 307 1190 281 1174 q 369 1207 333 1207 q 492 1176 433 1207 q 517 1163 500 1172 q 547 1150 535 1154 q 568 1146 558 1146 q 588 1152 579 1146 q 608 1169 597 1158 q 643 1190 628 1190 q 672 1176 658 1190 q 685 1147 685 1163 q 674 1118 685 1132 q 619 1077 644 1090 q 565 1064 593 1064 q 527 1070 546 1064 q 485 1089 508 1076 q 454 1103 479 1092 q 420 1117 447 1106 q 375 1129 393 1129 q 351 1121 363 1129 q 330 1101 340 1113 q 317 1086 319 1090 q 275 1064 294 1064 q 249 1075 260 1064 z "},"V":{"ha":893,"x_min":69,"x_max":824,"o":"m 456 0 q 390 17 419 0 q 344 67 361 35 q 190 518 306 140 q 126 738 121 754 q 72 922 103 814 q 69 938 69 933 q 87 970 69 957 q 126 983 104 983 q 171 957 163 983 q 242 713 215 811 l 293 536 q 375 274 347 357 q 420 160 403 192 q 454 129 438 129 q 488 160 472 131 q 529 270 504 190 q 606 536 554 350 l 718 954 q 765 981 728 981 q 807 967 790 981 q 824 933 824 954 q 822 921 824 925 q 733 600 789 794 l 711 522 q 567 67 604 146 q 522 18 553 36 q 456 0 492 0 z "},"W":{"ha":1219,"x_min":89,"x_max":1131,"o":"m 386 3 q 339 16 360 3 q 311 53 318 29 q 232 368 282 149 q 193 535 240 331 q 92 910 157 686 q 89 932 89 921 q 103 965 89 951 q 144 978 118 978 q 177 969 165 978 q 194 939 189 960 q 296 558 261 697 q 328 421 314 485 q 374 232 356 299 q 399 165 392 165 q 419 196 406 165 q 454 275 433 226 l 489 356 l 501 383 q 568 528 546 489 q 610 568 590 568 q 651 535 629 568 q 714 417 672 503 q 735 376 725 396 q 754 339 746 356 q 774 299 764 321 q 797 256 785 278 q 831 191 817 217 q 850 165 844 165 q 869 233 854 165 q 903 386 885 301 q 938 557 932 535 q 1024 940 976 738 q 1042 967 1028 958 q 1075 976 1056 976 q 1115 963 1099 976 q 1131 925 1131 949 q 1129 911 1131 917 q 1040 536 1086 746 l 993 313 q 940 61 968 181 q 868 6 928 6 q 820 25 843 6 q 772 88 797 44 q 704 214 746 131 q 656 322 683 256 q 632 376 643 353 q 617 400 621 400 q 571 304 608 400 q 526 196 539 224 q 468 74 490 114 q 428 18 446 33 q 386 3 410 3 z "},"Ẃ":{"ha":1219,"x_min":89,"x_max":1131,"o":"m 386 3 q 339 16 360 3 q 311 53 318 29 q 232 368 282 149 q 193 535 240 331 q 92 910 157 686 q 89 932 89 921 q 103 965 89 951 q 144 978 118 978 q 177 969 165 978 q 194 939 189 960 q 296 558 261 697 q 328 421 314 485 q 374 232 356 299 q 399 165 392 165 q 419 196 406 165 q 454 275 433 226 l 489 356 l 501 383 q 568 528 546 489 q 610 568 590 568 q 651 535 629 568 q 714 417 672 503 q 735 376 725 396 q 754 339 746 356 q 774 299 764 321 q 797 256 785 278 q 831 191 817 217 q 850 165 844 165 q 869 233 854 165 q 903 386 885 301 q 938 557 932 535 q 1024 940 976 738 q 1042 967 1028 958 q 1075 976 1056 976 q 1115 963 1099 976 q 1131 925 1131 949 q 1129 911 1131 917 q 1040 536 1086 746 l 993 313 q 940 61 968 181 q 868 6 928 6 q 820 25 843 6 q 772 88 797 44 q 704 214 746 131 q 656 322 683 256 q 632 376 643 353 q 617 400 621 400 q 571 304 608 400 q 526 196 539 224 q 468 74 490 114 q 428 18 446 33 q 386 3 410 3 m 563 1051 q 537 1063 547 1051 q 526 1089 526 1074 q 546 1129 526 1111 l 658 1247 q 686 1273 675 1265 q 710 1281 697 1281 q 738 1268 726 1281 q 750 1238 750 1256 q 726 1193 750 1217 l 604 1074 q 563 1051 582 1051 z "},"Ŵ":{"ha":1219,"x_min":89,"x_max":1131,"o":"m 386 3 q 339 16 360 3 q 311 53 318 29 q 232 368 282 149 q 193 535 240 331 q 92 910 157 686 q 89 932 89 921 q 103 965 89 951 q 144 978 118 978 q 177 969 165 978 q 194 939 189 960 q 296 558 261 697 q 328 421 314 485 q 374 232 356 299 q 399 165 392 165 q 419 196 406 165 q 454 275 433 226 l 489 356 l 501 383 q 568 528 546 489 q 610 568 590 568 q 651 535 629 568 q 714 417 672 503 q 735 376 725 396 q 754 339 746 356 q 774 299 764 321 q 797 256 785 278 q 831 191 817 217 q 850 165 844 165 q 869 233 854 165 q 903 386 885 301 q 938 557 932 535 q 1024 940 976 738 q 1042 967 1028 958 q 1075 976 1056 976 q 1115 963 1099 976 q 1131 925 1131 949 q 1129 911 1131 917 q 1040 536 1086 746 l 993 313 q 940 61 968 181 q 868 6 928 6 q 820 25 843 6 q 772 88 797 44 q 704 214 746 131 q 656 322 683 256 q 632 376 643 353 q 617 400 621 400 q 571 304 608 400 q 526 196 539 224 q 468 74 490 114 q 428 18 446 33 q 386 3 410 3 m 779 1060 q 743 1078 756 1060 q 662 1181 696 1142 q 615 1219 628 1219 q 575 1190 604 1219 q 488 1094 546 1161 q 444 1067 464 1067 q 416 1079 429 1067 q 403 1107 403 1092 q 417 1139 403 1125 q 451 1176 439 1161 q 544 1270 504 1235 q 611 1306 583 1306 q 682 1273 647 1306 q 768 1174 717 1240 l 806 1126 q 818 1099 818 1114 q 806 1072 818 1083 q 779 1060 794 1060 z "},"Ẅ":{"ha":1219,"x_min":89,"x_max":1131,"o":"m 386 3 q 339 16 360 3 q 311 53 318 29 q 232 368 282 149 q 193 535 240 331 q 92 910 157 686 q 89 932 89 921 q 103 965 89 951 q 144 978 118 978 q 177 969 165 978 q 194 939 189 960 q 296 558 261 697 q 328 421 314 485 q 374 232 356 299 q 399 165 392 165 q 419 196 406 165 q 454 275 433 226 l 489 356 l 501 383 q 568 528 546 489 q 610 568 590 568 q 651 535 629 568 q 714 417 672 503 q 735 376 725 396 q 754 339 746 356 q 774 299 764 321 q 797 256 785 278 q 831 191 817 217 q 850 165 844 165 q 869 233 854 165 q 903 386 885 301 q 938 557 932 535 q 1024 940 976 738 q 1042 967 1028 958 q 1075 976 1056 976 q 1115 963 1099 976 q 1131 925 1131 949 q 1129 911 1131 917 q 1040 536 1086 746 l 993 313 q 940 61 968 181 q 868 6 928 6 q 820 25 843 6 q 772 88 797 44 q 704 214 746 131 q 656 322 683 256 q 632 376 643 353 q 617 400 621 400 q 571 304 608 400 q 526 196 539 224 q 468 74 490 114 q 428 18 446 33 q 386 3 410 3 m 447 1078 q 394 1100 415 1078 q 372 1154 372 1122 q 394 1206 372 1185 q 447 1226 415 1226 q 501 1206 479 1226 q 524 1154 524 1185 q 501 1101 524 1124 q 447 1078 478 1078 m 781 1078 q 727 1100 749 1078 q 706 1154 706 1122 q 727 1206 706 1185 q 781 1226 749 1226 q 834 1206 813 1226 q 856 1154 856 1185 q 833 1100 856 1122 q 781 1078 811 1078 z "},"Ẁ":{"ha":1219,"x_min":89,"x_max":1131,"o":"m 386 3 q 339 16 360 3 q 311 53 318 29 q 232 368 282 149 q 193 535 240 331 q 92 910 157 686 q 89 932 89 921 q 103 965 89 951 q 144 978 118 978 q 177 969 165 978 q 194 939 189 960 q 296 558 261 697 q 328 421 314 485 q 374 232 356 299 q 399 165 392 165 q 419 196 406 165 q 454 275 433 226 l 489 356 l 501 383 q 568 528 546 489 q 610 568 590 568 q 651 535 629 568 q 714 417 672 503 q 735 376 725 396 q 754 339 746 356 q 774 299 764 321 q 797 256 785 278 q 831 191 817 217 q 850 165 844 165 q 869 233 854 165 q 903 386 885 301 q 938 557 932 535 q 1024 940 976 738 q 1042 967 1028 958 q 1075 976 1056 976 q 1115 963 1099 976 q 1131 925 1131 949 q 1129 911 1131 917 q 1040 536 1086 746 l 993 313 q 940 61 968 181 q 868 6 928 6 q 820 25 843 6 q 772 88 797 44 q 704 214 746 131 q 656 322 683 256 q 632 376 643 353 q 617 400 621 400 q 571 304 608 400 q 526 196 539 224 q 468 74 490 114 q 428 18 446 33 q 386 3 410 3 m 685 1051 q 665 1056 674 1051 q 643 1074 656 1061 l 533 1193 q 510 1238 510 1219 q 522 1268 510 1256 q 550 1281 533 1281 q 601 1247 574 1281 l 703 1129 q 722 1089 722 1107 q 711 1063 722 1074 q 685 1051 700 1051 z "},"X":{"ha":922,"x_min":79,"x_max":842,"o":"m 819 81 q 835 49 835 60 q 817 11 835 28 q 775 -6 799 -6 q 738 15 754 -6 l 458 392 l 188 31 q 164 8 176 15 q 133 1 151 1 q 95 17 111 1 q 79 50 79 32 q 83 69 79 63 q 96 88 86 76 l 394 479 l 94 890 q 83 918 83 906 q 101 956 83 940 q 143 971 118 971 q 167 963 157 971 q 193 933 176 954 l 460 567 q 739 938 639 803 q 759 961 750 954 q 779 968 768 968 q 823 952 804 968 q 842 919 842 936 q 826 883 842 901 l 525 479 l 819 81 z "},"Y":{"ha":910,"x_min":97,"x_max":813,"o":"m 458 4 q 404 57 404 4 l 400 456 q 232 638 332 479 q 162 763 189 706 q 100 910 135 819 q 97 926 97 918 q 115 958 97 944 q 154 972 132 972 q 210 924 189 972 q 269 790 250 828 q 328 685 288 751 q 399 582 367 622 q 456 542 431 542 q 585 686 499 542 q 643 794 617 740 q 704 929 669 849 q 725 961 714 953 q 753 969 736 969 q 795 955 778 969 q 813 919 813 940 q 808 901 813 910 q 742 746 769 804 q 681 635 714 688 q 585 511 632 557 q 507 456 538 465 l 511 60 q 458 4 511 4 z "},"Ý":{"ha":910,"x_min":97,"x_max":813,"o":"m 458 4 q 404 57 404 4 l 400 456 q 232 638 332 479 q 162 763 189 706 q 100 910 135 819 q 97 926 97 918 q 115 958 97 944 q 154 972 132 972 q 210 924 189 972 q 269 790 250 828 q 328 685 288 751 q 399 582 367 622 q 456 542 431 542 q 585 686 499 542 q 643 794 617 740 q 704 929 669 849 q 725 961 714 953 q 753 969 736 969 q 795 955 778 969 q 813 919 813 940 q 808 901 813 910 q 742 746 769 804 q 681 635 714 688 q 585 511 632 557 q 507 456 538 465 l 511 60 q 458 4 511 4 m 407 1051 q 381 1063 392 1051 q 371 1089 371 1074 q 390 1129 371 1111 l 503 1247 q 531 1273 519 1265 q 554 1281 542 1281 q 583 1268 571 1281 q 594 1238 594 1256 q 571 1193 594 1217 l 449 1074 q 407 1051 426 1051 z "},"Ŷ":{"ha":910,"x_min":97,"x_max":813,"o":"m 458 4 q 404 57 404 4 l 400 456 q 232 638 332 479 q 162 763 189 706 q 100 910 135 819 q 97 926 97 918 q 115 958 97 944 q 154 972 132 972 q 210 924 189 972 q 269 790 250 828 q 328 685 288 751 q 399 582 367 622 q 456 542 431 542 q 585 686 499 542 q 643 794 617 740 q 704 929 669 849 q 725 961 714 953 q 753 969 736 969 q 795 955 778 969 q 813 919 813 940 q 808 901 813 910 q 742 746 769 804 q 681 635 714 688 q 585 511 632 557 q 507 456 538 465 l 511 60 q 458 4 511 4 m 624 1060 q 588 1078 600 1060 q 506 1181 540 1142 q 460 1219 472 1219 q 419 1190 449 1219 q 332 1094 390 1161 q 289 1067 308 1067 q 260 1079 274 1067 q 247 1107 247 1092 q 261 1139 247 1125 q 296 1176 283 1161 q 388 1270 349 1235 q 456 1306 428 1306 q 526 1273 492 1306 q 613 1174 561 1240 l 650 1126 q 663 1099 663 1114 q 651 1072 663 1083 q 624 1060 639 1060 z "},"Ÿ":{"ha":910,"x_min":97,"x_max":813,"o":"m 458 4 q 404 57 404 4 l 400 456 q 232 638 332 479 q 162 763 189 706 q 100 910 135 819 q 97 926 97 918 q 115 958 97 944 q 154 972 132 972 q 210 924 189 972 q 269 790 250 828 q 328 685 288 751 q 399 582 367 622 q 456 542 431 542 q 585 686 499 542 q 643 794 617 740 q 704 929 669 849 q 725 961 714 953 q 753 969 736 969 q 795 955 778 969 q 813 919 813 940 q 808 901 813 910 q 742 746 769 804 q 681 635 714 688 q 585 511 632 557 q 507 456 538 465 l 511 60 q 458 4 511 4 m 292 1078 q 238 1100 260 1078 q 217 1154 217 1122 q 238 1206 217 1185 q 292 1226 260 1226 q 346 1206 324 1226 q 368 1154 368 1185 q 345 1101 368 1124 q 292 1078 322 1078 m 625 1078 q 572 1100 593 1078 q 550 1154 550 1122 q 572 1206 550 1185 q 625 1226 593 1226 q 678 1206 657 1226 q 700 1154 700 1185 q 678 1100 700 1122 q 625 1078 656 1078 z "},"Ẏ":{"ha":910,"x_min":97,"x_max":813,"o":"m 458 4 q 404 57 404 4 l 400 456 q 232 638 332 479 q 162 763 189 706 q 100 910 135 819 q 97 926 97 918 q 115 958 97 944 q 154 972 132 972 q 210 924 189 972 q 269 790 250 828 q 328 685 288 751 q 399 582 367 622 q 456 542 431 542 q 585 686 499 542 q 643 794 617 740 q 704 929 669 849 q 725 961 714 953 q 753 969 736 969 q 795 955 778 969 q 813 919 813 940 q 808 901 813 910 q 742 746 769 804 q 681 635 714 688 q 585 511 632 557 q 507 456 538 465 l 511 60 q 458 4 511 4 m 458 1078 q 405 1100 426 1078 q 383 1154 383 1122 q 405 1206 383 1185 q 458 1226 426 1226 q 512 1206 490 1226 q 533 1154 533 1185 q 512 1100 533 1122 q 458 1078 490 1078 z "},"Ỵ":{"ha":910,"x_min":97,"x_max":813,"o":"m 458 4 q 404 57 404 4 l 400 456 q 232 638 332 479 q 162 763 189 706 q 100 910 135 819 q 97 926 97 918 q 115 958 97 944 q 154 972 132 972 q 210 924 189 972 q 269 790 250 828 q 328 685 288 751 q 399 582 367 622 q 456 542 431 542 q 585 686 499 542 q 643 794 617 740 q 704 929 669 849 q 725 961 714 953 q 753 969 736 969 q 795 955 778 969 q 813 919 813 940 q 808 901 813 910 q 742 746 769 804 q 681 635 714 688 q 585 511 632 557 q 507 456 538 465 l 511 60 q 458 4 511 4 m 458 -249 q 405 -226 426 -249 q 383 -172 383 -204 q 405 -121 383 -142 q 458 -100 426 -100 q 512 -121 490 -100 q 533 -172 533 -142 q 512 -226 533 -204 q 458 -249 490 -249 z "},"Ỳ":{"ha":910,"x_min":97,"x_max":813,"o":"m 458 4 q 404 57 404 4 l 400 456 q 232 638 332 479 q 162 763 189 706 q 100 910 135 819 q 97 926 97 918 q 115 958 97 944 q 154 972 132 972 q 210 924 189 972 q 269 790 250 828 q 328 685 288 751 q 399 582 367 622 q 456 542 431 542 q 585 686 499 542 q 643 794 617 740 q 704 929 669 849 q 725 961 714 953 q 753 969 736 969 q 795 955 778 969 q 813 919 813 940 q 808 901 813 910 q 742 746 769 804 q 681 635 714 688 q 585 511 632 557 q 507 456 538 465 l 511 60 q 458 4 511 4 m 529 1051 q 509 1056 518 1051 q 488 1074 500 1061 l 378 1193 q 354 1238 354 1219 q 366 1268 354 1256 q 394 1281 378 1281 q 446 1247 418 1281 l 547 1129 q 567 1089 567 1107 q 556 1063 567 1074 q 529 1051 544 1051 z "},"Ỷ":{"ha":910,"x_min":97,"x_max":813,"o":"m 458 4 q 404 57 404 4 l 400 456 q 232 638 332 479 q 162 763 189 706 q 100 910 135 819 q 97 926 97 918 q 115 958 97 944 q 154 972 132 972 q 210 924 189 972 q 269 790 250 828 q 328 685 288 751 q 399 582 367 622 q 456 542 431 542 q 585 686 499 542 q 643 794 617 740 q 704 929 669 849 q 725 961 714 953 q 753 969 736 969 q 795 955 778 969 q 813 919 813 940 q 808 901 813 910 q 742 746 769 804 q 681 635 714 688 q 585 511 632 557 q 507 456 538 465 l 511 60 q 458 4 511 4 m 464 1054 q 433 1067 446 1054 q 421 1099 421 1079 l 421 1151 q 433 1181 421 1168 q 471 1217 444 1194 q 508 1250 494 1235 q 521 1281 521 1265 q 500 1321 521 1306 q 443 1336 479 1336 q 351 1278 385 1336 q 318 1254 339 1254 q 294 1265 306 1254 q 283 1290 283 1276 q 292 1318 283 1306 q 451 1408 344 1408 q 565 1377 524 1408 q 606 1288 606 1346 q 590 1238 606 1258 q 546 1192 575 1218 q 523 1170 533 1181 q 511 1150 513 1160 q 510 1101 510 1131 q 497 1067 510 1079 q 464 1054 483 1054 z "},"Ỹ":{"ha":910,"x_min":97,"x_max":813,"o":"m 458 4 q 404 57 404 4 l 400 456 q 232 638 332 479 q 162 763 189 706 q 100 910 135 819 q 97 926 97 918 q 115 958 97 944 q 154 972 132 972 q 210 924 189 972 q 269 790 250 828 q 328 685 288 751 q 399 582 367 622 q 456 542 431 542 q 585 686 499 542 q 643 794 617 740 q 704 929 669 849 q 725 961 714 953 q 753 969 736 969 q 795 955 778 969 q 813 919 813 940 q 808 901 813 910 q 742 746 769 804 q 681 635 714 688 q 585 511 632 557 q 507 456 538 465 l 511 60 q 458 4 511 4 m 246 1075 q 233 1104 233 1090 q 244 1133 233 1119 q 304 1190 278 1174 q 367 1207 331 1207 q 489 1176 431 1207 q 515 1163 497 1172 q 544 1150 532 1154 q 565 1146 556 1146 q 585 1152 576 1146 q 606 1169 594 1158 q 640 1190 625 1190 q 669 1176 656 1190 q 682 1147 682 1163 q 671 1118 682 1132 q 616 1077 642 1090 q 563 1064 590 1064 q 524 1070 543 1064 q 482 1089 506 1076 q 451 1103 476 1092 q 417 1117 444 1106 q 372 1129 390 1129 q 349 1121 360 1129 q 327 1101 338 1113 q 314 1086 317 1090 q 272 1064 292 1064 q 246 1075 257 1064 z "},"Z":{"ha":935,"x_min":60,"x_max":890,"o":"m 750 26 q 611 36 679 32 q 463 40 543 40 q 204 33 385 40 q 160 33 174 33 q 143 32 147 32 q 80 41 100 32 q 60 74 60 50 q 113 172 60 108 q 300 374 167 236 q 460 539 439 517 q 473 553 465 546 q 489 571 481 561 q 669 763 618 707 q 756 865 721 819 q 497 850 600 850 q 314 858 415 850 q 164 876 213 865 q 124 895 136 883 q 111 925 111 907 q 124 960 111 947 q 164 974 138 974 q 272 964 199 974 q 488 947 389 947 q 606 951 546 947 q 747 963 665 956 l 799 967 q 833 963 814 968 q 865 949 851 958 q 890 904 890 931 q 818 779 890 864 q 588 531 746 694 l 554 496 q 474 413 524 465 q 304 235 378 313 q 204 126 231 158 q 508 136 389 136 q 653 132 590 136 q 799 118 715 128 q 833 103 821 115 q 844 71 844 90 q 828 34 844 49 q 789 24 813 19 l 750 26 z "},"Ź":{"ha":935,"x_min":60,"x_max":890,"o":"m 750 26 q 611 36 679 32 q 463 40 543 40 q 204 33 385 40 q 160 33 174 33 q 143 32 147 32 q 80 41 100 32 q 60 74 60 50 q 113 172 60 108 q 300 374 167 236 q 460 539 439 517 q 473 553 465 546 q 489 571 481 561 q 669 763 618 707 q 756 865 721 819 q 497 850 600 850 q 314 858 415 850 q 164 876 213 865 q 124 895 136 883 q 111 925 111 907 q 124 960 111 947 q 164 974 138 974 q 272 964 199 974 q 488 947 389 947 q 606 951 546 947 q 747 963 665 956 l 799 967 q 833 963 814 968 q 865 949 851 958 q 890 904 890 931 q 818 779 890 864 q 588 531 746 694 l 554 496 q 474 413 524 465 q 304 235 378 313 q 204 126 231 158 q 508 136 389 136 q 653 132 590 136 q 799 118 715 128 q 833 103 821 115 q 844 71 844 90 q 828 34 844 49 q 789 24 813 19 l 750 26 m 415 1051 q 390 1063 400 1051 q 379 1089 379 1074 q 399 1129 379 1111 l 511 1247 q 539 1273 528 1265 q 563 1281 550 1281 q 591 1268 579 1281 q 603 1238 603 1256 q 579 1193 603 1217 l 457 1074 q 415 1051 435 1051 z "},"Ž":{"ha":935,"x_min":60,"x_max":890,"o":"m 750 26 q 611 36 679 32 q 463 40 543 40 q 204 33 385 40 q 160 33 174 33 q 143 32 147 32 q 80 41 100 32 q 60 74 60 50 q 113 172 60 108 q 300 374 167 236 q 460 539 439 517 q 473 553 465 546 q 489 571 481 561 q 669 763 618 707 q 756 865 721 819 q 497 850 600 850 q 314 858 415 850 q 164 876 213 865 q 124 895 136 883 q 111 925 111 907 q 124 960 111 947 q 164 974 138 974 q 272 964 199 974 q 488 947 389 947 q 606 951 546 947 q 747 963 665 956 l 799 967 q 833 963 814 968 q 865 949 851 958 q 890 904 890 931 q 818 779 890 864 q 588 531 746 694 l 554 496 q 474 413 524 465 q 304 235 378 313 q 204 126 231 158 q 508 136 389 136 q 653 132 590 136 q 799 118 715 128 q 833 103 821 115 q 844 71 844 90 q 828 34 844 49 q 789 24 813 19 l 750 26 m 632 1310 q 659 1298 647 1310 q 671 1271 671 1286 q 667 1257 671 1264 q 658 1243 664 1250 q 551 1109 594 1154 q 464 1064 508 1064 q 398 1099 436 1064 q 307 1192 360 1133 l 269 1232 q 256 1263 256 1246 q 269 1290 256 1278 q 297 1303 282 1303 q 340 1275 317 1303 q 468 1150 444 1150 q 508 1184 479 1150 q 596 1293 538 1218 q 632 1310 608 1310 z "},"Ż":{"ha":935,"x_min":60,"x_max":890,"o":"m 750 26 q 611 36 679 32 q 463 40 543 40 q 204 33 385 40 q 160 33 174 33 q 143 32 147 32 q 80 41 100 32 q 60 74 60 50 q 113 172 60 108 q 300 374 167 236 q 460 539 439 517 q 473 553 465 546 q 489 571 481 561 q 669 763 618 707 q 756 865 721 819 q 497 850 600 850 q 314 858 415 850 q 164 876 213 865 q 124 895 136 883 q 111 925 111 907 q 124 960 111 947 q 164 974 138 974 q 272 964 199 974 q 488 947 389 947 q 606 951 546 947 q 747 963 665 956 l 799 967 q 833 963 814 968 q 865 949 851 958 q 890 904 890 931 q 818 779 890 864 q 588 531 746 694 l 554 496 q 474 413 524 465 q 304 235 378 313 q 204 126 231 158 q 508 136 389 136 q 653 132 590 136 q 799 118 715 128 q 833 103 821 115 q 844 71 844 90 q 828 34 844 49 q 789 24 813 19 l 750 26 m 467 1078 q 413 1100 435 1078 q 392 1154 392 1122 q 413 1206 392 1185 q 467 1226 435 1226 q 520 1206 499 1226 q 542 1154 542 1185 q 520 1100 542 1122 q 467 1078 499 1078 z "},"Ẓ":{"ha":935,"x_min":60,"x_max":890,"o":"m 750 26 q 611 36 679 32 q 463 40 543 40 q 204 33 385 40 q 160 33 174 33 q 143 32 147 32 q 80 41 100 32 q 60 74 60 50 q 113 172 60 108 q 300 374 167 236 q 460 539 439 517 q 473 553 465 546 q 489 571 481 561 q 669 763 618 707 q 756 865 721 819 q 497 850 600 850 q 314 858 415 850 q 164 876 213 865 q 124 895 136 883 q 111 925 111 907 q 124 960 111 947 q 164 974 138 974 q 272 964 199 974 q 488 947 389 947 q 606 951 546 947 q 747 963 665 956 l 799 967 q 833 963 814 968 q 865 949 851 958 q 890 904 890 931 q 818 779 890 864 q 588 531 746 694 l 554 496 q 474 413 524 465 q 304 235 378 313 q 204 126 231 158 q 508 136 389 136 q 653 132 590 136 q 799 118 715 128 q 833 103 821 115 q 844 71 844 90 q 828 34 844 49 q 789 24 813 19 l 750 26 m 467 -249 q 413 -226 435 -249 q 392 -172 392 -204 q 413 -121 392 -142 q 467 -100 435 -100 q 520 -121 499 -100 q 542 -172 542 -142 q 520 -226 542 -204 q 467 -249 499 -249 z "},"a":{"ha":865,"x_min":81,"x_max":783,"o":"m 744 90 q 774 79 764 88 q 783 49 783 71 q 773 15 783 28 q 744 3 763 3 q 660 21 688 3 q 614 89 633 39 q 392 -12 551 -12 q 210 38 279 -12 q 110 165 140 88 q 81 328 81 242 q 118 503 81 421 q 228 635 156 585 q 403 685 301 685 q 524 657 472 685 q 604 579 575 629 l 610 625 q 657 676 613 676 q 699 663 685 676 q 711 632 714 650 l 707 597 q 693 476 697 539 q 689 335 689 424 l 689 239 q 692 151 689 179 q 707 107 696 122 q 744 90 718 92 m 583 240 q 585 408 585 306 q 556 519 585 476 q 485 579 526 561 q 406 597 443 597 q 283 556 332 597 q 210 451 233 514 q 188 328 188 389 q 235 153 188 231 q 393 76 283 76 q 528 119 475 76 q 583 240 582 161 z "},"á":{"ha":865,"x_min":81,"x_max":783,"o":"m 744 90 q 774 79 764 88 q 783 49 783 71 q 773 15 783 28 q 744 3 763 3 q 660 21 688 3 q 614 89 633 39 q 392 -12 551 -12 q 210 38 279 -12 q 110 165 140 88 q 81 328 81 242 q 118 503 81 421 q 228 635 156 585 q 403 685 301 685 q 524 657 472 685 q 604 579 575 629 l 610 625 q 657 676 613 676 q 699 663 685 676 q 711 632 714 650 l 707 597 q 693 476 697 539 q 689 335 689 424 l 689 239 q 692 151 689 179 q 707 107 696 122 q 744 90 718 92 m 583 240 q 585 408 585 306 q 556 519 585 476 q 485 579 526 561 q 406 597 443 597 q 283 556 332 597 q 210 451 233 514 q 188 328 188 389 q 235 153 188 231 q 393 76 283 76 q 528 119 475 76 q 583 240 582 161 m 374 774 q 348 785 358 774 q 338 811 338 796 q 357 851 338 833 l 469 969 q 497 995 486 988 q 521 1003 508 1003 q 549 990 538 1003 q 561 960 561 978 q 538 915 561 939 l 415 796 q 374 774 393 774 z "},"ă":{"ha":865,"x_min":81,"x_max":783,"o":"m 744 90 q 774 79 764 88 q 783 49 783 71 q 773 15 783 28 q 744 3 763 3 q 660 21 688 3 q 614 89 633 39 q 392 -12 551 -12 q 210 38 279 -12 q 110 165 140 88 q 81 328 81 242 q 118 503 81 421 q 228 635 156 585 q 403 685 301 685 q 524 657 472 685 q 604 579 575 629 l 610 625 q 657 676 613 676 q 699 663 685 676 q 711 632 714 650 l 707 597 q 693 476 697 539 q 689 335 689 424 l 689 239 q 692 151 689 179 q 707 107 696 122 q 744 90 718 92 m 583 240 q 585 408 585 306 q 556 519 585 476 q 485 579 526 561 q 406 597 443 597 q 283 556 332 597 q 210 451 233 514 q 188 328 188 389 q 235 153 188 231 q 393 76 283 76 q 528 119 475 76 q 583 240 582 161 m 425 786 q 313 811 363 786 q 234 878 263 836 q 206 968 206 919 q 217 995 206 983 q 244 1007 229 1007 q 272 1001 260 1007 q 286 981 285 994 q 328 892 289 925 q 425 860 367 860 q 515 894 476 860 q 554 976 553 928 q 567 1002 554 993 q 597 1011 581 1011 q 626 1000 614 1011 q 638 972 638 989 q 608 881 638 924 q 531 812 579 838 q 425 786 482 786 z "},"ắ":{"ha":865,"x_min":81,"x_max":783,"o":"m 744 90 q 774 79 764 88 q 783 49 783 71 q 773 15 783 28 q 744 3 763 3 q 660 21 688 3 q 614 89 633 39 q 392 -12 551 -12 q 210 38 279 -12 q 110 165 140 88 q 81 328 81 242 q 118 503 81 421 q 228 635 156 585 q 403 685 301 685 q 524 657 472 685 q 604 579 575 629 l 610 625 q 657 676 613 676 q 699 663 685 676 q 711 632 714 650 l 707 597 q 693 476 697 539 q 689 335 689 424 l 689 239 q 692 151 689 179 q 707 107 696 122 q 744 90 718 92 m 583 240 q 585 408 585 306 q 556 519 585 476 q 485 579 526 561 q 406 597 443 597 q 283 556 332 597 q 210 451 233 514 q 188 328 188 389 q 235 153 188 231 q 393 76 283 76 q 528 119 475 76 q 583 240 582 161 m 417 1017 q 390 1028 401 1017 q 379 1056 379 1039 q 399 1094 379 1072 l 465 1165 q 517 1197 496 1197 q 544 1185 532 1197 q 557 1156 557 1174 q 551 1133 557 1143 q 533 1111 544 1122 l 457 1039 q 436 1022 444 1026 q 417 1017 428 1017 m 424 786 q 311 811 361 786 q 233 878 261 836 q 204 968 204 919 q 216 995 204 983 q 243 1007 228 1007 q 271 1001 258 1007 q 285 981 283 994 q 326 892 288 925 q 424 860 365 860 q 513 894 475 860 q 553 976 551 928 q 566 1002 553 993 q 596 1011 579 1011 q 624 1000 613 1011 q 636 972 636 989 q 607 881 636 924 q 529 812 578 838 q 424 786 481 786 z "},"ặ":{"ha":865,"x_min":81,"x_max":783,"o":"m 744 90 q 774 79 764 88 q 783 49 783 71 q 773 15 783 28 q 744 3 763 3 q 660 21 688 3 q 614 89 633 39 q 392 -12 551 -12 q 210 38 279 -12 q 110 165 140 88 q 81 328 81 242 q 118 503 81 421 q 228 635 156 585 q 403 685 301 685 q 524 657 472 685 q 604 579 575 629 l 610 625 q 657 676 613 676 q 699 663 685 676 q 711 632 714 650 l 707 597 q 693 476 697 539 q 689 335 689 424 l 689 239 q 692 151 689 179 q 707 107 696 122 q 744 90 718 92 m 583 240 q 585 408 585 306 q 556 519 585 476 q 485 579 526 561 q 406 597 443 597 q 283 556 332 597 q 210 451 233 514 q 188 328 188 389 q 235 153 188 231 q 393 76 283 76 q 528 119 475 76 q 583 240 582 161 m 425 -249 q 372 -226 393 -249 q 350 -172 350 -204 q 372 -121 350 -142 q 425 -100 393 -100 q 478 -121 457 -100 q 500 -172 500 -142 q 478 -226 500 -204 q 425 -249 457 -249 m 425 786 q 313 811 363 786 q 234 878 263 836 q 206 968 206 919 q 217 995 206 983 q 244 1007 229 1007 q 272 1001 260 1007 q 286 981 285 994 q 328 892 289 925 q 425 860 367 860 q 515 894 476 860 q 554 976 553 928 q 567 1002 554 993 q 597 1011 581 1011 q 626 1000 614 1011 q 638 972 638 989 q 608 881 638 924 q 531 812 579 838 q 425 786 482 786 z "},"ằ":{"ha":865,"x_min":81,"x_max":783,"o":"m 744 90 q 774 79 764 88 q 783 49 783 71 q 773 15 783 28 q 744 3 763 3 q 660 21 688 3 q 614 89 633 39 q 392 -12 551 -12 q 210 38 279 -12 q 110 165 140 88 q 81 328 81 242 q 118 503 81 421 q 228 635 156 585 q 403 685 301 685 q 524 657 472 685 q 604 579 575 629 l 610 625 q 657 676 613 676 q 699 663 685 676 q 711 632 714 650 l 707 597 q 693 476 697 539 q 689 335 689 424 l 689 239 q 692 151 689 179 q 707 107 696 122 q 744 90 718 92 m 583 240 q 585 408 585 306 q 556 519 585 476 q 485 579 526 561 q 406 597 443 597 q 283 556 332 597 q 210 451 233 514 q 188 328 188 389 q 235 153 188 231 q 393 76 283 76 q 528 119 475 76 q 583 240 582 161 m 432 1025 q 413 1030 421 1025 q 392 1047 404 1035 l 315 1119 q 298 1141 304 1131 q 292 1164 292 1151 q 303 1194 292 1182 q 332 1206 315 1206 q 383 1174 353 1206 l 450 1103 q 469 1064 469 1081 q 458 1036 469 1047 q 432 1025 447 1025 m 425 786 q 313 811 363 786 q 234 878 263 836 q 206 968 206 919 q 217 995 206 983 q 244 1007 229 1007 q 272 1001 260 1007 q 286 981 285 994 q 328 892 289 925 q 425 860 367 860 q 515 894 476 860 q 554 976 553 928 q 567 1002 554 993 q 597 1011 581 1011 q 626 1000 614 1011 q 638 972 638 989 q 608 881 638 924 q 531 812 579 838 q 425 786 482 786 z "},"ẳ":{"ha":865,"x_min":81,"x_max":783,"o":"m 744 90 q 774 79 764 88 q 783 49 783 71 q 773 15 783 28 q 744 3 763 3 q 660 21 688 3 q 614 89 633 39 q 392 -12 551 -12 q 210 38 279 -12 q 110 165 140 88 q 81 328 81 242 q 118 503 81 421 q 228 635 156 585 q 403 685 301 685 q 524 657 472 685 q 604 579 575 629 l 610 625 q 657 676 613 676 q 699 663 685 676 q 711 632 714 650 l 707 597 q 693 476 697 539 q 689 335 689 424 l 689 239 q 692 151 689 179 q 707 107 696 122 q 744 90 718 92 m 583 240 q 585 408 585 306 q 556 519 585 476 q 485 579 526 561 q 406 597 443 597 q 283 556 332 597 q 210 451 233 514 q 188 328 188 389 q 235 153 188 231 q 393 76 283 76 q 528 119 475 76 q 583 240 582 161 m 426 1001 q 406 1010 415 1001 q 396 1032 396 1019 l 396 1069 q 404 1091 396 1082 q 431 1115 413 1100 q 454 1138 446 1128 q 463 1157 463 1147 q 415 1190 463 1190 q 377 1181 392 1190 q 358 1156 363 1171 q 349 1143 357 1147 q 333 1139 342 1139 q 307 1167 307 1139 q 340 1222 307 1199 q 421 1246 374 1246 q 497 1224 468 1246 q 525 1164 525 1203 q 514 1129 525 1144 q 483 1097 503 1114 q 471 1085 481 1094 q 461 1068 461 1075 l 461 1033 q 451 1010 461 1018 q 426 1001 442 1001 m 426 786 q 314 811 364 786 q 235 878 264 836 q 207 968 207 919 q 219 995 207 983 q 246 1007 231 1007 q 274 1001 261 1007 q 288 981 286 994 q 329 892 290 925 q 426 860 368 860 q 516 894 478 860 q 556 976 554 928 q 569 1002 556 993 q 599 1011 582 1011 q 627 1000 615 1011 q 639 972 639 989 q 610 881 639 924 q 532 812 581 838 q 426 786 483 786 z "},"ẵ":{"ha":865,"x_min":81,"x_max":783,"o":"m 744 90 q 774 79 764 88 q 783 49 783 71 q 773 15 783 28 q 744 3 763 3 q 660 21 688 3 q 614 89 633 39 q 392 -12 551 -12 q 210 38 279 -12 q 110 165 140 88 q 81 328 81 242 q 118 503 81 421 q 228 635 156 585 q 403 685 301 685 q 524 657 472 685 q 604 579 575 629 l 610 625 q 657 676 613 676 q 699 663 685 676 q 711 632 714 650 l 707 597 q 693 476 697 539 q 689 335 689 424 l 689 239 q 692 151 689 179 q 707 107 696 122 q 744 90 718 92 m 583 240 q 585 408 585 306 q 556 519 585 476 q 485 579 526 561 q 406 597 443 597 q 283 556 332 597 q 210 451 233 514 q 188 328 188 389 q 235 153 188 231 q 393 76 283 76 q 528 119 475 76 q 583 240 582 161 m 250 1065 q 219 1076 231 1065 q 207 1104 207 1089 q 213 1121 207 1110 q 266 1162 232 1149 q 343 1175 300 1175 q 390 1171 371 1175 q 438 1157 410 1167 q 522 1139 482 1139 q 552 1144 538 1139 q 576 1157 567 1149 q 604 1169 590 1169 q 633 1158 621 1169 q 646 1132 646 1147 q 636 1111 646 1126 q 524 1067 606 1067 q 472 1072 496 1067 q 419 1086 449 1076 q 380 1098 400 1093 q 342 1103 360 1103 q 283 1082 308 1103 q 270 1072 281 1079 q 250 1065 260 1065 m 428 786 q 315 811 365 786 q 237 878 265 836 q 208 968 208 919 q 220 995 208 983 q 247 1007 232 1007 q 275 1001 263 1007 q 289 981 288 994 q 331 892 292 925 q 428 860 369 860 q 517 894 479 860 q 557 976 556 928 q 570 1002 557 993 q 600 1011 583 1011 q 628 1000 617 1011 q 640 972 640 989 q 611 881 640 924 q 533 812 582 838 q 428 786 485 786 z "},"ǎ":{"ha":865,"x_min":81,"x_max":783,"o":"m 744 90 q 774 79 764 88 q 783 49 783 71 q 773 15 783 28 q 744 3 763 3 q 660 21 688 3 q 614 89 633 39 q 392 -12 551 -12 q 210 38 279 -12 q 110 165 140 88 q 81 328 81 242 q 118 503 81 421 q 228 635 156 585 q 403 685 301 685 q 524 657 472 685 q 604 579 575 629 l 610 625 q 657 676 613 676 q 699 663 685 676 q 711 632 714 650 l 707 597 q 693 476 697 539 q 689 335 689 424 l 689 239 q 692 151 689 179 q 707 107 696 122 q 744 90 718 92 m 583 240 q 585 408 585 306 q 556 519 585 476 q 485 579 526 561 q 406 597 443 597 q 283 556 332 597 q 210 451 233 514 q 188 328 188 389 q 235 153 188 231 q 393 76 283 76 q 528 119 475 76 q 583 240 582 161 m 590 1032 q 617 1020 606 1032 q 629 993 629 1008 q 626 979 629 986 q 617 965 622 972 q 510 831 553 876 q 422 786 467 786 q 356 821 394 786 q 265 914 318 856 l 228 954 q 214 985 214 968 q 227 1013 214 1000 q 256 1025 240 1025 q 299 997 275 1025 q 426 872 403 872 q 467 906 438 872 q 554 1015 496 940 q 590 1032 567 1032 z "}}}
